<?xml version="1.0" encoding="utf-8" standalone="no"?>
<!DOCTYPE svg PUBLIC "-//W3C//DTD SVG 1.1//EN"
  "http://www.w3.org/Graphics/SVG/1.1/DTD/svg11.dtd">
<svg xmlns:xlink="http://www.w3.org/1999/xlink" width="747.86233pt" height="203.009478pt" viewBox="0 0 747.86233 203.009478" xmlns="http://www.w3.org/2000/svg" version="1.1">
 <metadata>
  <rdf:RDF xmlns:dc="http://purl.org/dc/elements/1.1/" xmlns:cc="http://creativecommons.org/ns#" xmlns:rdf="http://www.w3.org/1999/02/22-rdf-syntax-ns#">
   <cc:Work>
    <dc:type rdf:resource="http://purl.org/dc/dcmitype/StillImage"/>
    <dc:date>2026-06-01T11:29:07.256465</dc:date>
    <dc:format>image/svg+xml</dc:format>
    <dc:creator>
     <cc:Agent>
      <dc:title>Matplotlib v3.9.4, https://matplotlib.org/</dc:title>
     </cc:Agent>
    </dc:creator>
   </cc:Work>
  </rdf:RDF>
 </metadata>
 <defs>
  <style type="text/css">*{stroke-linejoin: round; stroke-linecap: butt}</style>
 </defs>
 <g id="figure_1">
  <g id="patch_1">
   <path d="M 0 203.009478 
L 747.86233 203.009478 
L 747.86233 0 
L 0 0 
z
" style="fill: #ffffff"/>
  </g>
  <g id="axes_1">
   <g id="patch_2">
    <path d="M 35.585217 151.654696 
L 60.816522 151.654696 
L 60.816522 113.807739 
L 35.585217 113.807739 
z
" clip-path="url(#p12112fe094)" style="fill: #4c78a8; opacity: 0.25; stroke: #1f1f1f; stroke-width: 1.4; stroke-linejoin: miter"/>
   </g>
   <g id="patch_3">
    <path d="M 75.00913 151.654696 
L 112.856087 151.654696 
L 112.856087 113.807739 
L 75.00913 113.807739 
z
" clip-path="url(#p12112fe094)" style="fill: #f58518; opacity: 0.25; stroke: #1f1f1f; stroke-width: 1.4; stroke-linejoin: miter"/>
   </g>
   <g id="patch_4">
    <path d="M 122.317826 151.654696 
L 160.164783 151.654696 
L 160.164783 113.807739 
L 122.317826 113.807739 
z
" clip-path="url(#p12112fe094)" style="fill: #54a24b; opacity: 0.25; stroke: #1f1f1f; stroke-width: 1.4; stroke-linejoin: miter"/>
   </g>
   <g id="line2d_1">
    <path d="M 35.585217 142.192957 
L 60.816522 142.192957 
" clip-path="url(#p12112fe094)" style="fill: none; stroke: #1f1f1f; stroke-width: 0.9; stroke-linecap: square"/>
   </g>
   <g id="line2d_2">
    <path d="M 35.585217 132.731217 
L 60.816522 132.731217 
" clip-path="url(#p12112fe094)" style="fill: none; stroke: #1f1f1f; stroke-width: 0.9; stroke-linecap: square"/>
   </g>
   <g id="line2d_3">
    <path d="M 35.585217 123.269478 
L 60.816522 123.269478 
" clip-path="url(#p12112fe094)" style="fill: none; stroke: #1f1f1f; stroke-width: 0.9; stroke-linecap: square"/>
   </g>
   <g id="line2d_4">
    <path d="M 122.317826 142.192957 
L 160.164783 142.192957 
" clip-path="url(#p12112fe094)" style="fill: none; stroke: #1f1f1f; stroke-width: 0.9; stroke-linecap: square"/>
   </g>
   <g id="line2d_5">
    <path d="M 122.317826 132.731217 
L 160.164783 132.731217 
" clip-path="url(#p12112fe094)" style="fill: none; stroke: #1f1f1f; stroke-width: 0.9; stroke-linecap: square"/>
   </g>
   <g id="line2d_6">
    <path d="M 122.317826 123.269478 
L 160.164783 123.269478 
" clip-path="url(#p12112fe094)" style="fill: none; stroke: #1f1f1f; stroke-width: 0.9; stroke-linecap: square"/>
   </g>
   <g id="text_1">
    <!-- x  [M, K] -->
    <g style="fill: #1f1f1f" transform="translate(28.431221 165.81182) scale(0.095 -0.095)">
     <defs>
      <path id="DejaVuSans-78" d="M 3513 3500 
L 2247 1797 
L 3578 0 
L 2900 0 
L 1881 1375 
L 863 0 
L 184 0 
L 1544 1831 
L 300 3500 
L 978 3500 
L 1906 2253 
L 2834 3500 
L 3513 3500 
z
" transform="scale(0.015625)"/>
      <path id="DejaVuSans-20" transform="scale(0.015625)"/>
      <path id="DejaVuSans-5b" d="M 550 4863 
L 1875 4863 
L 1875 4416 
L 1125 4416 
L 1125 -397 
L 1875 -397 
L 1875 -844 
L 550 -844 
L 550 4863 
z
" transform="scale(0.015625)"/>
      <path id="DejaVuSans-4d" d="M 628 4666 
L 1569 4666 
L 2759 1491 
L 3956 4666 
L 4897 4666 
L 4897 0 
L 4281 0 
L 4281 4097 
L 3078 897 
L 2444 897 
L 1241 4097 
L 1241 0 
L 628 0 
L 628 4666 
z
" transform="scale(0.015625)"/>
      <path id="DejaVuSans-2c" d="M 750 794 
L 1409 794 
L 1409 256 
L 897 -744 
L 494 -744 
L 750 256 
L 750 794 
z
" transform="scale(0.015625)"/>
      <path id="DejaVuSans-4b" d="M 628 4666 
L 1259 4666 
L 1259 2694 
L 3353 4666 
L 4166 4666 
L 1850 2491 
L 4331 0 
L 3500 0 
L 1259 2247 
L 1259 0 
L 628 0 
L 628 4666 
z
" transform="scale(0.015625)"/>
      <path id="DejaVuSans-5d" d="M 1947 4863 
L 1947 -844 
L 622 -844 
L 622 -397 
L 1369 -397 
L 1369 4416 
L 622 4416 
L 622 4863 
L 1947 4863 
z
" transform="scale(0.015625)"/>
     </defs>
     <use xlink:href="#DejaVuSans-78"/>
     <use xlink:href="#DejaVuSans-20" x="59.179688"/>
     <use xlink:href="#DejaVuSans-20" x="90.966797"/>
     <use xlink:href="#DejaVuSans-5b" x="122.753906"/>
     <use xlink:href="#DejaVuSans-4d" x="161.767578"/>
     <use xlink:href="#DejaVuSans-2c" x="248.046875"/>
     <use xlink:href="#DejaVuSans-20" x="279.833984"/>
     <use xlink:href="#DejaVuSans-4b" x="311.621094"/>
     <use xlink:href="#DejaVuSans-5d" x="377.197266"/>
    </g>
   </g>
   <g id="text_2">
    <!-- y  [K, N] -->
    <g style="fill: #1f1f1f" transform="translate(74.707726 165.81182) scale(0.095 -0.095)">
     <defs>
      <path id="DejaVuSans-79" d="M 2059 -325 
Q 1816 -950 1584 -1140 
Q 1353 -1331 966 -1331 
L 506 -1331 
L 506 -850 
L 844 -850 
Q 1081 -850 1212 -737 
Q 1344 -625 1503 -206 
L 1606 56 
L 191 3500 
L 800 3500 
L 1894 763 
L 2988 3500 
L 3597 3500 
L 2059 -325 
z
" transform="scale(0.015625)"/>
      <path id="DejaVuSans-4e" d="M 628 4666 
L 1478 4666 
L 3547 763 
L 3547 4666 
L 4159 4666 
L 4159 0 
L 3309 0 
L 1241 3903 
L 1241 0 
L 628 0 
L 628 4666 
z
" transform="scale(0.015625)"/>
     </defs>
     <use xlink:href="#DejaVuSans-79"/>
     <use xlink:href="#DejaVuSans-20" x="59.179688"/>
     <use xlink:href="#DejaVuSans-20" x="90.966797"/>
     <use xlink:href="#DejaVuSans-5b" x="122.753906"/>
     <use xlink:href="#DejaVuSans-4b" x="161.767578"/>
     <use xlink:href="#DejaVuSans-2c" x="227.34375"/>
     <use xlink:href="#DejaVuSans-20" x="259.130859"/>
     <use xlink:href="#DejaVuSans-4e" x="290.917969"/>
     <use xlink:href="#DejaVuSans-5d" x="365.722656"/>
    </g>
   </g>
   <g id="text_3">
    <!-- z  [M, N] -->
    <g style="fill: #1f1f1f" transform="translate(121.351422 165.81182) scale(0.095 -0.095)">
     <defs>
      <path id="DejaVuSans-7a" d="M 353 3500 
L 3084 3500 
L 3084 2975 
L 922 459 
L 3084 459 
L 3084 0 
L 275 0 
L 275 525 
L 2438 3041 
L 353 3041 
L 353 3500 
z
" transform="scale(0.015625)"/>
     </defs>
     <use xlink:href="#DejaVuSans-7a"/>
     <use xlink:href="#DejaVuSans-20" x="52.490234"/>
     <use xlink:href="#DejaVuSans-20" x="84.277344"/>
     <use xlink:href="#DejaVuSans-5b" x="116.064453"/>
     <use xlink:href="#DejaVuSans-4d" x="155.078125"/>
     <use xlink:href="#DejaVuSans-2c" x="241.357422"/>
     <use xlink:href="#DejaVuSans-20" x="273.144531"/>
     <use xlink:href="#DejaVuSans-4e" x="304.931641"/>
     <use xlink:href="#DejaVuSans-5d" x="379.736328"/>
    </g>
   </g>
   <g id="text_4">
    <!-- × -->
    <g transform="translate(60.371107 137.698092) scale(0.18 -0.18)">
     <defs>
      <path id="DejaVuSans-d7" d="M 4488 3438 
L 3059 2003 
L 4488 575 
L 4116 197 
L 2681 1631 
L 1247 197 
L 878 575 
L 2303 2003 
L 878 3438 
L 1247 3816 
L 2681 2381 
L 4116 3816 
L 4488 3438 
z
" transform="scale(0.015625)"/>
     </defs>
     <use xlink:href="#DejaVuSans-d7"/>
    </g>
   </g>
   <g id="text_5">
    <!-- = -->
    <g transform="translate(110.045238 137.698092) scale(0.18 -0.18)">
     <defs>
      <path id="DejaVuSans-3d" d="M 678 2906 
L 4684 2906 
L 4684 2381 
L 678 2381 
L 678 2906 
z
M 678 1631 
L 4684 1631 
L 4684 1100 
L 678 1100 
L 678 1631 
z
" transform="scale(0.015625)"/>
     </defs>
     <use xlink:href="#DejaVuSans-3d"/>
    </g>
   </g>
   <g id="text_6">
    <!-- M -->
    <g style="fill: #555555" transform="translate(21.280049 135.490592) scale(0.1 -0.1)">
     <use xlink:href="#DejaVuSans-4d"/>
    </g>
   </g>
   <g id="text_7">
    <!-- K -->
    <g style="fill: #555555" transform="translate(44.921963 106.051008) scale(0.1 -0.1)">
     <use xlink:href="#DejaVuSans-4b"/>
    </g>
   </g>
   <g id="text_8">
    <!-- N -->
    <g style="fill: #555555" transform="translate(90.191984 106.051008) scale(0.1 -0.1)">
     <use xlink:href="#DejaVuSans-4e"/>
    </g>
   </g>
   <g id="text_9">
    <!-- Option 1: tile x along M (4×) -->
    <g transform="translate(18.309115 79.422522) scale(0.095 -0.095)">
     <defs>
      <path id="DejaVuSans-4f" d="M 2522 4238 
Q 1834 4238 1429 3725 
Q 1025 3213 1025 2328 
Q 1025 1447 1429 934 
Q 1834 422 2522 422 
Q 3209 422 3611 934 
Q 4013 1447 4013 2328 
Q 4013 3213 3611 3725 
Q 3209 4238 2522 4238 
z
M 2522 4750 
Q 3503 4750 4090 4092 
Q 4678 3434 4678 2328 
Q 4678 1225 4090 567 
Q 3503 -91 2522 -91 
Q 1538 -91 948 565 
Q 359 1222 359 2328 
Q 359 3434 948 4092 
Q 1538 4750 2522 4750 
z
" transform="scale(0.015625)"/>
      <path id="DejaVuSans-70" d="M 1159 525 
L 1159 -1331 
L 581 -1331 
L 581 3500 
L 1159 3500 
L 1159 2969 
Q 1341 3281 1617 3432 
Q 1894 3584 2278 3584 
Q 2916 3584 3314 3078 
Q 3713 2572 3713 1747 
Q 3713 922 3314 415 
Q 2916 -91 2278 -91 
Q 1894 -91 1617 61 
Q 1341 213 1159 525 
z
M 3116 1747 
Q 3116 2381 2855 2742 
Q 2594 3103 2138 3103 
Q 1681 3103 1420 2742 
Q 1159 2381 1159 1747 
Q 1159 1113 1420 752 
Q 1681 391 2138 391 
Q 2594 391 2855 752 
Q 3116 1113 3116 1747 
z
" transform="scale(0.015625)"/>
      <path id="DejaVuSans-74" d="M 1172 4494 
L 1172 3500 
L 2356 3500 
L 2356 3053 
L 1172 3053 
L 1172 1153 
Q 1172 725 1289 603 
Q 1406 481 1766 481 
L 2356 481 
L 2356 0 
L 1766 0 
Q 1100 0 847 248 
Q 594 497 594 1153 
L 594 3053 
L 172 3053 
L 172 3500 
L 594 3500 
L 594 4494 
L 1172 4494 
z
" transform="scale(0.015625)"/>
      <path id="DejaVuSans-69" d="M 603 3500 
L 1178 3500 
L 1178 0 
L 603 0 
L 603 3500 
z
M 603 4863 
L 1178 4863 
L 1178 4134 
L 603 4134 
L 603 4863 
z
" transform="scale(0.015625)"/>
      <path id="DejaVuSans-6f" d="M 1959 3097 
Q 1497 3097 1228 2736 
Q 959 2375 959 1747 
Q 959 1119 1226 758 
Q 1494 397 1959 397 
Q 2419 397 2687 759 
Q 2956 1122 2956 1747 
Q 2956 2369 2687 2733 
Q 2419 3097 1959 3097 
z
M 1959 3584 
Q 2709 3584 3137 3096 
Q 3566 2609 3566 1747 
Q 3566 888 3137 398 
Q 2709 -91 1959 -91 
Q 1206 -91 779 398 
Q 353 888 353 1747 
Q 353 2609 779 3096 
Q 1206 3584 1959 3584 
z
" transform="scale(0.015625)"/>
      <path id="DejaVuSans-6e" d="M 3513 2113 
L 3513 0 
L 2938 0 
L 2938 2094 
Q 2938 2591 2744 2837 
Q 2550 3084 2163 3084 
Q 1697 3084 1428 2787 
Q 1159 2491 1159 1978 
L 1159 0 
L 581 0 
L 581 3500 
L 1159 3500 
L 1159 2956 
Q 1366 3272 1645 3428 
Q 1925 3584 2291 3584 
Q 2894 3584 3203 3211 
Q 3513 2838 3513 2113 
z
" transform="scale(0.015625)"/>
      <path id="DejaVuSans-31" d="M 794 531 
L 1825 531 
L 1825 4091 
L 703 3866 
L 703 4441 
L 1819 4666 
L 2450 4666 
L 2450 531 
L 3481 531 
L 3481 0 
L 794 0 
L 794 531 
z
" transform="scale(0.015625)"/>
      <path id="DejaVuSans-3a" d="M 750 794 
L 1409 794 
L 1409 0 
L 750 0 
L 750 794 
z
M 750 3309 
L 1409 3309 
L 1409 2516 
L 750 2516 
L 750 3309 
z
" transform="scale(0.015625)"/>
      <path id="DejaVuSans-6c" d="M 603 4863 
L 1178 4863 
L 1178 0 
L 603 0 
L 603 4863 
z
" transform="scale(0.015625)"/>
      <path id="DejaVuSans-65" d="M 3597 1894 
L 3597 1613 
L 953 1613 
Q 991 1019 1311 708 
Q 1631 397 2203 397 
Q 2534 397 2845 478 
Q 3156 559 3463 722 
L 3463 178 
Q 3153 47 2828 -22 
Q 2503 -91 2169 -91 
Q 1331 -91 842 396 
Q 353 884 353 1716 
Q 353 2575 817 3079 
Q 1281 3584 2069 3584 
Q 2775 3584 3186 3129 
Q 3597 2675 3597 1894 
z
M 3022 2063 
Q 3016 2534 2758 2815 
Q 2500 3097 2075 3097 
Q 1594 3097 1305 2825 
Q 1016 2553 972 2059 
L 3022 2063 
z
" transform="scale(0.015625)"/>
      <path id="DejaVuSans-61" d="M 2194 1759 
Q 1497 1759 1228 1600 
Q 959 1441 959 1056 
Q 959 750 1161 570 
Q 1363 391 1709 391 
Q 2188 391 2477 730 
Q 2766 1069 2766 1631 
L 2766 1759 
L 2194 1759 
z
M 3341 1997 
L 3341 0 
L 2766 0 
L 2766 531 
Q 2569 213 2275 61 
Q 1981 -91 1556 -91 
Q 1019 -91 701 211 
Q 384 513 384 1019 
Q 384 1609 779 1909 
Q 1175 2209 1959 2209 
L 2766 2209 
L 2766 2266 
Q 2766 2663 2505 2880 
Q 2244 3097 1772 3097 
Q 1472 3097 1187 3025 
Q 903 2953 641 2809 
L 641 3341 
Q 956 3463 1253 3523 
Q 1550 3584 1831 3584 
Q 2591 3584 2966 3190 
Q 3341 2797 3341 1997 
z
" transform="scale(0.015625)"/>
      <path id="DejaVuSans-67" d="M 2906 1791 
Q 2906 2416 2648 2759 
Q 2391 3103 1925 3103 
Q 1463 3103 1205 2759 
Q 947 2416 947 1791 
Q 947 1169 1205 825 
Q 1463 481 1925 481 
Q 2391 481 2648 825 
Q 2906 1169 2906 1791 
z
M 3481 434 
Q 3481 -459 3084 -895 
Q 2688 -1331 1869 -1331 
Q 1566 -1331 1297 -1286 
Q 1028 -1241 775 -1147 
L 775 -588 
Q 1028 -725 1275 -790 
Q 1522 -856 1778 -856 
Q 2344 -856 2625 -561 
Q 2906 -266 2906 331 
L 2906 616 
Q 2728 306 2450 153 
Q 2172 0 1784 0 
Q 1141 0 747 490 
Q 353 981 353 1791 
Q 353 2603 747 3093 
Q 1141 3584 1784 3584 
Q 2172 3584 2450 3431 
Q 2728 3278 2906 2969 
L 2906 3500 
L 3481 3500 
L 3481 434 
z
" transform="scale(0.015625)"/>
      <path id="DejaVuSans-28" d="M 1984 4856 
Q 1566 4138 1362 3434 
Q 1159 2731 1159 2009 
Q 1159 1288 1364 580 
Q 1569 -128 1984 -844 
L 1484 -844 
Q 1016 -109 783 600 
Q 550 1309 550 2009 
Q 550 2706 781 3412 
Q 1013 4119 1484 4856 
L 1984 4856 
z
" transform="scale(0.015625)"/>
      <path id="DejaVuSans-34" d="M 2419 4116 
L 825 1625 
L 2419 1625 
L 2419 4116 
z
M 2253 4666 
L 3047 4666 
L 3047 1625 
L 3713 1625 
L 3713 1100 
L 3047 1100 
L 3047 0 
L 2419 0 
L 2419 1100 
L 313 1100 
L 313 1709 
L 2253 4666 
z
" transform="scale(0.015625)"/>
      <path id="DejaVuSans-29" d="M 513 4856 
L 1013 4856 
Q 1481 4119 1714 3412 
Q 1947 2706 1947 2009 
Q 1947 1309 1714 600 
Q 1481 -109 1013 -844 
L 513 -844 
Q 928 -128 1133 580 
Q 1338 1288 1338 2009 
Q 1338 2731 1133 3434 
Q 928 4138 513 4856 
z
" transform="scale(0.015625)"/>
     </defs>
     <use xlink:href="#DejaVuSans-4f"/>
     <use xlink:href="#DejaVuSans-70" x="78.710938"/>
     <use xlink:href="#DejaVuSans-74" x="142.1875"/>
     <use xlink:href="#DejaVuSans-69" x="181.396484"/>
     <use xlink:href="#DejaVuSans-6f" x="209.179688"/>
     <use xlink:href="#DejaVuSans-6e" x="270.361328"/>
     <use xlink:href="#DejaVuSans-20" x="333.740234"/>
     <use xlink:href="#DejaVuSans-31" x="365.527344"/>
     <use xlink:href="#DejaVuSans-3a" x="429.150391"/>
     <use xlink:href="#DejaVuSans-20" x="462.841797"/>
     <use xlink:href="#DejaVuSans-74" x="494.628906"/>
     <use xlink:href="#DejaVuSans-69" x="533.837891"/>
     <use xlink:href="#DejaVuSans-6c" x="561.621094"/>
     <use xlink:href="#DejaVuSans-65" x="589.404297"/>
     <use xlink:href="#DejaVuSans-20" x="650.927734"/>
     <use xlink:href="#DejaVuSans-78" x="682.714844"/>
     <use xlink:href="#DejaVuSans-20" x="741.894531"/>
     <use xlink:href="#DejaVuSans-61" x="773.681641"/>
     <use xlink:href="#DejaVuSans-6c" x="834.960938"/>
     <use xlink:href="#DejaVuSans-6f" x="862.744141"/>
     <use xlink:href="#DejaVuSans-6e" x="923.925781"/>
     <use xlink:href="#DejaVuSans-67" x="987.304688"/>
     <use xlink:href="#DejaVuSans-20" x="1050.78125"/>
     <use xlink:href="#DejaVuSans-4d" x="1082.568359"/>
     <use xlink:href="#DejaVuSans-20" x="1168.847656"/>
     <use xlink:href="#DejaVuSans-28" x="1200.634766"/>
     <use xlink:href="#DejaVuSans-34" x="1239.648438"/>
     <use xlink:href="#DejaVuSans-d7" x="1303.271484"/>
     <use xlink:href="#DejaVuSans-29" x="1387.060547"/>
    </g>
   </g>
  </g>
  <g id="axes_2">
   <g id="patch_5">
    <path d="M 224.82 151.654696 
L 250.051304 151.654696 
L 250.051304 113.807739 
L 224.82 113.807739 
z
" clip-path="url(#pd688ba8f07)" style="fill: #4c78a8; opacity: 0.25; stroke: #1f1f1f; stroke-width: 1.4; stroke-linejoin: miter"/>
   </g>
   <g id="patch_6">
    <path d="M 264.243913 151.654696 
L 302.09087 151.654696 
L 302.09087 113.807739 
L 264.243913 113.807739 
z
" clip-path="url(#pd688ba8f07)" style="fill: #f58518; opacity: 0.25; stroke: #1f1f1f; stroke-width: 1.4; stroke-linejoin: miter"/>
   </g>
   <g id="patch_7">
    <path d="M 311.552609 151.654696 
L 349.399565 151.654696 
L 349.399565 113.807739 
L 311.552609 113.807739 
z
" clip-path="url(#pd688ba8f07)" style="fill: #54a24b; opacity: 0.25; stroke: #1f1f1f; stroke-width: 1.4; stroke-linejoin: miter"/>
   </g>
   <g id="line2d_7">
    <path d="M 273.705652 151.654696 
L 273.705652 113.807739 
" clip-path="url(#pd688ba8f07)" style="fill: none; stroke: #1f1f1f; stroke-width: 0.9; stroke-linecap: square"/>
   </g>
   <g id="line2d_8">
    <path d="M 283.167391 151.654696 
L 283.167391 113.807739 
" clip-path="url(#pd688ba8f07)" style="fill: none; stroke: #1f1f1f; stroke-width: 0.9; stroke-linecap: square"/>
   </g>
   <g id="line2d_9">
    <path d="M 292.62913 151.654696 
L 292.62913 113.807739 
" clip-path="url(#pd688ba8f07)" style="fill: none; stroke: #1f1f1f; stroke-width: 0.9; stroke-linecap: square"/>
   </g>
   <g id="line2d_10">
    <path d="M 321.014348 151.654696 
L 321.014348 113.807739 
" clip-path="url(#pd688ba8f07)" style="fill: none; stroke: #1f1f1f; stroke-width: 0.9; stroke-linecap: square"/>
   </g>
   <g id="line2d_11">
    <path d="M 330.476087 151.654696 
L 330.476087 113.807739 
" clip-path="url(#pd688ba8f07)" style="fill: none; stroke: #1f1f1f; stroke-width: 0.9; stroke-linecap: square"/>
   </g>
   <g id="line2d_12">
    <path d="M 339.937826 151.654696 
L 339.937826 113.807739 
" clip-path="url(#pd688ba8f07)" style="fill: none; stroke: #1f1f1f; stroke-width: 0.9; stroke-linecap: square"/>
   </g>
   <g id="text_10">
    <!-- x  [M, K] -->
    <g style="fill: #1f1f1f" transform="translate(217.666004 165.81182) scale(0.095 -0.095)">
     <use xlink:href="#DejaVuSans-78"/>
     <use xlink:href="#DejaVuSans-20" x="59.179688"/>
     <use xlink:href="#DejaVuSans-20" x="90.966797"/>
     <use xlink:href="#DejaVuSans-5b" x="122.753906"/>
     <use xlink:href="#DejaVuSans-4d" x="161.767578"/>
     <use xlink:href="#DejaVuSans-2c" x="248.046875"/>
     <use xlink:href="#DejaVuSans-20" x="279.833984"/>
     <use xlink:href="#DejaVuSans-4b" x="311.621094"/>
     <use xlink:href="#DejaVuSans-5d" x="377.197266"/>
    </g>
   </g>
   <g id="text_11">
    <!-- y  [K, N] -->
    <g style="fill: #1f1f1f" transform="translate(263.942508 165.81182) scale(0.095 -0.095)">
     <use xlink:href="#DejaVuSans-79"/>
     <use xlink:href="#DejaVuSans-20" x="59.179688"/>
     <use xlink:href="#DejaVuSans-20" x="90.966797"/>
     <use xlink:href="#DejaVuSans-5b" x="122.753906"/>
     <use xlink:href="#DejaVuSans-4b" x="161.767578"/>
     <use xlink:href="#DejaVuSans-2c" x="227.34375"/>
     <use xlink:href="#DejaVuSans-20" x="259.130859"/>
     <use xlink:href="#DejaVuSans-4e" x="290.917969"/>
     <use xlink:href="#DejaVuSans-5d" x="365.722656"/>
    </g>
   </g>
   <g id="text_12">
    <!-- z  [M, N] -->
    <g style="fill: #1f1f1f" transform="translate(310.586204 165.81182) scale(0.095 -0.095)">
     <use xlink:href="#DejaVuSans-7a"/>
     <use xlink:href="#DejaVuSans-20" x="52.490234"/>
     <use xlink:href="#DejaVuSans-20" x="84.277344"/>
     <use xlink:href="#DejaVuSans-5b" x="116.064453"/>
     <use xlink:href="#DejaVuSans-4d" x="155.078125"/>
     <use xlink:href="#DejaVuSans-2c" x="241.357422"/>
     <use xlink:href="#DejaVuSans-20" x="273.144531"/>
     <use xlink:href="#DejaVuSans-4e" x="304.931641"/>
     <use xlink:href="#DejaVuSans-5d" x="379.736328"/>
    </g>
   </g>
   <g id="text_13">
    <!-- × -->
    <g transform="translate(249.60589 137.698092) scale(0.18 -0.18)">
     <use xlink:href="#DejaVuSans-d7"/>
    </g>
   </g>
   <g id="text_14">
    <!-- = -->
    <g transform="translate(299.28002 137.698092) scale(0.18 -0.18)">
     <use xlink:href="#DejaVuSans-3d"/>
    </g>
   </g>
   <g id="text_15">
    <!-- M -->
    <g style="fill: #555555" transform="translate(210.514832 135.490592) scale(0.1 -0.1)">
     <use xlink:href="#DejaVuSans-4d"/>
    </g>
   </g>
   <g id="text_16">
    <!-- K -->
    <g style="fill: #555555" transform="translate(234.156746 106.051008) scale(0.1 -0.1)">
     <use xlink:href="#DejaVuSans-4b"/>
    </g>
   </g>
   <g id="text_17">
    <!-- N -->
    <g style="fill: #555555" transform="translate(279.426766 106.051008) scale(0.1 -0.1)">
     <use xlink:href="#DejaVuSans-4e"/>
    </g>
   </g>
   <g id="text_18">
    <!-- Option 2: tile y along N (4×) -->
    <g transform="translate(208.088663 79.422522) scale(0.095 -0.095)">
     <defs>
      <path id="DejaVuSans-32" d="M 1228 531 
L 3431 531 
L 3431 0 
L 469 0 
L 469 531 
Q 828 903 1448 1529 
Q 2069 2156 2228 2338 
Q 2531 2678 2651 2914 
Q 2772 3150 2772 3378 
Q 2772 3750 2511 3984 
Q 2250 4219 1831 4219 
Q 1534 4219 1204 4116 
Q 875 4013 500 3803 
L 500 4441 
Q 881 4594 1212 4672 
Q 1544 4750 1819 4750 
Q 2544 4750 2975 4387 
Q 3406 4025 3406 3419 
Q 3406 3131 3298 2873 
Q 3191 2616 2906 2266 
Q 2828 2175 2409 1742 
Q 1991 1309 1228 531 
z
" transform="scale(0.015625)"/>
     </defs>
     <use xlink:href="#DejaVuSans-4f"/>
     <use xlink:href="#DejaVuSans-70" x="78.710938"/>
     <use xlink:href="#DejaVuSans-74" x="142.1875"/>
     <use xlink:href="#DejaVuSans-69" x="181.396484"/>
     <use xlink:href="#DejaVuSans-6f" x="209.179688"/>
     <use xlink:href="#DejaVuSans-6e" x="270.361328"/>
     <use xlink:href="#DejaVuSans-20" x="333.740234"/>
     <use xlink:href="#DejaVuSans-32" x="365.527344"/>
     <use xlink:href="#DejaVuSans-3a" x="429.150391"/>
     <use xlink:href="#DejaVuSans-20" x="462.841797"/>
     <use xlink:href="#DejaVuSans-74" x="494.628906"/>
     <use xlink:href="#DejaVuSans-69" x="533.837891"/>
     <use xlink:href="#DejaVuSans-6c" x="561.621094"/>
     <use xlink:href="#DejaVuSans-65" x="589.404297"/>
     <use xlink:href="#DejaVuSans-20" x="650.927734"/>
     <use xlink:href="#DejaVuSans-79" x="682.714844"/>
     <use xlink:href="#DejaVuSans-20" x="741.894531"/>
     <use xlink:href="#DejaVuSans-61" x="773.681641"/>
     <use xlink:href="#DejaVuSans-6c" x="834.960938"/>
     <use xlink:href="#DejaVuSans-6f" x="862.744141"/>
     <use xlink:href="#DejaVuSans-6e" x="923.925781"/>
     <use xlink:href="#DejaVuSans-67" x="987.304688"/>
     <use xlink:href="#DejaVuSans-20" x="1050.78125"/>
     <use xlink:href="#DejaVuSans-4e" x="1082.568359"/>
     <use xlink:href="#DejaVuSans-20" x="1157.373047"/>
     <use xlink:href="#DejaVuSans-28" x="1189.160156"/>
     <use xlink:href="#DejaVuSans-34" x="1228.173828"/>
     <use xlink:href="#DejaVuSans-d7" x="1291.796875"/>
     <use xlink:href="#DejaVuSans-29" x="1375.585938"/>
    </g>
   </g>
  </g>
  <g id="axes_3">
   <g id="patch_8">
    <path d="M 414.054783 151.654696 
L 439.286087 151.654696 
L 439.286087 113.807739 
L 414.054783 113.807739 
z
" clip-path="url(#p28dfd29480)" style="fill: #4c78a8; opacity: 0.25; stroke: #1f1f1f; stroke-width: 1.4; stroke-linejoin: miter"/>
   </g>
   <g id="patch_9">
    <path d="M 453.478696 151.654696 
L 491.325652 151.654696 
L 491.325652 113.807739 
L 453.478696 113.807739 
z
" clip-path="url(#p28dfd29480)" style="fill: #f58518; opacity: 0.25; stroke: #1f1f1f; stroke-width: 1.4; stroke-linejoin: miter"/>
   </g>
   <g id="patch_10">
    <path d="M 500.787391 151.654696 
L 538.634348 151.654696 
L 538.634348 113.807739 
L 500.787391 113.807739 
z
" clip-path="url(#p28dfd29480)" style="fill: #54a24b; opacity: 0.25; stroke: #1f1f1f; stroke-width: 1.4; stroke-linejoin: miter"/>
   </g>
   <g id="line2d_13">
    <path d="M 414.054783 142.192957 
L 439.286087 142.192957 
" clip-path="url(#p28dfd29480)" style="fill: none; stroke: #1f1f1f; stroke-width: 0.9; stroke-linecap: square"/>
   </g>
   <g id="line2d_14">
    <path d="M 414.054783 132.731217 
L 439.286087 132.731217 
" clip-path="url(#p28dfd29480)" style="fill: none; stroke: #1f1f1f; stroke-width: 0.9; stroke-linecap: square"/>
   </g>
   <g id="line2d_15">
    <path d="M 414.054783 123.269478 
L 439.286087 123.269478 
" clip-path="url(#p28dfd29480)" style="fill: none; stroke: #1f1f1f; stroke-width: 0.9; stroke-linecap: square"/>
   </g>
   <g id="line2d_16">
    <path d="M 462.940435 151.654696 
L 462.940435 113.807739 
" clip-path="url(#p28dfd29480)" style="fill: none; stroke: #1f1f1f; stroke-width: 0.9; stroke-linecap: square"/>
   </g>
   <g id="line2d_17">
    <path d="M 472.402174 151.654696 
L 472.402174 113.807739 
" clip-path="url(#p28dfd29480)" style="fill: none; stroke: #1f1f1f; stroke-width: 0.9; stroke-linecap: square"/>
   </g>
   <g id="line2d_18">
    <path d="M 481.863913 151.654696 
L 481.863913 113.807739 
" clip-path="url(#p28dfd29480)" style="fill: none; stroke: #1f1f1f; stroke-width: 0.9; stroke-linecap: square"/>
   </g>
   <g id="line2d_19">
    <path d="M 500.787391 142.192957 
L 538.634348 142.192957 
" clip-path="url(#p28dfd29480)" style="fill: none; stroke: #1f1f1f; stroke-width: 0.9; stroke-linecap: square"/>
   </g>
   <g id="line2d_20">
    <path d="M 500.787391 132.731217 
L 538.634348 132.731217 
" clip-path="url(#p28dfd29480)" style="fill: none; stroke: #1f1f1f; stroke-width: 0.9; stroke-linecap: square"/>
   </g>
   <g id="line2d_21">
    <path d="M 500.787391 123.269478 
L 538.634348 123.269478 
" clip-path="url(#p28dfd29480)" style="fill: none; stroke: #1f1f1f; stroke-width: 0.9; stroke-linecap: square"/>
   </g>
   <g id="line2d_22">
    <path d="M 510.24913 151.654696 
L 510.24913 113.807739 
" clip-path="url(#p28dfd29480)" style="fill: none; stroke: #1f1f1f; stroke-width: 0.9; stroke-linecap: square"/>
   </g>
   <g id="line2d_23">
    <path d="M 519.71087 151.654696 
L 519.71087 113.807739 
" clip-path="url(#p28dfd29480)" style="fill: none; stroke: #1f1f1f; stroke-width: 0.9; stroke-linecap: square"/>
   </g>
   <g id="line2d_24">
    <path d="M 529.172609 151.654696 
L 529.172609 113.807739 
" clip-path="url(#p28dfd29480)" style="fill: none; stroke: #1f1f1f; stroke-width: 0.9; stroke-linecap: square"/>
   </g>
   <g id="text_19">
    <!-- x  [M, K] -->
    <g style="fill: #1f1f1f" transform="translate(406.900786 165.81182) scale(0.095 -0.095)">
     <use xlink:href="#DejaVuSans-78"/>
     <use xlink:href="#DejaVuSans-20" x="59.179688"/>
     <use xlink:href="#DejaVuSans-20" x="90.966797"/>
     <use xlink:href="#DejaVuSans-5b" x="122.753906"/>
     <use xlink:href="#DejaVuSans-4d" x="161.767578"/>
     <use xlink:href="#DejaVuSans-2c" x="248.046875"/>
     <use xlink:href="#DejaVuSans-20" x="279.833984"/>
     <use xlink:href="#DejaVuSans-4b" x="311.621094"/>
     <use xlink:href="#DejaVuSans-5d" x="377.197266"/>
    </g>
   </g>
   <g id="text_20">
    <!-- y  [K, N] -->
    <g style="fill: #1f1f1f" transform="translate(453.177291 165.81182) scale(0.095 -0.095)">
     <use xlink:href="#DejaVuSans-79"/>
     <use xlink:href="#DejaVuSans-20" x="59.179688"/>
     <use xlink:href="#DejaVuSans-20" x="90.966797"/>
     <use xlink:href="#DejaVuSans-5b" x="122.753906"/>
     <use xlink:href="#DejaVuSans-4b" x="161.767578"/>
     <use xlink:href="#DejaVuSans-2c" x="227.34375"/>
     <use xlink:href="#DejaVuSans-20" x="259.130859"/>
     <use xlink:href="#DejaVuSans-4e" x="290.917969"/>
     <use xlink:href="#DejaVuSans-5d" x="365.722656"/>
    </g>
   </g>
   <g id="text_21">
    <!-- z  [M, N] -->
    <g style="fill: #1f1f1f" transform="translate(499.820987 165.81182) scale(0.095 -0.095)">
     <use xlink:href="#DejaVuSans-7a"/>
     <use xlink:href="#DejaVuSans-20" x="52.490234"/>
     <use xlink:href="#DejaVuSans-20" x="84.277344"/>
     <use xlink:href="#DejaVuSans-5b" x="116.064453"/>
     <use xlink:href="#DejaVuSans-4d" x="155.078125"/>
     <use xlink:href="#DejaVuSans-2c" x="241.357422"/>
     <use xlink:href="#DejaVuSans-20" x="273.144531"/>
     <use xlink:href="#DejaVuSans-4e" x="304.931641"/>
     <use xlink:href="#DejaVuSans-5d" x="379.736328"/>
    </g>
   </g>
   <g id="text_22">
    <!-- × -->
    <g transform="translate(438.840673 137.698092) scale(0.18 -0.18)">
     <use xlink:href="#DejaVuSans-d7"/>
    </g>
   </g>
   <g id="text_23">
    <!-- = -->
    <g transform="translate(488.514803 137.698092) scale(0.18 -0.18)">
     <use xlink:href="#DejaVuSans-3d"/>
    </g>
   </g>
   <g id="text_24">
    <!-- M -->
    <g style="fill: #555555" transform="translate(399.749614 135.490592) scale(0.1 -0.1)">
     <use xlink:href="#DejaVuSans-4d"/>
    </g>
   </g>
   <g id="text_25">
    <!-- K -->
    <g style="fill: #555555" transform="translate(423.391529 106.051008) scale(0.1 -0.1)">
     <use xlink:href="#DejaVuSans-4b"/>
    </g>
   </g>
   <g id="text_26">
    <!-- N -->
    <g style="fill: #555555" transform="translate(468.661549 106.051008) scale(0.1 -0.1)">
     <use xlink:href="#DejaVuSans-4e"/>
    </g>
   </g>
   <g id="text_27">
    <!-- Option 3: tile both M and N (16×) -->
    <g transform="translate(384.936337 79.422522) scale(0.095 -0.095)">
     <defs>
      <path id="DejaVuSans-33" d="M 2597 2516 
Q 3050 2419 3304 2112 
Q 3559 1806 3559 1356 
Q 3559 666 3084 287 
Q 2609 -91 1734 -91 
Q 1441 -91 1130 -33 
Q 819 25 488 141 
L 488 750 
Q 750 597 1062 519 
Q 1375 441 1716 441 
Q 2309 441 2620 675 
Q 2931 909 2931 1356 
Q 2931 1769 2642 2001 
Q 2353 2234 1838 2234 
L 1294 2234 
L 1294 2753 
L 1863 2753 
Q 2328 2753 2575 2939 
Q 2822 3125 2822 3475 
Q 2822 3834 2567 4026 
Q 2313 4219 1838 4219 
Q 1578 4219 1281 4162 
Q 984 4106 628 3988 
L 628 4550 
Q 988 4650 1302 4700 
Q 1616 4750 1894 4750 
Q 2613 4750 3031 4423 
Q 3450 4097 3450 3541 
Q 3450 3153 3228 2886 
Q 3006 2619 2597 2516 
z
" transform="scale(0.015625)"/>
      <path id="DejaVuSans-62" d="M 3116 1747 
Q 3116 2381 2855 2742 
Q 2594 3103 2138 3103 
Q 1681 3103 1420 2742 
Q 1159 2381 1159 1747 
Q 1159 1113 1420 752 
Q 1681 391 2138 391 
Q 2594 391 2855 752 
Q 3116 1113 3116 1747 
z
M 1159 2969 
Q 1341 3281 1617 3432 
Q 1894 3584 2278 3584 
Q 2916 3584 3314 3078 
Q 3713 2572 3713 1747 
Q 3713 922 3314 415 
Q 2916 -91 2278 -91 
Q 1894 -91 1617 61 
Q 1341 213 1159 525 
L 1159 0 
L 581 0 
L 581 4863 
L 1159 4863 
L 1159 2969 
z
" transform="scale(0.015625)"/>
      <path id="DejaVuSans-68" d="M 3513 2113 
L 3513 0 
L 2938 0 
L 2938 2094 
Q 2938 2591 2744 2837 
Q 2550 3084 2163 3084 
Q 1697 3084 1428 2787 
Q 1159 2491 1159 1978 
L 1159 0 
L 581 0 
L 581 4863 
L 1159 4863 
L 1159 2956 
Q 1366 3272 1645 3428 
Q 1925 3584 2291 3584 
Q 2894 3584 3203 3211 
Q 3513 2838 3513 2113 
z
" transform="scale(0.015625)"/>
      <path id="DejaVuSans-64" d="M 2906 2969 
L 2906 4863 
L 3481 4863 
L 3481 0 
L 2906 0 
L 2906 525 
Q 2725 213 2448 61 
Q 2172 -91 1784 -91 
Q 1150 -91 751 415 
Q 353 922 353 1747 
Q 353 2572 751 3078 
Q 1150 3584 1784 3584 
Q 2172 3584 2448 3432 
Q 2725 3281 2906 2969 
z
M 947 1747 
Q 947 1113 1208 752 
Q 1469 391 1925 391 
Q 2381 391 2643 752 
Q 2906 1113 2906 1747 
Q 2906 2381 2643 2742 
Q 2381 3103 1925 3103 
Q 1469 3103 1208 2742 
Q 947 2381 947 1747 
z
" transform="scale(0.015625)"/>
      <path id="DejaVuSans-36" d="M 2113 2584 
Q 1688 2584 1439 2293 
Q 1191 2003 1191 1497 
Q 1191 994 1439 701 
Q 1688 409 2113 409 
Q 2538 409 2786 701 
Q 3034 994 3034 1497 
Q 3034 2003 2786 2293 
Q 2538 2584 2113 2584 
z
M 3366 4563 
L 3366 3988 
Q 3128 4100 2886 4159 
Q 2644 4219 2406 4219 
Q 1781 4219 1451 3797 
Q 1122 3375 1075 2522 
Q 1259 2794 1537 2939 
Q 1816 3084 2150 3084 
Q 2853 3084 3261 2657 
Q 3669 2231 3669 1497 
Q 3669 778 3244 343 
Q 2819 -91 2113 -91 
Q 1303 -91 875 529 
Q 447 1150 447 2328 
Q 447 3434 972 4092 
Q 1497 4750 2381 4750 
Q 2619 4750 2861 4703 
Q 3103 4656 3366 4563 
z
" transform="scale(0.015625)"/>
     </defs>
     <use xlink:href="#DejaVuSans-4f"/>
     <use xlink:href="#DejaVuSans-70" x="78.710938"/>
     <use xlink:href="#DejaVuSans-74" x="142.1875"/>
     <use xlink:href="#DejaVuSans-69" x="181.396484"/>
     <use xlink:href="#DejaVuSans-6f" x="209.179688"/>
     <use xlink:href="#DejaVuSans-6e" x="270.361328"/>
     <use xlink:href="#DejaVuSans-20" x="333.740234"/>
     <use xlink:href="#DejaVuSans-33" x="365.527344"/>
     <use xlink:href="#DejaVuSans-3a" x="429.150391"/>
     <use xlink:href="#DejaVuSans-20" x="462.841797"/>
     <use xlink:href="#DejaVuSans-74" x="494.628906"/>
     <use xlink:href="#DejaVuSans-69" x="533.837891"/>
     <use xlink:href="#DejaVuSans-6c" x="561.621094"/>
     <use xlink:href="#DejaVuSans-65" x="589.404297"/>
     <use xlink:href="#DejaVuSans-20" x="650.927734"/>
     <use xlink:href="#DejaVuSans-62" x="682.714844"/>
     <use xlink:href="#DejaVuSans-6f" x="746.191406"/>
     <use xlink:href="#DejaVuSans-74" x="807.373047"/>
     <use xlink:href="#DejaVuSans-68" x="846.582031"/>
     <use xlink:href="#DejaVuSans-20" x="909.960938"/>
     <use xlink:href="#DejaVuSans-4d" x="941.748047"/>
     <use xlink:href="#DejaVuSans-20" x="1028.027344"/>
     <use xlink:href="#DejaVuSans-61" x="1059.814453"/>
     <use xlink:href="#DejaVuSans-6e" x="1121.09375"/>
     <use xlink:href="#DejaVuSans-64" x="1184.472656"/>
     <use xlink:href="#DejaVuSans-20" x="1247.949219"/>
     <use xlink:href="#DejaVuSans-4e" x="1279.736328"/>
     <use xlink:href="#DejaVuSans-20" x="1354.541016"/>
     <use xlink:href="#DejaVuSans-28" x="1386.328125"/>
     <use xlink:href="#DejaVuSans-31" x="1425.341797"/>
     <use xlink:href="#DejaVuSans-36" x="1488.964844"/>
     <use xlink:href="#DejaVuSans-d7" x="1552.587891"/>
     <use xlink:href="#DejaVuSans-29" x="1636.376953"/>
    </g>
   </g>
  </g>
  <g id="axes_4">
   <g id="patch_11">
    <path d="M 603.289565 151.654696 
L 628.52087 151.654696 
L 628.52087 113.807739 
L 603.289565 113.807739 
z
" clip-path="url(#p1a651f5372)" style="fill: #4c78a8; opacity: 0.25; stroke: #1f1f1f; stroke-width: 1.4; stroke-linejoin: miter"/>
   </g>
   <g id="patch_12">
    <path d="M 642.713478 151.654696 
L 680.560435 151.654696 
L 680.560435 113.807739 
L 642.713478 113.807739 
z
" clip-path="url(#p1a651f5372)" style="fill: #f58518; opacity: 0.25; stroke: #1f1f1f; stroke-width: 1.4; stroke-linejoin: miter"/>
   </g>
   <g id="patch_13">
    <path d="M 690.022174 151.654696 
L 727.86913 151.654696 
L 727.86913 113.807739 
L 690.022174 113.807739 
z
" clip-path="url(#p1a651f5372)" style="fill: #54a24b; opacity: 0.25; stroke: #1f1f1f; stroke-width: 1.4; stroke-linejoin: miter"/>
   </g>
   <g id="line2d_25">
    <path d="M 609.597391 151.654696 
L 609.597391 113.807739 
" clip-path="url(#p1a651f5372)" style="fill: none; stroke: #1f1f1f; stroke-width: 0.9; stroke-linecap: square"/>
   </g>
   <g id="line2d_26">
    <path d="M 615.905217 151.654696 
L 615.905217 113.807739 
" clip-path="url(#p1a651f5372)" style="fill: none; stroke: #1f1f1f; stroke-width: 0.9; stroke-linecap: square"/>
   </g>
   <g id="line2d_27">
    <path d="M 622.213043 151.654696 
L 622.213043 113.807739 
" clip-path="url(#p1a651f5372)" style="fill: none; stroke: #1f1f1f; stroke-width: 0.9; stroke-linecap: square"/>
   </g>
   <g id="line2d_28">
    <path d="M 642.713478 142.192957 
L 680.560435 142.192957 
" clip-path="url(#p1a651f5372)" style="fill: none; stroke: #1f1f1f; stroke-width: 0.9; stroke-linecap: square"/>
   </g>
   <g id="line2d_29">
    <path d="M 642.713478 132.731217 
L 680.560435 132.731217 
" clip-path="url(#p1a651f5372)" style="fill: none; stroke: #1f1f1f; stroke-width: 0.9; stroke-linecap: square"/>
   </g>
   <g id="line2d_30">
    <path d="M 642.713478 123.269478 
L 680.560435 123.269478 
" clip-path="url(#p1a651f5372)" style="fill: none; stroke: #1f1f1f; stroke-width: 0.9; stroke-linecap: square"/>
   </g>
   <g id="text_28">
    <!-- x  [M, K] -->
    <g style="fill: #1f1f1f" transform="translate(596.135569 165.81182) scale(0.095 -0.095)">
     <use xlink:href="#DejaVuSans-78"/>
     <use xlink:href="#DejaVuSans-20" x="59.179688"/>
     <use xlink:href="#DejaVuSans-20" x="90.966797"/>
     <use xlink:href="#DejaVuSans-5b" x="122.753906"/>
     <use xlink:href="#DejaVuSans-4d" x="161.767578"/>
     <use xlink:href="#DejaVuSans-2c" x="248.046875"/>
     <use xlink:href="#DejaVuSans-20" x="279.833984"/>
     <use xlink:href="#DejaVuSans-4b" x="311.621094"/>
     <use xlink:href="#DejaVuSans-5d" x="377.197266"/>
    </g>
   </g>
   <g id="text_29">
    <!-- y  [K, N] -->
    <g style="fill: #1f1f1f" transform="translate(642.412074 165.81182) scale(0.095 -0.095)">
     <use xlink:href="#DejaVuSans-79"/>
     <use xlink:href="#DejaVuSans-20" x="59.179688"/>
     <use xlink:href="#DejaVuSans-20" x="90.966797"/>
     <use xlink:href="#DejaVuSans-5b" x="122.753906"/>
     <use xlink:href="#DejaVuSans-4b" x="161.767578"/>
     <use xlink:href="#DejaVuSans-2c" x="227.34375"/>
     <use xlink:href="#DejaVuSans-20" x="259.130859"/>
     <use xlink:href="#DejaVuSans-4e" x="290.917969"/>
     <use xlink:href="#DejaVuSans-5d" x="365.722656"/>
    </g>
   </g>
   <g id="text_30">
    <!-- z  [M, N] -->
    <g style="fill: #1f1f1f" transform="translate(689.055769 165.81182) scale(0.095 -0.095)">
     <use xlink:href="#DejaVuSans-7a"/>
     <use xlink:href="#DejaVuSans-20" x="52.490234"/>
     <use xlink:href="#DejaVuSans-20" x="84.277344"/>
     <use xlink:href="#DejaVuSans-5b" x="116.064453"/>
     <use xlink:href="#DejaVuSans-4d" x="155.078125"/>
     <use xlink:href="#DejaVuSans-2c" x="241.357422"/>
     <use xlink:href="#DejaVuSans-20" x="273.144531"/>
     <use xlink:href="#DejaVuSans-4e" x="304.931641"/>
     <use xlink:href="#DejaVuSans-5d" x="379.736328"/>
    </g>
   </g>
   <g id="text_31">
    <!-- × -->
    <g transform="translate(628.075455 137.698092) scale(0.18 -0.18)">
     <use xlink:href="#DejaVuSans-d7"/>
    </g>
   </g>
   <g id="text_32">
    <!-- = -->
    <g transform="translate(677.749586 137.698092) scale(0.18 -0.18)">
     <use xlink:href="#DejaVuSans-3d"/>
    </g>
   </g>
   <g id="text_33">
    <!-- M -->
    <g style="fill: #555555" transform="translate(588.984397 135.490592) scale(0.1 -0.1)">
     <use xlink:href="#DejaVuSans-4d"/>
    </g>
   </g>
   <g id="text_34">
    <!-- K -->
    <g style="fill: #555555" transform="translate(612.626311 106.051008) scale(0.1 -0.1)">
     <use xlink:href="#DejaVuSans-4b"/>
    </g>
   </g>
   <g id="text_35">
    <!-- N -->
    <g style="fill: #555555" transform="translate(657.896332 106.051008) scale(0.1 -0.1)">
     <use xlink:href="#DejaVuSans-4e"/>
    </g>
   </g>
   <g id="text_36">
    <!-- Option 4: tile reduction K (4×, +acc) -->
    <g transform="translate(566.842018 79.422522) scale(0.095 -0.095)">
     <defs>
      <path id="DejaVuSans-72" d="M 2631 2963 
Q 2534 3019 2420 3045 
Q 2306 3072 2169 3072 
Q 1681 3072 1420 2755 
Q 1159 2438 1159 1844 
L 1159 0 
L 581 0 
L 581 3500 
L 1159 3500 
L 1159 2956 
Q 1341 3275 1631 3429 
Q 1922 3584 2338 3584 
Q 2397 3584 2469 3576 
Q 2541 3569 2628 3553 
L 2631 2963 
z
" transform="scale(0.015625)"/>
      <path id="DejaVuSans-75" d="M 544 1381 
L 544 3500 
L 1119 3500 
L 1119 1403 
Q 1119 906 1312 657 
Q 1506 409 1894 409 
Q 2359 409 2629 706 
Q 2900 1003 2900 1516 
L 2900 3500 
L 3475 3500 
L 3475 0 
L 2900 0 
L 2900 538 
Q 2691 219 2414 64 
Q 2138 -91 1772 -91 
Q 1169 -91 856 284 
Q 544 659 544 1381 
z
M 1991 3584 
L 1991 3584 
z
" transform="scale(0.015625)"/>
      <path id="DejaVuSans-63" d="M 3122 3366 
L 3122 2828 
Q 2878 2963 2633 3030 
Q 2388 3097 2138 3097 
Q 1578 3097 1268 2742 
Q 959 2388 959 1747 
Q 959 1106 1268 751 
Q 1578 397 2138 397 
Q 2388 397 2633 464 
Q 2878 531 3122 666 
L 3122 134 
Q 2881 22 2623 -34 
Q 2366 -91 2075 -91 
Q 1284 -91 818 406 
Q 353 903 353 1747 
Q 353 2603 823 3093 
Q 1294 3584 2113 3584 
Q 2378 3584 2631 3529 
Q 2884 3475 3122 3366 
z
" transform="scale(0.015625)"/>
      <path id="DejaVuSans-2b" d="M 2944 4013 
L 2944 2272 
L 4684 2272 
L 4684 1741 
L 2944 1741 
L 2944 0 
L 2419 0 
L 2419 1741 
L 678 1741 
L 678 2272 
L 2419 2272 
L 2419 4013 
L 2944 4013 
z
" transform="scale(0.015625)"/>
     </defs>
     <use xlink:href="#DejaVuSans-4f"/>
     <use xlink:href="#DejaVuSans-70" x="78.710938"/>
     <use xlink:href="#DejaVuSans-74" x="142.1875"/>
     <use xlink:href="#DejaVuSans-69" x="181.396484"/>
     <use xlink:href="#DejaVuSans-6f" x="209.179688"/>
     <use xlink:href="#DejaVuSans-6e" x="270.361328"/>
     <use xlink:href="#DejaVuSans-20" x="333.740234"/>
     <use xlink:href="#DejaVuSans-34" x="365.527344"/>
     <use xlink:href="#DejaVuSans-3a" x="429.150391"/>
     <use xlink:href="#DejaVuSans-20" x="462.841797"/>
     <use xlink:href="#DejaVuSans-74" x="494.628906"/>
     <use xlink:href="#DejaVuSans-69" x="533.837891"/>
     <use xlink:href="#DejaVuSans-6c" x="561.621094"/>
     <use xlink:href="#DejaVuSans-65" x="589.404297"/>
     <use xlink:href="#DejaVuSans-20" x="650.927734"/>
     <use xlink:href="#DejaVuSans-72" x="682.714844"/>
     <use xlink:href="#DejaVuSans-65" x="721.578125"/>
     <use xlink:href="#DejaVuSans-64" x="783.101562"/>
     <use xlink:href="#DejaVuSans-75" x="846.578125"/>
     <use xlink:href="#DejaVuSans-63" x="909.957031"/>
     <use xlink:href="#DejaVuSans-74" x="964.9375"/>
     <use xlink:href="#DejaVuSans-69" x="1004.146484"/>
     <use xlink:href="#DejaVuSans-6f" x="1031.929688"/>
     <use xlink:href="#DejaVuSans-6e" x="1093.111328"/>
     <use xlink:href="#DejaVuSans-20" x="1156.490234"/>
     <use xlink:href="#DejaVuSans-4b" x="1188.277344"/>
     <use xlink:href="#DejaVuSans-20" x="1253.853516"/>
     <use xlink:href="#DejaVuSans-28" x="1285.640625"/>
     <use xlink:href="#DejaVuSans-34" x="1324.654297"/>
     <use xlink:href="#DejaVuSans-d7" x="1388.277344"/>
     <use xlink:href="#DejaVuSans-2c" x="1472.066406"/>
     <use xlink:href="#DejaVuSans-20" x="1503.853516"/>
     <use xlink:href="#DejaVuSans-2b" x="1535.640625"/>
     <use xlink:href="#DejaVuSans-61" x="1619.429688"/>
     <use xlink:href="#DejaVuSans-63" x="1680.708984"/>
     <use xlink:href="#DejaVuSans-63" x="1735.689453"/>
     <use xlink:href="#DejaVuSans-29" x="1790.669922"/>
    </g>
   </g>
  </g>
  <g id="text_37">
   <!-- Tiling options for  z = x @ y    (x: [M, K]   y: [K, N]   z: [M, N]) -->
   <g transform="translate(192.272734 15.558281) scale(0.11 -0.11)">
    <defs>
     <path id="DejaVuSans-54" d="M -19 4666 
L 3928 4666 
L 3928 4134 
L 2272 4134 
L 2272 0 
L 1638 0 
L 1638 4134 
L -19 4134 
L -19 4666 
z
" transform="scale(0.015625)"/>
     <path id="DejaVuSans-73" d="M 2834 3397 
L 2834 2853 
Q 2591 2978 2328 3040 
Q 2066 3103 1784 3103 
Q 1356 3103 1142 2972 
Q 928 2841 928 2578 
Q 928 2378 1081 2264 
Q 1234 2150 1697 2047 
L 1894 2003 
Q 2506 1872 2764 1633 
Q 3022 1394 3022 966 
Q 3022 478 2636 193 
Q 2250 -91 1575 -91 
Q 1294 -91 989 -36 
Q 684 19 347 128 
L 347 722 
Q 666 556 975 473 
Q 1284 391 1588 391 
Q 1994 391 2212 530 
Q 2431 669 2431 922 
Q 2431 1156 2273 1281 
Q 2116 1406 1581 1522 
L 1381 1569 
Q 847 1681 609 1914 
Q 372 2147 372 2553 
Q 372 3047 722 3315 
Q 1072 3584 1716 3584 
Q 2034 3584 2315 3537 
Q 2597 3491 2834 3397 
z
" transform="scale(0.015625)"/>
     <path id="DejaVuSans-66" d="M 2375 4863 
L 2375 4384 
L 1825 4384 
Q 1516 4384 1395 4259 
Q 1275 4134 1275 3809 
L 1275 3500 
L 2222 3500 
L 2222 3053 
L 1275 3053 
L 1275 0 
L 697 0 
L 697 3053 
L 147 3053 
L 147 3500 
L 697 3500 
L 697 3744 
Q 697 4328 969 4595 
Q 1241 4863 1831 4863 
L 2375 4863 
z
" transform="scale(0.015625)"/>
     <path id="DejaVuSans-40" d="M 2381 1678 
Q 2381 1231 2603 976 
Q 2825 722 3213 722 
Q 3597 722 3817 978 
Q 4038 1234 4038 1678 
Q 4038 2116 3813 2373 
Q 3588 2631 3206 2631 
Q 2828 2631 2604 2375 
Q 2381 2119 2381 1678 
z
M 4084 744 
Q 3897 503 3655 389 
Q 3413 275 3091 275 
Q 2553 275 2217 664 
Q 1881 1053 1881 1678 
Q 1881 2303 2218 2693 
Q 2556 3084 3091 3084 
Q 3413 3084 3656 2967 
Q 3900 2850 4084 2613 
L 4084 3022 
L 4531 3022 
L 4531 722 
Q 4988 791 5245 1139 
Q 5503 1488 5503 2041 
Q 5503 2375 5404 2669 
Q 5306 2963 5106 3213 
Q 4781 3622 4314 3839 
Q 3847 4056 3297 4056 
Q 2913 4056 2559 3954 
Q 2206 3853 1906 3653 
Q 1416 3334 1139 2817 
Q 863 2300 863 1697 
Q 863 1200 1042 765 
Q 1222 331 1563 0 
Q 1891 -325 2322 -495 
Q 2753 -666 3244 -666 
Q 3647 -666 4036 -530 
Q 4425 -394 4750 -141 
L 5031 -488 
Q 4641 -791 4180 -952 
Q 3719 -1113 3244 -1113 
Q 2666 -1113 2153 -908 
Q 1641 -703 1241 -313 
Q 841 78 631 592 
Q 422 1106 422 1697 
Q 422 2266 634 2781 
Q 847 3297 1241 3688 
Q 1644 4084 2172 4295 
Q 2700 4506 3291 4506 
Q 3953 4506 4520 4234 
Q 5088 3963 5472 3463 
Q 5706 3156 5829 2797 
Q 5953 2438 5953 2053 
Q 5953 1231 5456 756 
Q 4959 281 4084 263 
L 4084 744 
z
" transform="scale(0.015625)"/>
    </defs>
    <use xlink:href="#DejaVuSans-54"/>
    <use xlink:href="#DejaVuSans-69" x="57.958984"/>
    <use xlink:href="#DejaVuSans-6c" x="85.742188"/>
    <use xlink:href="#DejaVuSans-69" x="113.525391"/>
    <use xlink:href="#DejaVuSans-6e" x="141.308594"/>
    <use xlink:href="#DejaVuSans-67" x="204.6875"/>
    <use xlink:href="#DejaVuSans-20" x="268.164062"/>
    <use xlink:href="#DejaVuSans-6f" x="299.951172"/>
    <use xlink:href="#DejaVuSans-70" x="361.132812"/>
    <use xlink:href="#DejaVuSans-74" x="424.609375"/>
    <use xlink:href="#DejaVuSans-69" x="463.818359"/>
    <use xlink:href="#DejaVuSans-6f" x="491.601562"/>
    <use xlink:href="#DejaVuSans-6e" x="552.783203"/>
    <use xlink:href="#DejaVuSans-73" x="616.162109"/>
    <use xlink:href="#DejaVuSans-20" x="668.261719"/>
    <use xlink:href="#DejaVuSans-66" x="700.048828"/>
    <use xlink:href="#DejaVuSans-6f" x="735.253906"/>
    <use xlink:href="#DejaVuSans-72" x="796.435547"/>
    <use xlink:href="#DejaVuSans-20" x="837.548828"/>
    <use xlink:href="#DejaVuSans-20" x="869.335938"/>
    <use xlink:href="#DejaVuSans-7a" x="901.123047"/>
    <use xlink:href="#DejaVuSans-20" x="953.613281"/>
    <use xlink:href="#DejaVuSans-3d" x="985.400391"/>
    <use xlink:href="#DejaVuSans-20" x="1069.189453"/>
    <use xlink:href="#DejaVuSans-78" x="1100.976562"/>
    <use xlink:href="#DejaVuSans-20" x="1160.15625"/>
    <use xlink:href="#DejaVuSans-40" x="1191.943359"/>
    <use xlink:href="#DejaVuSans-20" x="1291.943359"/>
    <use xlink:href="#DejaVuSans-79" x="1323.730469"/>
    <use xlink:href="#DejaVuSans-20" x="1382.910156"/>
    <use xlink:href="#DejaVuSans-20" x="1414.697266"/>
    <use xlink:href="#DejaVuSans-20" x="1446.484375"/>
    <use xlink:href="#DejaVuSans-20" x="1478.271484"/>
    <use xlink:href="#DejaVuSans-28" x="1510.058594"/>
    <use xlink:href="#DejaVuSans-78" x="1549.072266"/>
    <use xlink:href="#DejaVuSans-3a" x="1608.251953"/>
    <use xlink:href="#DejaVuSans-20" x="1641.943359"/>
    <use xlink:href="#DejaVuSans-5b" x="1673.730469"/>
    <use xlink:href="#DejaVuSans-4d" x="1712.744141"/>
    <use xlink:href="#DejaVuSans-2c" x="1799.023438"/>
    <use xlink:href="#DejaVuSans-20" x="1830.810547"/>
    <use xlink:href="#DejaVuSans-4b" x="1862.597656"/>
    <use xlink:href="#DejaVuSans-5d" x="1928.173828"/>
    <use xlink:href="#DejaVuSans-20" x="1967.1875"/>
    <use xlink:href="#DejaVuSans-20" x="1998.974609"/>
    <use xlink:href="#DejaVuSans-20" x="2030.761719"/>
    <use xlink:href="#DejaVuSans-79" x="2062.548828"/>
    <use xlink:href="#DejaVuSans-3a" x="2114.478516"/>
    <use xlink:href="#DejaVuSans-20" x="2148.169922"/>
    <use xlink:href="#DejaVuSans-5b" x="2179.957031"/>
    <use xlink:href="#DejaVuSans-4b" x="2218.970703"/>
    <use xlink:href="#DejaVuSans-2c" x="2284.546875"/>
    <use xlink:href="#DejaVuSans-20" x="2316.333984"/>
    <use xlink:href="#DejaVuSans-4e" x="2348.121094"/>
    <use xlink:href="#DejaVuSans-5d" x="2422.925781"/>
    <use xlink:href="#DejaVuSans-20" x="2461.939453"/>
    <use xlink:href="#DejaVuSans-20" x="2493.726562"/>
    <use xlink:href="#DejaVuSans-20" x="2525.513672"/>
    <use xlink:href="#DejaVuSans-7a" x="2557.300781"/>
    <use xlink:href="#DejaVuSans-3a" x="2609.791016"/>
    <use xlink:href="#DejaVuSans-20" x="2643.482422"/>
    <use xlink:href="#DejaVuSans-5b" x="2675.269531"/>
    <use xlink:href="#DejaVuSans-4d" x="2714.283203"/>
    <use xlink:href="#DejaVuSans-2c" x="2800.5625"/>
    <use xlink:href="#DejaVuSans-20" x="2832.349609"/>
    <use xlink:href="#DejaVuSans-4e" x="2864.136719"/>
    <use xlink:href="#DejaVuSans-5d" x="2938.941406"/>
    <use xlink:href="#DejaVuSans-29" x="2977.955078"/>
   </g>
  </g>
 </g>
 <defs>
  <clipPath id="p12112fe094">
   <rect x="7.2" y="85.422522" width="157.695652" height="110.386957"/>
  </clipPath>
  <clipPath id="pd688ba8f07">
   <rect x="196.434783" y="85.422522" width="157.695652" height="110.386957"/>
  </clipPath>
  <clipPath id="p28dfd29480">
   <rect x="385.669565" y="85.422522" width="157.695652" height="110.386957"/>
  </clipPath>
  <clipPath id="p1a651f5372">
   <rect x="574.904348" y="85.422522" width="157.695652" height="110.386957"/>
  </clipPath>
 </defs>
</svg>
