<?xml version="1.0" encoding="utf-8" standalone="no"?>
<!DOCTYPE svg PUBLIC "-//W3C//DTD SVG 1.1//EN"
  "http://www.w3.org/Graphics/SVG/1.1/DTD/svg11.dtd">
<svg xmlns:xlink="http://www.w3.org/1999/xlink" width="739.8pt" height="309.24pt" viewBox="0 0 739.8 309.24" xmlns="http://www.w3.org/2000/svg" version="1.1">
 <metadata>
  <rdf:RDF xmlns:dc="http://purl.org/dc/elements/1.1/" xmlns:cc="http://creativecommons.org/ns#" xmlns:rdf="http://www.w3.org/1999/02/22-rdf-syntax-ns#">
   <cc:Work>
    <dc:type rdf:resource="http://purl.org/dc/dcmitype/StillImage"/>
    <dc:date>2026-06-01T11:29:07.403685</dc:date>
    <dc:format>image/svg+xml</dc:format>
    <dc:creator>
     <cc:Agent>
      <dc:title>Matplotlib v3.9.4, https://matplotlib.org/</dc:title>
     </cc:Agent>
    </dc:creator>
   </cc:Work>
  </rdf:RDF>
 </metadata>
 <defs>
  <style type="text/css">*{stroke-linejoin: round; stroke-linecap: butt}</style>
 </defs>
 <g id="figure_1">
  <g id="patch_1">
   <path d="M 0 309.24 
L 739.8 309.24 
L 739.8 0 
L 0 0 
z
" style="fill: #ffffff"/>
  </g>
  <g id="axes_1">
   <g id="patch_2">
    <path d="M 13.794545 293.724 
L 330.332727 293.724 
L 330.332727 60.876 
L 13.794545 60.876 
z
" clip-path="url(#p63a1dc56ff)" style="fill: #f2d7b6; opacity: 0.35"/>
   </g>
   <g id="patch_3">
    <path d="M 20.389091 138.6306 
L 102.820909 138.6306 
Q 103.480364 138.6306 103.480364 137.799 
L 103.480364 94.14 
Q 103.480364 93.3084 102.820909 93.3084 
L 20.389091 93.3084 
Q 19.729636 93.3084 19.729636 94.14 
L 19.729636 137.799 
Q 19.729636 138.6306 20.389091 138.6306 
z
" clip-path="url(#p63a1dc56ff)" style="fill: #ffffff; stroke: #1f1f1f; stroke-width: 1.3; stroke-linejoin: miter"/>
   </g>
   <g id="patch_4">
    <path d="M 20.389091 196.8426 
L 102.820909 196.8426 
Q 103.480364 196.8426 103.480364 196.011 
L 103.480364 152.352 
Q 103.480364 151.5204 102.820909 151.5204 
L 20.389091 151.5204 
Q 19.729636 151.5204 19.729636 152.352 
L 19.729636 196.011 
Q 19.729636 196.8426 20.389091 196.8426 
z
" clip-path="url(#p63a1dc56ff)" style="fill: #ffffff; stroke: #1f1f1f; stroke-width: 1.3; stroke-linejoin: miter"/>
   </g>
   <g id="patch_5">
    <path d="M 20.389091 267.5286 
L 102.820909 267.5286 
Q 103.480364 267.5286 103.480364 266.697 
L 103.480364 223.038 
Q 103.480364 222.2064 102.820909 222.2064 
L 20.389091 222.2064 
Q 19.729636 222.2064 19.729636 223.038 
L 19.729636 266.697 
Q 19.729636 267.5286 20.389091 267.5286 
z
" clip-path="url(#p63a1dc56ff)" style="fill: #ffffff; stroke: #1f1f1f; stroke-width: 1.3; stroke-linejoin: miter"/>
   </g>
   <g id="patch_6">
    <path d="M 124.253182 163.5786 
L 157.225909 163.5786 
Q 157.885364 163.5786 157.885364 162.747 
L 157.885364 125.325 
Q 157.885364 124.4934 157.225909 124.4934 
L 124.253182 124.4934 
Q 123.593727 124.4934 123.593727 125.325 
L 123.593727 162.747 
Q 123.593727 163.5786 124.253182 163.5786 
z
" clip-path="url(#p63a1dc56ff)" style="fill: #4c78a8; stroke: #1f1f1f; stroke-width: 1.3; stroke-linejoin: miter"/>
   </g>
   <g id="patch_7">
    <path d="M 180.306818 167.7366 
L 264.387273 167.7366 
Q 265.046727 167.7366 265.046727 166.905 
L 265.046727 121.167 
Q 265.046727 120.3354 264.387273 120.3354 
L 180.306818 120.3354 
Q 179.647364 120.3354 179.647364 121.167 
L 179.647364 166.905 
Q 179.647364 167.7366 180.306818 167.7366 
z
" clip-path="url(#p63a1dc56ff)" style="fill: #e45756; stroke: #1f1f1f; stroke-width: 1.3; stroke-linejoin: miter"/>
   </g>
   <g id="patch_8">
    <path d="M 279.225 217.6326 
L 330.332727 217.6326 
Q 330.992182 217.6326 330.992182 216.801 
L 330.992182 175.221 
Q 330.992182 174.3894 330.332727 174.3894 
L 279.225 174.3894 
Q 278.565545 174.3894 278.565545 175.221 
L 278.565545 216.801 
Q 278.565545 217.6326 279.225 217.6326 
z
" clip-path="url(#p63a1dc56ff)" style="fill: #ffffff; stroke: #1f1f1f; stroke-width: 1.3; stroke-linejoin: miter"/>
   </g>
   <g id="patch_9">
    <path d="M 200.090455 263.3706 
L 233.063182 263.3706 
Q 233.722636 263.3706 233.722636 262.539 
L 233.722636 225.117 
Q 233.722636 224.2854 233.063182 224.2854 
L 200.090455 224.2854 
Q 199.431 224.2854 199.431 225.117 
L 199.431 262.539 
Q 199.431 263.3706 200.090455 263.3706 
z
" clip-path="url(#p63a1dc56ff)" style="fill: #4c78a8; stroke: #1f1f1f; stroke-width: 1.3; stroke-linejoin: miter"/>
   </g>
   <g id="patch_10">
    <path d="M 104.32525 120.401333 
Q 113.536323 128.442869 121.568277 135.455 
" clip-path="url(#p63a1dc56ff)" style="fill: none; stroke: #444444; stroke-width: 1.4; stroke-linecap: round"/>
    <path d="M 119.530772 130.490267 
L 121.568277 135.455 
L 116.373988 134.106164 
z
" clip-path="url(#p63a1dc56ff)" style="fill: #444444; stroke: #444444; stroke-width: 1.4; stroke-linecap: round"/>
   </g>
   <g id="patch_11">
    <path d="M 104.126415 173.70134 
Q 113.537497 162.746475 121.928605 152.978898 
" clip-path="url(#p63a1dc56ff)" style="fill: none; stroke: #444444; stroke-width: 1.4; stroke-linecap: round"/>
    <path d="M 116.980273 155.055918 
L 121.928605 152.978898 
L 120.621221 158.183775 
z
" clip-path="url(#p63a1dc56ff)" style="fill: #444444; stroke: #444444; stroke-width: 1.4; stroke-linecap: round"/>
   </g>
   <g id="patch_12">
    <path d="M 159.223512 144.036 
Q 168.765304 144.036 176.741848 144.036 
" clip-path="url(#p63a1dc56ff)" style="fill: none; stroke: #444444; stroke-width: 1.4; stroke-linecap: round"/>
    <path d="M 171.941848 141.636 
L 176.741848 144.036 
L 171.941848 146.436 
z
" clip-path="url(#p63a1dc56ff)" style="fill: #444444; stroke: #444444; stroke-width: 1.4; stroke-linecap: round"/>
   </g>
   <g id="patch_13">
    <path d="M 222.946367 168.891115 
Q 219.87414 196.010564 216.978106 221.574714 
" clip-path="url(#p63a1dc56ff)" style="fill: none; stroke: #444444; stroke-width: 1.4; stroke-linecap: round"/>
    <path d="M 219.903164 217.075377 
L 216.978106 221.574714 
L 215.133671 216.535065 
z
" clip-path="url(#p63a1dc56ff)" style="fill: #444444; stroke: #444444; stroke-width: 1.4; stroke-linecap: round"/>
   </g>
   <g id="patch_14">
    <path d="M 104.818663 243.828 
Q 151.455845 243.828 196.527779 243.828 
" clip-path="url(#p63a1dc56ff)" style="fill: none; stroke: #444444; stroke-width: 1.4; stroke-linecap: round"/>
    <path d="M 191.727779 241.428 
L 196.527779 243.828 
L 191.727779 246.228 
z
" clip-path="url(#p63a1dc56ff)" style="fill: #444444; stroke: #444444; stroke-width: 1.4; stroke-linecap: round"/>
   </g>
   <g id="patch_15">
    <path d="M 234.649431 240.534516 
Q 256.144138 224.077464 276.396035 208.571948 
" clip-path="url(#p63a1dc56ff)" style="fill: none; stroke: #444444; stroke-width: 1.4; stroke-linecap: round"/>
    <path d="M 271.125828 209.584331 
L 276.396035 208.571948 
L 274.043817 213.395544 
z
" clip-path="url(#p63a1dc56ff)" style="fill: #444444; stroke: #444444; stroke-width: 1.4; stroke-linecap: round"/>
   </g>
   <g id="text_1">
    <!-- HBM -->
    <g style="fill: #7a5a2a" transform="translate(20.389091 71.271) scale(0.09 -0.09)">
     <defs>
      <path id="DejaVuSans-Bold-48" d="M 588 4666 
L 1791 4666 
L 1791 2888 
L 3566 2888 
L 3566 4666 
L 4769 4666 
L 4769 0 
L 3566 0 
L 3566 1978 
L 1791 1978 
L 1791 0 
L 588 0 
L 588 4666 
z
" transform="scale(0.015625)"/>
      <path id="DejaVuSans-Bold-42" d="M 2456 2859 
Q 2741 2859 2887 2984 
Q 3034 3109 3034 3353 
Q 3034 3594 2887 3720 
Q 2741 3847 2456 3847 
L 1791 3847 
L 1791 2859 
L 2456 2859 
z
M 2497 819 
Q 2859 819 3042 972 
Q 3225 1125 3225 1434 
Q 3225 1738 3044 1889 
Q 2863 2041 2497 2041 
L 1791 2041 
L 1791 819 
L 2497 819 
z
M 3616 2497 
Q 4003 2384 4215 2081 
Q 4428 1778 4428 1338 
Q 4428 663 3972 331 
Q 3516 0 2584 0 
L 588 0 
L 588 4666 
L 2394 4666 
Q 3366 4666 3802 4372 
Q 4238 4078 4238 3431 
Q 4238 3091 4078 2852 
Q 3919 2613 3616 2497 
z
" transform="scale(0.015625)"/>
      <path id="DejaVuSans-Bold-4d" d="M 588 4666 
L 2119 4666 
L 3181 2169 
L 4250 4666 
L 5778 4666 
L 5778 0 
L 4641 0 
L 4641 3413 
L 3566 897 
L 2803 897 
L 1728 3413 
L 1728 0 
L 588 0 
L 588 4666 
z
" transform="scale(0.015625)"/>
     </defs>
     <use xlink:href="#DejaVuSans-Bold-48"/>
     <use xlink:href="#DejaVuSans-Bold-42" x="83.691406"/>
     <use xlink:href="#DejaVuSans-Bold-4d" x="159.912109"/>
    </g>
   </g>
   <g id="text_2">
    <!-- a -->
    <g style="fill: #1f1f1f" transform="translate(58.694141 113.271945) scale(0.095 -0.095)">
     <defs>
      <path id="DejaVuSans-61" d="M 2194 1759 
Q 1497 1759 1228 1600 
Q 959 1441 959 1056 
Q 959 750 1161 570 
Q 1363 391 1709 391 
Q 2188 391 2477 730 
Q 2766 1069 2766 1631 
L 2766 1759 
L 2194 1759 
z
M 3341 1997 
L 3341 0 
L 2766 0 
L 2766 531 
Q 2569 213 2275 61 
Q 1981 -91 1556 -91 
Q 1019 -91 701 211 
Q 384 513 384 1019 
Q 384 1609 779 1909 
Q 1175 2209 1959 2209 
L 2766 2209 
L 2766 2266 
Q 2766 2663 2505 2880 
Q 2244 3097 1772 3097 
Q 1472 3097 1187 3025 
Q 903 2953 641 2809 
L 641 3341 
Q 956 3463 1253 3523 
Q 1550 3584 1831 3584 
Q 2591 3584 2966 3190 
Q 3341 2797 3341 1997 
z
" transform="scale(0.015625)"/>
     </defs>
     <use xlink:href="#DejaVuSans-61"/>
    </g>
    <!-- [1024 × 4096] -->
    <g style="fill: #1f1f1f" transform="translate(26.721445 123.909867) scale(0.095 -0.095)">
     <defs>
      <path id="DejaVuSans-5b" d="M 550 4863 
L 1875 4863 
L 1875 4416 
L 1125 4416 
L 1125 -397 
L 1875 -397 
L 1875 -844 
L 550 -844 
L 550 4863 
z
" transform="scale(0.015625)"/>
      <path id="DejaVuSans-31" d="M 794 531 
L 1825 531 
L 1825 4091 
L 703 3866 
L 703 4441 
L 1819 4666 
L 2450 4666 
L 2450 531 
L 3481 531 
L 3481 0 
L 794 0 
L 794 531 
z
" transform="scale(0.015625)"/>
      <path id="DejaVuSans-30" d="M 2034 4250 
Q 1547 4250 1301 3770 
Q 1056 3291 1056 2328 
Q 1056 1369 1301 889 
Q 1547 409 2034 409 
Q 2525 409 2770 889 
Q 3016 1369 3016 2328 
Q 3016 3291 2770 3770 
Q 2525 4250 2034 4250 
z
M 2034 4750 
Q 2819 4750 3233 4129 
Q 3647 3509 3647 2328 
Q 3647 1150 3233 529 
Q 2819 -91 2034 -91 
Q 1250 -91 836 529 
Q 422 1150 422 2328 
Q 422 3509 836 4129 
Q 1250 4750 2034 4750 
z
" transform="scale(0.015625)"/>
      <path id="DejaVuSans-32" d="M 1228 531 
L 3431 531 
L 3431 0 
L 469 0 
L 469 531 
Q 828 903 1448 1529 
Q 2069 2156 2228 2338 
Q 2531 2678 2651 2914 
Q 2772 3150 2772 3378 
Q 2772 3750 2511 3984 
Q 2250 4219 1831 4219 
Q 1534 4219 1204 4116 
Q 875 4013 500 3803 
L 500 4441 
Q 881 4594 1212 4672 
Q 1544 4750 1819 4750 
Q 2544 4750 2975 4387 
Q 3406 4025 3406 3419 
Q 3406 3131 3298 2873 
Q 3191 2616 2906 2266 
Q 2828 2175 2409 1742 
Q 1991 1309 1228 531 
z
" transform="scale(0.015625)"/>
      <path id="DejaVuSans-34" d="M 2419 4116 
L 825 1625 
L 2419 1625 
L 2419 4116 
z
M 2253 4666 
L 3047 4666 
L 3047 1625 
L 3713 1625 
L 3713 1100 
L 3047 1100 
L 3047 0 
L 2419 0 
L 2419 1100 
L 313 1100 
L 313 1709 
L 2253 4666 
z
" transform="scale(0.015625)"/>
      <path id="DejaVuSans-20" transform="scale(0.015625)"/>
      <path id="DejaVuSans-d7" d="M 4488 3438 
L 3059 2003 
L 4488 575 
L 4116 197 
L 2681 1631 
L 1247 197 
L 878 575 
L 2303 2003 
L 878 3438 
L 1247 3816 
L 2681 2381 
L 4116 3816 
L 4488 3438 
z
" transform="scale(0.015625)"/>
      <path id="DejaVuSans-39" d="M 703 97 
L 703 672 
Q 941 559 1184 500 
Q 1428 441 1663 441 
Q 2288 441 2617 861 
Q 2947 1281 2994 2138 
Q 2813 1869 2534 1725 
Q 2256 1581 1919 1581 
Q 1219 1581 811 2004 
Q 403 2428 403 3163 
Q 403 3881 828 4315 
Q 1253 4750 1959 4750 
Q 2769 4750 3195 4129 
Q 3622 3509 3622 2328 
Q 3622 1225 3098 567 
Q 2575 -91 1691 -91 
Q 1453 -91 1209 -44 
Q 966 3 703 97 
z
M 1959 2075 
Q 2384 2075 2632 2365 
Q 2881 2656 2881 3163 
Q 2881 3666 2632 3958 
Q 2384 4250 1959 4250 
Q 1534 4250 1286 3958 
Q 1038 3666 1038 3163 
Q 1038 2656 1286 2365 
Q 1534 2075 1959 2075 
z
" transform="scale(0.015625)"/>
      <path id="DejaVuSans-36" d="M 2113 2584 
Q 1688 2584 1439 2293 
Q 1191 2003 1191 1497 
Q 1191 994 1439 701 
Q 1688 409 2113 409 
Q 2538 409 2786 701 
Q 3034 994 3034 1497 
Q 3034 2003 2786 2293 
Q 2538 2584 2113 2584 
z
M 3366 4563 
L 3366 3988 
Q 3128 4100 2886 4159 
Q 2644 4219 2406 4219 
Q 1781 4219 1451 3797 
Q 1122 3375 1075 2522 
Q 1259 2794 1537 2939 
Q 1816 3084 2150 3084 
Q 2853 3084 3261 2657 
Q 3669 2231 3669 1497 
Q 3669 778 3244 343 
Q 2819 -91 2113 -91 
Q 1303 -91 875 529 
Q 447 1150 447 2328 
Q 447 3434 972 4092 
Q 1497 4750 2381 4750 
Q 2619 4750 2861 4703 
Q 3103 4656 3366 4563 
z
" transform="scale(0.015625)"/>
      <path id="DejaVuSans-5d" d="M 1947 4863 
L 1947 -844 
L 622 -844 
L 622 -397 
L 1369 -397 
L 1369 4416 
L 622 4416 
L 622 4863 
L 1947 4863 
z
" transform="scale(0.015625)"/>
     </defs>
     <use xlink:href="#DejaVuSans-5b"/>
     <use xlink:href="#DejaVuSans-31" x="39.013672"/>
     <use xlink:href="#DejaVuSans-30" x="102.636719"/>
     <use xlink:href="#DejaVuSans-32" x="166.259766"/>
     <use xlink:href="#DejaVuSans-34" x="229.882812"/>
     <use xlink:href="#DejaVuSans-20" x="293.505859"/>
     <use xlink:href="#DejaVuSans-d7" x="325.292969"/>
     <use xlink:href="#DejaVuSans-20" x="409.082031"/>
     <use xlink:href="#DejaVuSans-34" x="440.869141"/>
     <use xlink:href="#DejaVuSans-30" x="504.492188"/>
     <use xlink:href="#DejaVuSans-39" x="568.115234"/>
     <use xlink:href="#DejaVuSans-36" x="631.738281"/>
     <use xlink:href="#DejaVuSans-5d" x="695.361328"/>
    </g>
   </g>
   <g id="text_3">
    <!-- b -->
    <g style="fill: #1f1f1f" transform="translate(58.589492 171.483945) scale(0.095 -0.095)">
     <defs>
      <path id="DejaVuSans-62" d="M 3116 1747 
Q 3116 2381 2855 2742 
Q 2594 3103 2138 3103 
Q 1681 3103 1420 2742 
Q 1159 2381 1159 1747 
Q 1159 1113 1420 752 
Q 1681 391 2138 391 
Q 2594 391 2855 752 
Q 3116 1113 3116 1747 
z
M 1159 2969 
Q 1341 3281 1617 3432 
Q 1894 3584 2278 3584 
Q 2916 3584 3314 3078 
Q 3713 2572 3713 1747 
Q 3713 922 3314 415 
Q 2916 -91 2278 -91 
Q 1894 -91 1617 61 
Q 1341 213 1159 525 
L 1159 0 
L 581 0 
L 581 4863 
L 1159 4863 
L 1159 2969 
z
" transform="scale(0.015625)"/>
     </defs>
     <use xlink:href="#DejaVuSans-62"/>
    </g>
    <!-- [1024 × 4096] -->
    <g style="fill: #1f1f1f" transform="translate(26.721445 182.121867) scale(0.095 -0.095)">
     <use xlink:href="#DejaVuSans-5b"/>
     <use xlink:href="#DejaVuSans-31" x="39.013672"/>
     <use xlink:href="#DejaVuSans-30" x="102.636719"/>
     <use xlink:href="#DejaVuSans-32" x="166.259766"/>
     <use xlink:href="#DejaVuSans-34" x="229.882812"/>
     <use xlink:href="#DejaVuSans-20" x="293.505859"/>
     <use xlink:href="#DejaVuSans-d7" x="325.292969"/>
     <use xlink:href="#DejaVuSans-20" x="409.082031"/>
     <use xlink:href="#DejaVuSans-34" x="440.869141"/>
     <use xlink:href="#DejaVuSans-30" x="504.492188"/>
     <use xlink:href="#DejaVuSans-39" x="568.115234"/>
     <use xlink:href="#DejaVuSans-36" x="631.738281"/>
     <use xlink:href="#DejaVuSans-5d" x="695.361328"/>
    </g>
   </g>
   <g id="text_4">
    <!-- c -->
    <g style="fill: #1f1f1f" transform="translate(58.993242 242.169945) scale(0.095 -0.095)">
     <defs>
      <path id="DejaVuSans-63" d="M 3122 3366 
L 3122 2828 
Q 2878 2963 2633 3030 
Q 2388 3097 2138 3097 
Q 1578 3097 1268 2742 
Q 959 2388 959 1747 
Q 959 1106 1268 751 
Q 1578 397 2138 397 
Q 2388 397 2633 464 
Q 2878 531 3122 666 
L 3122 134 
Q 2881 22 2623 -34 
Q 2366 -91 2075 -91 
Q 1284 -91 818 406 
Q 353 903 353 1747 
Q 353 2603 823 3093 
Q 1294 3584 2113 3584 
Q 2378 3584 2631 3529 
Q 2884 3475 3122 3366 
z
" transform="scale(0.015625)"/>
     </defs>
     <use xlink:href="#DejaVuSans-63"/>
    </g>
    <!-- [1024 × 4096] -->
    <g style="fill: #1f1f1f" transform="translate(26.721445 252.807867) scale(0.095 -0.095)">
     <use xlink:href="#DejaVuSans-5b"/>
     <use xlink:href="#DejaVuSans-31" x="39.013672"/>
     <use xlink:href="#DejaVuSans-30" x="102.636719"/>
     <use xlink:href="#DejaVuSans-32" x="166.259766"/>
     <use xlink:href="#DejaVuSans-34" x="229.882812"/>
     <use xlink:href="#DejaVuSans-20" x="293.505859"/>
     <use xlink:href="#DejaVuSans-d7" x="325.292969"/>
     <use xlink:href="#DejaVuSans-20" x="409.082031"/>
     <use xlink:href="#DejaVuSans-34" x="440.869141"/>
     <use xlink:href="#DejaVuSans-30" x="504.492188"/>
     <use xlink:href="#DejaVuSans-39" x="568.115234"/>
     <use xlink:href="#DejaVuSans-36" x="631.738281"/>
     <use xlink:href="#DejaVuSans-5d" x="695.361328"/>
    </g>
   </g>
   <g id="text_5">
    <!-- + -->
    <g style="fill: #1f1f1f" transform="translate(136.759194 146.657406) scale(0.095 -0.095)">
     <defs>
      <path id="DejaVuSans-2b" d="M 2944 4013 
L 2944 2272 
L 4684 2272 
L 4684 1741 
L 2944 1741 
L 2944 0 
L 2419 0 
L 2419 1741 
L 678 1741 
L 678 2272 
L 2419 2272 
L 2419 4013 
L 2944 4013 
z
" transform="scale(0.015625)"/>
     </defs>
     <use xlink:href="#DejaVuSans-2b"/>
    </g>
   </g>
   <g id="text_6">
    <!-- y -->
    <g style="fill: #1f1f1f" transform="translate(219.535639 136.019484) scale(0.095 -0.095)">
     <defs>
      <path id="DejaVuSans-79" d="M 2059 -325 
Q 1816 -950 1584 -1140 
Q 1353 -1331 966 -1331 
L 506 -1331 
L 506 -850 
L 844 -850 
Q 1081 -850 1212 -737 
Q 1344 -625 1503 -206 
L 1606 56 
L 191 3500 
L 800 3500 
L 1894 763 
L 2988 3500 
L 3597 3500 
L 2059 -325 
z
" transform="scale(0.015625)"/>
     </defs>
     <use xlink:href="#DejaVuSans-79"/>
    </g>
    <!-- [1024 × 4096] -->
    <g style="fill: #1f1f1f" transform="translate(187.463491 146.657406) scale(0.095 -0.095)">
     <use xlink:href="#DejaVuSans-5b"/>
     <use xlink:href="#DejaVuSans-31" x="39.013672"/>
     <use xlink:href="#DejaVuSans-30" x="102.636719"/>
     <use xlink:href="#DejaVuSans-32" x="166.259766"/>
     <use xlink:href="#DejaVuSans-34" x="229.882812"/>
     <use xlink:href="#DejaVuSans-20" x="293.505859"/>
     <use xlink:href="#DejaVuSans-d7" x="325.292969"/>
     <use xlink:href="#DejaVuSans-20" x="409.082031"/>
     <use xlink:href="#DejaVuSans-34" x="440.869141"/>
     <use xlink:href="#DejaVuSans-30" x="504.492188"/>
     <use xlink:href="#DejaVuSans-39" x="568.115234"/>
     <use xlink:href="#DejaVuSans-36" x="631.738281"/>
     <use xlink:href="#DejaVuSans-5d" x="695.361328"/>
    </g>
    <!-- SPILLS -->
    <g style="fill: #1f1f1f" transform="translate(206.757397 157.295328) scale(0.095 -0.095)">
     <defs>
      <path id="DejaVuSans-53" d="M 3425 4513 
L 3425 3897 
Q 3066 4069 2747 4153 
Q 2428 4238 2131 4238 
Q 1616 4238 1336 4038 
Q 1056 3838 1056 3469 
Q 1056 3159 1242 3001 
Q 1428 2844 1947 2747 
L 2328 2669 
Q 3034 2534 3370 2195 
Q 3706 1856 3706 1288 
Q 3706 609 3251 259 
Q 2797 -91 1919 -91 
Q 1588 -91 1214 -16 
Q 841 59 441 206 
L 441 856 
Q 825 641 1194 531 
Q 1563 422 1919 422 
Q 2459 422 2753 634 
Q 3047 847 3047 1241 
Q 3047 1584 2836 1778 
Q 2625 1972 2144 2069 
L 1759 2144 
Q 1053 2284 737 2584 
Q 422 2884 422 3419 
Q 422 4038 858 4394 
Q 1294 4750 2059 4750 
Q 2388 4750 2728 4690 
Q 3069 4631 3425 4513 
z
" transform="scale(0.015625)"/>
      <path id="DejaVuSans-50" d="M 1259 4147 
L 1259 2394 
L 2053 2394 
Q 2494 2394 2734 2622 
Q 2975 2850 2975 3272 
Q 2975 3691 2734 3919 
Q 2494 4147 2053 4147 
L 1259 4147 
z
M 628 4666 
L 2053 4666 
Q 2838 4666 3239 4311 
Q 3641 3956 3641 3272 
Q 3641 2581 3239 2228 
Q 2838 1875 2053 1875 
L 1259 1875 
L 1259 0 
L 628 0 
L 628 4666 
z
" transform="scale(0.015625)"/>
      <path id="DejaVuSans-49" d="M 628 4666 
L 1259 4666 
L 1259 0 
L 628 0 
L 628 4666 
z
" transform="scale(0.015625)"/>
      <path id="DejaVuSans-4c" d="M 628 4666 
L 1259 4666 
L 1259 531 
L 3531 531 
L 3531 0 
L 628 0 
L 628 4666 
z
" transform="scale(0.015625)"/>
     </defs>
     <use xlink:href="#DejaVuSans-53"/>
     <use xlink:href="#DejaVuSans-50" x="63.476562"/>
     <use xlink:href="#DejaVuSans-49" x="123.779297"/>
     <use xlink:href="#DejaVuSans-4c" x="153.271484"/>
     <use xlink:href="#DejaVuSans-4c" x="208.984375"/>
     <use xlink:href="#DejaVuSans-53" x="264.697266"/>
    </g>
   </g>
   <g id="text_7">
    <!-- z -->
    <g style="fill: #1f1f1f" transform="translate(302.285856 193.313445) scale(0.095 -0.095)">
     <defs>
      <path id="DejaVuSans-7a" d="M 353 3500 
L 3084 3500 
L 3084 2975 
L 922 459 
L 3084 459 
L 3084 0 
L 275 0 
L 275 525 
L 2438 3041 
L 353 3041 
L 353 3500 
z
" transform="scale(0.015625)"/>
     </defs>
     <use xlink:href="#DejaVuSans-7a"/>
    </g>
    <!-- (HBM) -->
    <g style="fill: #1f1f1f" transform="translate(290.142926 203.951367) scale(0.095 -0.095)">
     <defs>
      <path id="DejaVuSans-28" d="M 1984 4856 
Q 1566 4138 1362 3434 
Q 1159 2731 1159 2009 
Q 1159 1288 1364 580 
Q 1569 -128 1984 -844 
L 1484 -844 
Q 1016 -109 783 600 
Q 550 1309 550 2009 
Q 550 2706 781 3412 
Q 1013 4119 1484 4856 
L 1984 4856 
z
" transform="scale(0.015625)"/>
      <path id="DejaVuSans-48" d="M 628 4666 
L 1259 4666 
L 1259 2753 
L 3553 2753 
L 3553 4666 
L 4184 4666 
L 4184 0 
L 3553 0 
L 3553 2222 
L 1259 2222 
L 1259 0 
L 628 0 
L 628 4666 
z
" transform="scale(0.015625)"/>
      <path id="DejaVuSans-42" d="M 1259 2228 
L 1259 519 
L 2272 519 
Q 2781 519 3026 730 
Q 3272 941 3272 1375 
Q 3272 1813 3026 2020 
Q 2781 2228 2272 2228 
L 1259 2228 
z
M 1259 4147 
L 1259 2741 
L 2194 2741 
Q 2656 2741 2882 2914 
Q 3109 3088 3109 3444 
Q 3109 3797 2882 3972 
Q 2656 4147 2194 4147 
L 1259 4147 
z
M 628 4666 
L 2241 4666 
Q 2963 4666 3353 4366 
Q 3744 4066 3744 3513 
Q 3744 3084 3544 2831 
Q 3344 2578 2956 2516 
Q 3422 2416 3680 2098 
Q 3938 1781 3938 1306 
Q 3938 681 3513 340 
Q 3088 0 2303 0 
L 628 0 
L 628 4666 
z
" transform="scale(0.015625)"/>
      <path id="DejaVuSans-4d" d="M 628 4666 
L 1569 4666 
L 2759 1491 
L 3956 4666 
L 4897 4666 
L 4897 0 
L 4281 0 
L 4281 4097 
L 3078 897 
L 2444 897 
L 1241 4097 
L 1241 0 
L 628 0 
L 628 4666 
z
" transform="scale(0.015625)"/>
      <path id="DejaVuSans-29" d="M 513 4856 
L 1013 4856 
Q 1481 4119 1714 3412 
Q 1947 2706 1947 2009 
Q 1947 1309 1714 600 
Q 1481 -109 1013 -844 
L 513 -844 
Q 928 -128 1133 580 
Q 1338 1288 1338 2009 
Q 1338 2731 1133 3434 
Q 928 4138 513 4856 
z
" transform="scale(0.015625)"/>
     </defs>
     <use xlink:href="#DejaVuSans-28"/>
     <use xlink:href="#DejaVuSans-48" x="39.013672"/>
     <use xlink:href="#DejaVuSans-42" x="114.208984"/>
     <use xlink:href="#DejaVuSans-4d" x="182.8125"/>
     <use xlink:href="#DejaVuSans-29" x="269.091797"/>
    </g>
   </g>
   <g id="text_8">
    <!-- × -->
    <g style="fill: #1f1f1f" transform="translate(212.596467 246.449406) scale(0.095 -0.095)">
     <use xlink:href="#DejaVuSans-d7"/>
    </g>
   </g>
   <g id="text_9">
    <!-- Without WSR — y spills to HBM -->
    <g transform="translate(86.595355 44.56) scale(0.11 -0.11)">
     <defs>
      <path id="DejaVuSans-57" d="M 213 4666 
L 850 4666 
L 1831 722 
L 2809 4666 
L 3519 4666 
L 4500 722 
L 5478 4666 
L 6119 4666 
L 4947 0 
L 4153 0 
L 3169 4050 
L 2175 0 
L 1381 0 
L 213 4666 
z
" transform="scale(0.015625)"/>
      <path id="DejaVuSans-69" d="M 603 3500 
L 1178 3500 
L 1178 0 
L 603 0 
L 603 3500 
z
M 603 4863 
L 1178 4863 
L 1178 4134 
L 603 4134 
L 603 4863 
z
" transform="scale(0.015625)"/>
      <path id="DejaVuSans-74" d="M 1172 4494 
L 1172 3500 
L 2356 3500 
L 2356 3053 
L 1172 3053 
L 1172 1153 
Q 1172 725 1289 603 
Q 1406 481 1766 481 
L 2356 481 
L 2356 0 
L 1766 0 
Q 1100 0 847 248 
Q 594 497 594 1153 
L 594 3053 
L 172 3053 
L 172 3500 
L 594 3500 
L 594 4494 
L 1172 4494 
z
" transform="scale(0.015625)"/>
      <path id="DejaVuSans-68" d="M 3513 2113 
L 3513 0 
L 2938 0 
L 2938 2094 
Q 2938 2591 2744 2837 
Q 2550 3084 2163 3084 
Q 1697 3084 1428 2787 
Q 1159 2491 1159 1978 
L 1159 0 
L 581 0 
L 581 4863 
L 1159 4863 
L 1159 2956 
Q 1366 3272 1645 3428 
Q 1925 3584 2291 3584 
Q 2894 3584 3203 3211 
Q 3513 2838 3513 2113 
z
" transform="scale(0.015625)"/>
      <path id="DejaVuSans-6f" d="M 1959 3097 
Q 1497 3097 1228 2736 
Q 959 2375 959 1747 
Q 959 1119 1226 758 
Q 1494 397 1959 397 
Q 2419 397 2687 759 
Q 2956 1122 2956 1747 
Q 2956 2369 2687 2733 
Q 2419 3097 1959 3097 
z
M 1959 3584 
Q 2709 3584 3137 3096 
Q 3566 2609 3566 1747 
Q 3566 888 3137 398 
Q 2709 -91 1959 -91 
Q 1206 -91 779 398 
Q 353 888 353 1747 
Q 353 2609 779 3096 
Q 1206 3584 1959 3584 
z
" transform="scale(0.015625)"/>
      <path id="DejaVuSans-75" d="M 544 1381 
L 544 3500 
L 1119 3500 
L 1119 1403 
Q 1119 906 1312 657 
Q 1506 409 1894 409 
Q 2359 409 2629 706 
Q 2900 1003 2900 1516 
L 2900 3500 
L 3475 3500 
L 3475 0 
L 2900 0 
L 2900 538 
Q 2691 219 2414 64 
Q 2138 -91 1772 -91 
Q 1169 -91 856 284 
Q 544 659 544 1381 
z
M 1991 3584 
L 1991 3584 
z
" transform="scale(0.015625)"/>
      <path id="DejaVuSans-52" d="M 2841 2188 
Q 3044 2119 3236 1894 
Q 3428 1669 3622 1275 
L 4263 0 
L 3584 0 
L 2988 1197 
Q 2756 1666 2539 1819 
Q 2322 1972 1947 1972 
L 1259 1972 
L 1259 0 
L 628 0 
L 628 4666 
L 2053 4666 
Q 2853 4666 3247 4331 
Q 3641 3997 3641 3322 
Q 3641 2881 3436 2590 
Q 3231 2300 2841 2188 
z
M 1259 4147 
L 1259 2491 
L 2053 2491 
Q 2509 2491 2742 2702 
Q 2975 2913 2975 3322 
Q 2975 3731 2742 3939 
Q 2509 4147 2053 4147 
L 1259 4147 
z
" transform="scale(0.015625)"/>
      <path id="DejaVuSans-2014" d="M 313 1978 
L 6088 1978 
L 6088 1528 
L 313 1528 
L 313 1978 
z
" transform="scale(0.015625)"/>
      <path id="DejaVuSans-73" d="M 2834 3397 
L 2834 2853 
Q 2591 2978 2328 3040 
Q 2066 3103 1784 3103 
Q 1356 3103 1142 2972 
Q 928 2841 928 2578 
Q 928 2378 1081 2264 
Q 1234 2150 1697 2047 
L 1894 2003 
Q 2506 1872 2764 1633 
Q 3022 1394 3022 966 
Q 3022 478 2636 193 
Q 2250 -91 1575 -91 
Q 1294 -91 989 -36 
Q 684 19 347 128 
L 347 722 
Q 666 556 975 473 
Q 1284 391 1588 391 
Q 1994 391 2212 530 
Q 2431 669 2431 922 
Q 2431 1156 2273 1281 
Q 2116 1406 1581 1522 
L 1381 1569 
Q 847 1681 609 1914 
Q 372 2147 372 2553 
Q 372 3047 722 3315 
Q 1072 3584 1716 3584 
Q 2034 3584 2315 3537 
Q 2597 3491 2834 3397 
z
" transform="scale(0.015625)"/>
      <path id="DejaVuSans-70" d="M 1159 525 
L 1159 -1331 
L 581 -1331 
L 581 3500 
L 1159 3500 
L 1159 2969 
Q 1341 3281 1617 3432 
Q 1894 3584 2278 3584 
Q 2916 3584 3314 3078 
Q 3713 2572 3713 1747 
Q 3713 922 3314 415 
Q 2916 -91 2278 -91 
Q 1894 -91 1617 61 
Q 1341 213 1159 525 
z
M 3116 1747 
Q 3116 2381 2855 2742 
Q 2594 3103 2138 3103 
Q 1681 3103 1420 2742 
Q 1159 2381 1159 1747 
Q 1159 1113 1420 752 
Q 1681 391 2138 391 
Q 2594 391 2855 752 
Q 3116 1113 3116 1747 
z
" transform="scale(0.015625)"/>
      <path id="DejaVuSans-6c" d="M 603 4863 
L 1178 4863 
L 1178 0 
L 603 0 
L 603 4863 
z
" transform="scale(0.015625)"/>
     </defs>
     <use xlink:href="#DejaVuSans-57"/>
     <use xlink:href="#DejaVuSans-69" x="96.626953"/>
     <use xlink:href="#DejaVuSans-74" x="124.410156"/>
     <use xlink:href="#DejaVuSans-68" x="163.619141"/>
     <use xlink:href="#DejaVuSans-6f" x="226.998047"/>
     <use xlink:href="#DejaVuSans-75" x="288.179688"/>
     <use xlink:href="#DejaVuSans-74" x="351.558594"/>
     <use xlink:href="#DejaVuSans-20" x="390.767578"/>
     <use xlink:href="#DejaVuSans-57" x="422.554688"/>
     <use xlink:href="#DejaVuSans-53" x="521.431641"/>
     <use xlink:href="#DejaVuSans-52" x="584.908203"/>
     <use xlink:href="#DejaVuSans-20" x="654.390625"/>
     <use xlink:href="#DejaVuSans-2014" x="686.177734"/>
     <use xlink:href="#DejaVuSans-20" x="786.177734"/>
     <use xlink:href="#DejaVuSans-79" x="817.964844"/>
     <use xlink:href="#DejaVuSans-20" x="877.144531"/>
     <use xlink:href="#DejaVuSans-73" x="908.931641"/>
     <use xlink:href="#DejaVuSans-70" x="961.03125"/>
     <use xlink:href="#DejaVuSans-69" x="1024.507812"/>
     <use xlink:href="#DejaVuSans-6c" x="1052.291016"/>
     <use xlink:href="#DejaVuSans-6c" x="1080.074219"/>
     <use xlink:href="#DejaVuSans-73" x="1107.857422"/>
     <use xlink:href="#DejaVuSans-20" x="1159.957031"/>
     <use xlink:href="#DejaVuSans-74" x="1191.744141"/>
     <use xlink:href="#DejaVuSans-6f" x="1230.953125"/>
     <use xlink:href="#DejaVuSans-20" x="1292.134766"/>
     <use xlink:href="#DejaVuSans-48" x="1323.921875"/>
     <use xlink:href="#DejaVuSans-42" x="1399.117188"/>
     <use xlink:href="#DejaVuSans-4d" x="1467.720703"/>
    </g>
   </g>
  </g>
  <g id="axes_2">
   <g id="patch_16">
    <path d="M 409.467273 123.246 
L 726.005455 123.246 
L 726.005455 60.876 
L 409.467273 60.876 
z
" clip-path="url(#p62c96f8b44)" style="fill: #f2d7b6; opacity: 0.35"/>
   </g>
   <g id="patch_17">
    <path d="M 409.467273 293.724 
L 726.005455 293.724 
L 726.005455 235.512 
L 409.467273 235.512 
z
" clip-path="url(#p62c96f8b44)" style="fill: #f2d7b6; opacity: 0.35"/>
   </g>
   <g id="patch_18">
    <path d="M 409.467273 231.354 
L 726.005455 231.354 
L 726.005455 127.404 
L 409.467273 127.404 
z
" clip-path="url(#p62c96f8b44)" style="fill: #c7e5c0; opacity: 0.45"/>
   </g>
   <g id="patch_19">
    <path d="M 419.359091 115.7616 
L 472.115455 115.7616 
Q 472.774909 115.7616 472.774909 114.93 
L 472.774909 77.508 
Q 472.774909 76.6764 472.115455 76.6764 
L 419.359091 76.6764 
Q 418.699636 76.6764 418.699636 77.508 
L 418.699636 114.93 
Q 418.699636 115.7616 419.359091 115.7616 
z
" clip-path="url(#p62c96f8b44)" style="fill: #ffffff; stroke: #1f1f1f; stroke-width: 1.3; stroke-linejoin: miter"/>
   </g>
   <g id="patch_20">
    <path d="M 482.007273 115.7616 
L 534.763636 115.7616 
Q 535.423091 115.7616 535.423091 114.93 
L 535.423091 77.508 
Q 535.423091 76.6764 534.763636 76.6764 
L 482.007273 76.6764 
Q 481.347818 76.6764 481.347818 77.508 
L 481.347818 114.93 
Q 481.347818 115.7616 482.007273 115.7616 
z
" clip-path="url(#p62c96f8b44)" style="fill: #ffffff; stroke: #1f1f1f; stroke-width: 1.3; stroke-linejoin: miter"/>
   </g>
   <g id="patch_21">
    <path d="M 663.357273 115.7616 
L 716.113636 115.7616 
Q 716.773091 115.7616 716.773091 114.93 
L 716.773091 77.508 
Q 716.773091 76.6764 716.113636 76.6764 
L 663.357273 76.6764 
Q 662.697818 76.6764 662.697818 77.508 
L 662.697818 114.93 
Q 662.697818 115.7616 663.357273 115.7616 
z
" clip-path="url(#p62c96f8b44)" style="fill: #ffffff; stroke: #1f1f1f; stroke-width: 1.3; stroke-linejoin: miter"/>
   </g>
   <g id="patch_22">
    <path d="M 449.034545 184.3686 
L 482.007273 184.3686 
Q 482.666727 184.3686 482.666727 183.537 
L 482.666727 148.194 
Q 482.666727 147.3624 482.007273 147.3624 
L 449.034545 147.3624 
Q 448.375091 147.3624 448.375091 148.194 
L 448.375091 183.537 
Q 448.375091 184.3686 449.034545 184.3686 
z
" clip-path="url(#p62c96f8b44)" style="fill: #4c78a8; stroke: #1f1f1f; stroke-width: 1.3; stroke-linejoin: miter"/>
   </g>
   <g id="patch_23">
    <path d="M 518.277273 184.3686 
L 584.222727 184.3686 
Q 584.882182 184.3686 584.882182 183.537 
L 584.882182 148.194 
Q 584.882182 147.3624 584.222727 147.3624 
L 518.277273 147.3624 
Q 517.617818 147.3624 517.617818 148.194 
L 517.617818 183.537 
Q 517.617818 184.3686 518.277273 184.3686 
z
" clip-path="url(#p62c96f8b44)" style="fill: #c7e5c0; stroke: #1f1f1f; stroke-width: 1.3; stroke-linejoin: miter"/>
   </g>
   <g id="patch_24">
    <path d="M 613.898182 184.3686 
L 646.870909 184.3686 
Q 647.530364 184.3686 647.530364 183.537 
L 647.530364 148.194 
Q 647.530364 147.3624 646.870909 147.3624 
L 613.898182 147.3624 
Q 613.238727 147.3624 613.238727 148.194 
L 613.238727 183.537 
Q 613.238727 184.3686 613.898182 184.3686 
z
" clip-path="url(#p62c96f8b44)" style="fill: #4c78a8; stroke: #1f1f1f; stroke-width: 1.3; stroke-linejoin: miter"/>
   </g>
   <g id="patch_25">
    <path d="M 663.357273 286.2396 
L 716.113636 286.2396 
Q 716.773091 286.2396 716.773091 285.408 
L 716.773091 247.986 
Q 716.773091 247.1544 716.113636 247.1544 
L 663.357273 247.1544 
Q 662.697818 247.1544 662.697818 247.986 
L 662.697818 285.408 
Q 662.697818 286.2396 663.357273 286.2396 
z
" clip-path="url(#p62c96f8b44)" style="fill: #ffffff; stroke: #1f1f1f; stroke-width: 1.3; stroke-linejoin: miter"/>
   </g>
   <g id="patch_26">
    <path d="M 448.42325 116.640632 
Q 458.101631 132.600817 466.968402 147.222611 
" clip-path="url(#p62c96f8b44)" style="fill: none; stroke: #444444; stroke-width: 1.4; stroke-linecap: round"/>
    <path d="M 466.53167 141.873848 
L 466.968402 147.222611 
L 462.427352 144.362738 
z
" clip-path="url(#p62c96f8b44)" style="fill: #444444; stroke: #444444; stroke-width: 1.4; stroke-linecap: round"/>
   </g>
   <g id="patch_27">
    <path d="M 505.271822 116.295486 
Q 487.775899 132.602992 471.424977 147.843272 
" clip-path="url(#p62c96f8b44)" style="fill: none; stroke: #444444; stroke-width: 1.4; stroke-linecap: round"/>
    <path d="M 476.572629 146.326141 
L 471.424977 147.843272 
L 473.299864 142.814872 
z
" clip-path="url(#p62c96f8b44)" style="fill: #444444; stroke: #444444; stroke-width: 1.4; stroke-linecap: round"/>
   </g>
   <g id="patch_28">
    <path d="M 487.308991 164.826 
Q 505.088515 164.826 521.302792 164.826 
" clip-path="url(#p62c96f8b44)" style="fill: none; stroke: #444444; stroke-width: 1.4; stroke-linecap: round"/>
    <path d="M 516.502792 162.426 
L 521.302792 164.826 
L 516.502792 167.226 
z
" clip-path="url(#p62c96f8b44)" style="fill: #444444; stroke: #444444; stroke-width: 1.4; stroke-linecap: round"/>
   </g>
   <g id="patch_29">
    <path d="M 579.63142 164.826 
Q 592.465964 164.826 603.735261 164.826 
" clip-path="url(#p62c96f8b44)" style="fill: none; stroke: #444444; stroke-width: 1.4; stroke-linecap: round"/>
    <path d="M 598.935261 162.426 
L 603.735261 164.826 
L 598.935261 167.226 
z
" clip-path="url(#p62c96f8b44)" style="fill: #444444; stroke: #444444; stroke-width: 1.4; stroke-linecap: round"/>
   </g>
   <g id="patch_30">
    <path d="M 692.950114 115.933082 
Q 664.182345 132.601063 636.768918 148.484341 
" clip-path="url(#p62c96f8b44)" style="fill: none; stroke: #444444; stroke-width: 1.4; stroke-linecap: round"/>
    <path d="M 642.125341 148.154583 
L 636.768918 148.484341 
L 639.718966 144.001349 
z
" clip-path="url(#p62c96f8b44)" style="fill: #444444; stroke: #444444; stroke-width: 1.4; stroke-linecap: round"/>
   </g>
   <g id="patch_31">
    <path d="M 641.362105 178.985127 
Q 661.709637 210.565553 681.209399 240.830196 
" clip-path="url(#p62c96f8b44)" style="fill: none; stroke: #444444; stroke-width: 1.4; stroke-linecap: round"/>
    <path d="M 680.627116 235.495316 
L 681.209399 240.830196 
L 676.592125 238.095095 
z
" clip-path="url(#p62c96f8b44)" style="fill: #444444; stroke: #444444; stroke-width: 1.4; stroke-linecap: round"/>
   </g>
   <g id="text_10">
    <!-- HBM -->
    <g style="fill: #7a5a2a" transform="translate(416.061818 71.271) scale(0.09 -0.09)">
     <use xlink:href="#DejaVuSans-Bold-48"/>
     <use xlink:href="#DejaVuSans-Bold-42" x="83.691406"/>
     <use xlink:href="#DejaVuSans-Bold-4d" x="159.912109"/>
    </g>
   </g>
   <g id="text_11">
    <!-- HBM -->
    <g style="fill: #7a5a2a" transform="translate(416.061818 245.907) scale(0.09 -0.09)">
     <use xlink:href="#DejaVuSans-Bold-48"/>
     <use xlink:href="#DejaVuSans-Bold-42" x="83.691406"/>
     <use xlink:href="#DejaVuSans-Bold-4d" x="159.912109"/>
    </g>
   </g>
   <g id="text_12">
    <!-- LX scratchpad -->
    <g style="fill: #3a6b33" transform="translate(416.061818 137.799) scale(0.09 -0.09)">
     <defs>
      <path id="DejaVuSans-Bold-4c" d="M 588 4666 
L 1791 4666 
L 1791 909 
L 3903 909 
L 3903 0 
L 588 0 
L 588 4666 
z
" transform="scale(0.015625)"/>
      <path id="DejaVuSans-Bold-58" d="M 3188 2381 
L 4806 0 
L 3553 0 
L 2463 1594 
L 1381 0 
L 122 0 
L 1741 2381 
L 184 4666 
L 1441 4666 
L 2463 3163 
L 3481 4666 
L 4744 4666 
L 3188 2381 
z
" transform="scale(0.015625)"/>
      <path id="DejaVuSans-Bold-20" transform="scale(0.015625)"/>
      <path id="DejaVuSans-Bold-73" d="M 3272 3391 
L 3272 2541 
Q 2913 2691 2578 2766 
Q 2244 2841 1947 2841 
Q 1628 2841 1473 2761 
Q 1319 2681 1319 2516 
Q 1319 2381 1436 2309 
Q 1553 2238 1856 2203 
L 2053 2175 
Q 2913 2066 3209 1816 
Q 3506 1566 3506 1031 
Q 3506 472 3093 190 
Q 2681 -91 1863 -91 
Q 1516 -91 1145 -36 
Q 775 19 384 128 
L 384 978 
Q 719 816 1070 734 
Q 1422 653 1784 653 
Q 2113 653 2278 743 
Q 2444 834 2444 1013 
Q 2444 1163 2330 1236 
Q 2216 1309 1875 1350 
L 1678 1375 
Q 931 1469 631 1722 
Q 331 1975 331 2491 
Q 331 3047 712 3315 
Q 1094 3584 1881 3584 
Q 2191 3584 2531 3537 
Q 2872 3491 3272 3391 
z
" transform="scale(0.015625)"/>
      <path id="DejaVuSans-Bold-63" d="M 3366 3391 
L 3366 2478 
Q 3138 2634 2908 2709 
Q 2678 2784 2431 2784 
Q 1963 2784 1702 2511 
Q 1441 2238 1441 1747 
Q 1441 1256 1702 982 
Q 1963 709 2431 709 
Q 2694 709 2930 787 
Q 3166 866 3366 1019 
L 3366 103 
Q 3103 6 2833 -42 
Q 2563 -91 2291 -91 
Q 1344 -91 809 395 
Q 275 881 275 1747 
Q 275 2613 809 3098 
Q 1344 3584 2291 3584 
Q 2566 3584 2833 3536 
Q 3100 3488 3366 3391 
z
" transform="scale(0.015625)"/>
      <path id="DejaVuSans-Bold-72" d="M 3138 2547 
Q 2991 2616 2845 2648 
Q 2700 2681 2553 2681 
Q 2122 2681 1889 2404 
Q 1656 2128 1656 1613 
L 1656 0 
L 538 0 
L 538 3500 
L 1656 3500 
L 1656 2925 
Q 1872 3269 2151 3426 
Q 2431 3584 2822 3584 
Q 2878 3584 2943 3579 
Q 3009 3575 3134 3559 
L 3138 2547 
z
" transform="scale(0.015625)"/>
      <path id="DejaVuSans-Bold-61" d="M 2106 1575 
Q 1756 1575 1579 1456 
Q 1403 1338 1403 1106 
Q 1403 894 1545 773 
Q 1688 653 1941 653 
Q 2256 653 2472 879 
Q 2688 1106 2688 1447 
L 2688 1575 
L 2106 1575 
z
M 3816 1997 
L 3816 0 
L 2688 0 
L 2688 519 
Q 2463 200 2181 54 
Q 1900 -91 1497 -91 
Q 953 -91 614 226 
Q 275 544 275 1050 
Q 275 1666 698 1953 
Q 1122 2241 2028 2241 
L 2688 2241 
L 2688 2328 
Q 2688 2594 2478 2717 
Q 2269 2841 1825 2841 
Q 1466 2841 1156 2769 
Q 847 2697 581 2553 
L 581 3406 
Q 941 3494 1303 3539 
Q 1666 3584 2028 3584 
Q 2975 3584 3395 3211 
Q 3816 2838 3816 1997 
z
" transform="scale(0.015625)"/>
      <path id="DejaVuSans-Bold-74" d="M 1759 4494 
L 1759 3500 
L 2913 3500 
L 2913 2700 
L 1759 2700 
L 1759 1216 
Q 1759 972 1856 886 
Q 1953 800 2241 800 
L 2816 800 
L 2816 0 
L 1856 0 
Q 1194 0 917 276 
Q 641 553 641 1216 
L 641 2700 
L 84 2700 
L 84 3500 
L 641 3500 
L 641 4494 
L 1759 4494 
z
" transform="scale(0.015625)"/>
      <path id="DejaVuSans-Bold-68" d="M 4056 2131 
L 4056 0 
L 2931 0 
L 2931 347 
L 2931 1625 
Q 2931 2084 2911 2256 
Q 2891 2428 2841 2509 
Q 2775 2619 2662 2680 
Q 2550 2741 2406 2741 
Q 2056 2741 1856 2470 
Q 1656 2200 1656 1722 
L 1656 0 
L 538 0 
L 538 4863 
L 1656 4863 
L 1656 2988 
Q 1909 3294 2193 3439 
Q 2478 3584 2822 3584 
Q 3428 3584 3742 3212 
Q 4056 2841 4056 2131 
z
" transform="scale(0.015625)"/>
      <path id="DejaVuSans-Bold-70" d="M 1656 506 
L 1656 -1331 
L 538 -1331 
L 538 3500 
L 1656 3500 
L 1656 2988 
Q 1888 3294 2169 3439 
Q 2450 3584 2816 3584 
Q 3463 3584 3878 3070 
Q 4294 2556 4294 1747 
Q 4294 938 3878 423 
Q 3463 -91 2816 -91 
Q 2450 -91 2169 54 
Q 1888 200 1656 506 
z
M 2400 2772 
Q 2041 2772 1848 2508 
Q 1656 2244 1656 1747 
Q 1656 1250 1848 986 
Q 2041 722 2400 722 
Q 2759 722 2948 984 
Q 3138 1247 3138 1747 
Q 3138 2247 2948 2509 
Q 2759 2772 2400 2772 
z
" transform="scale(0.015625)"/>
      <path id="DejaVuSans-Bold-64" d="M 2919 2988 
L 2919 4863 
L 4044 4863 
L 4044 0 
L 2919 0 
L 2919 506 
Q 2688 197 2409 53 
Q 2131 -91 1766 -91 
Q 1119 -91 703 423 
Q 288 938 288 1747 
Q 288 2556 703 3070 
Q 1119 3584 1766 3584 
Q 2128 3584 2408 3439 
Q 2688 3294 2919 2988 
z
M 2181 722 
Q 2541 722 2730 984 
Q 2919 1247 2919 1747 
Q 2919 2247 2730 2509 
Q 2541 2772 2181 2772 
Q 1825 2772 1636 2509 
Q 1447 2247 1447 1747 
Q 1447 1247 1636 984 
Q 1825 722 2181 722 
z
" transform="scale(0.015625)"/>
     </defs>
     <use xlink:href="#DejaVuSans-Bold-4c"/>
     <use xlink:href="#DejaVuSans-Bold-58" x="63.720703"/>
     <use xlink:href="#DejaVuSans-Bold-20" x="140.820312"/>
     <use xlink:href="#DejaVuSans-Bold-73" x="175.634766"/>
     <use xlink:href="#DejaVuSans-Bold-63" x="235.15625"/>
     <use xlink:href="#DejaVuSans-Bold-72" x="294.433594"/>
     <use xlink:href="#DejaVuSans-Bold-61" x="343.75"/>
     <use xlink:href="#DejaVuSans-Bold-74" x="411.230469"/>
     <use xlink:href="#DejaVuSans-Bold-63" x="459.033203"/>
     <use xlink:href="#DejaVuSans-Bold-68" x="518.310547"/>
     <use xlink:href="#DejaVuSans-Bold-70" x="589.501953"/>
     <use xlink:href="#DejaVuSans-Bold-61" x="661.083984"/>
     <use xlink:href="#DejaVuSans-Bold-64" x="728.564453"/>
    </g>
   </g>
   <g id="text_13">
    <!-- a tile -->
    <g style="fill: #1f1f1f" transform="translate(433.892702 98.840406) scale(0.095 -0.095)">
     <defs>
      <path id="DejaVuSans-65" d="M 3597 1894 
L 3597 1613 
L 953 1613 
Q 991 1019 1311 708 
Q 1631 397 2203 397 
Q 2534 397 2845 478 
Q 3156 559 3463 722 
L 3463 178 
Q 3153 47 2828 -22 
Q 2503 -91 2169 -91 
Q 1331 -91 842 396 
Q 353 884 353 1716 
Q 353 2575 817 3079 
Q 1281 3584 2069 3584 
Q 2775 3584 3186 3129 
Q 3597 2675 3597 1894 
z
M 3022 2063 
Q 3016 2534 2758 2815 
Q 2500 3097 2075 3097 
Q 1594 3097 1305 2825 
Q 1016 2553 972 2059 
L 3022 2063 
z
" transform="scale(0.015625)"/>
     </defs>
     <use xlink:href="#DejaVuSans-61"/>
     <use xlink:href="#DejaVuSans-20" x="61.279297"/>
     <use xlink:href="#DejaVuSans-74" x="93.066406"/>
     <use xlink:href="#DejaVuSans-69" x="132.275391"/>
     <use xlink:href="#DejaVuSans-6c" x="160.058594"/>
     <use xlink:href="#DejaVuSans-65" x="187.841797"/>
    </g>
   </g>
   <g id="text_14">
    <!-- b tile -->
    <g style="fill: #1f1f1f" transform="translate(496.436236 98.840406) scale(0.095 -0.095)">
     <use xlink:href="#DejaVuSans-62"/>
     <use xlink:href="#DejaVuSans-20" x="63.476562"/>
     <use xlink:href="#DejaVuSans-74" x="95.263672"/>
     <use xlink:href="#DejaVuSans-69" x="134.472656"/>
     <use xlink:href="#DejaVuSans-6c" x="162.255859"/>
     <use xlink:href="#DejaVuSans-65" x="190.039062"/>
    </g>
   </g>
   <g id="text_15">
    <!-- c tile -->
    <g style="fill: #1f1f1f" transform="translate(678.189986 98.840406) scale(0.095 -0.095)">
     <use xlink:href="#DejaVuSans-63"/>
     <use xlink:href="#DejaVuSans-20" x="54.980469"/>
     <use xlink:href="#DejaVuSans-74" x="86.767578"/>
     <use xlink:href="#DejaVuSans-69" x="125.976562"/>
     <use xlink:href="#DejaVuSans-6c" x="153.759766"/>
     <use xlink:href="#DejaVuSans-65" x="181.542969"/>
    </g>
   </g>
   <g id="text_16">
    <!-- + -->
    <g style="fill: #1f1f1f" transform="translate(461.540558 168.486906) scale(0.095 -0.095)">
     <use xlink:href="#DejaVuSans-2b"/>
    </g>
   </g>
   <g id="text_17">
    <!-- y tile  (LX) -->
    <g style="fill: #1f1f1f" transform="translate(526.878789 168.486906) scale(0.095 -0.095)">
     <defs>
      <path id="DejaVuSans-58" d="M 403 4666 
L 1081 4666 
L 2241 2931 
L 3406 4666 
L 4084 4666 
L 2584 2425 
L 4184 0 
L 3506 0 
L 2194 1984 
L 872 0 
L 191 0 
L 1856 2491 
L 403 4666 
z
" transform="scale(0.015625)"/>
     </defs>
     <use xlink:href="#DejaVuSans-79"/>
     <use xlink:href="#DejaVuSans-20" x="59.179688"/>
     <use xlink:href="#DejaVuSans-74" x="90.966797"/>
     <use xlink:href="#DejaVuSans-69" x="130.175781"/>
     <use xlink:href="#DejaVuSans-6c" x="157.958984"/>
     <use xlink:href="#DejaVuSans-65" x="185.742188"/>
     <use xlink:href="#DejaVuSans-20" x="247.265625"/>
     <use xlink:href="#DejaVuSans-20" x="279.052734"/>
     <use xlink:href="#DejaVuSans-28" x="310.839844"/>
     <use xlink:href="#DejaVuSans-4c" x="349.853516"/>
     <use xlink:href="#DejaVuSans-58" x="405.566406"/>
     <use xlink:href="#DejaVuSans-29" x="474.072266"/>
    </g>
   </g>
   <g id="text_18">
    <!-- × -->
    <g style="fill: #1f1f1f" transform="translate(626.404194 168.486906) scale(0.095 -0.095)">
     <use xlink:href="#DejaVuSans-d7"/>
    </g>
   </g>
   <g id="text_19">
    <!-- z tile -->
    <g style="fill: #1f1f1f" transform="translate(678.308736 269.318406) scale(0.095 -0.095)">
     <use xlink:href="#DejaVuSans-7a"/>
     <use xlink:href="#DejaVuSans-20" x="52.490234"/>
     <use xlink:href="#DejaVuSans-74" x="84.277344"/>
     <use xlink:href="#DejaVuSans-69" x="123.486328"/>
     <use xlink:href="#DejaVuSans-6c" x="151.269531"/>
     <use xlink:href="#DejaVuSans-65" x="179.052734"/>
    </g>
   </g>
   <g id="text_20">
    <!-- With WSR — tiles stream through LX -->
    <g transform="translate(467.341598 44.56) scale(0.11 -0.11)">
     <defs>
      <path id="DejaVuSans-72" d="M 2631 2963 
Q 2534 3019 2420 3045 
Q 2306 3072 2169 3072 
Q 1681 3072 1420 2755 
Q 1159 2438 1159 1844 
L 1159 0 
L 581 0 
L 581 3500 
L 1159 3500 
L 1159 2956 
Q 1341 3275 1631 3429 
Q 1922 3584 2338 3584 
Q 2397 3584 2469 3576 
Q 2541 3569 2628 3553 
L 2631 2963 
z
" transform="scale(0.015625)"/>
      <path id="DejaVuSans-6d" d="M 3328 2828 
Q 3544 3216 3844 3400 
Q 4144 3584 4550 3584 
Q 5097 3584 5394 3201 
Q 5691 2819 5691 2113 
L 5691 0 
L 5113 0 
L 5113 2094 
Q 5113 2597 4934 2840 
Q 4756 3084 4391 3084 
Q 3944 3084 3684 2787 
Q 3425 2491 3425 1978 
L 3425 0 
L 2847 0 
L 2847 2094 
Q 2847 2600 2669 2842 
Q 2491 3084 2119 3084 
Q 1678 3084 1418 2786 
Q 1159 2488 1159 1978 
L 1159 0 
L 581 0 
L 581 3500 
L 1159 3500 
L 1159 2956 
Q 1356 3278 1631 3431 
Q 1906 3584 2284 3584 
Q 2666 3584 2933 3390 
Q 3200 3197 3328 2828 
z
" transform="scale(0.015625)"/>
      <path id="DejaVuSans-67" d="M 2906 1791 
Q 2906 2416 2648 2759 
Q 2391 3103 1925 3103 
Q 1463 3103 1205 2759 
Q 947 2416 947 1791 
Q 947 1169 1205 825 
Q 1463 481 1925 481 
Q 2391 481 2648 825 
Q 2906 1169 2906 1791 
z
M 3481 434 
Q 3481 -459 3084 -895 
Q 2688 -1331 1869 -1331 
Q 1566 -1331 1297 -1286 
Q 1028 -1241 775 -1147 
L 775 -588 
Q 1028 -725 1275 -790 
Q 1522 -856 1778 -856 
Q 2344 -856 2625 -561 
Q 2906 -266 2906 331 
L 2906 616 
Q 2728 306 2450 153 
Q 2172 0 1784 0 
Q 1141 0 747 490 
Q 353 981 353 1791 
Q 353 2603 747 3093 
Q 1141 3584 1784 3584 
Q 2172 3584 2450 3431 
Q 2728 3278 2906 2969 
L 2906 3500 
L 3481 3500 
L 3481 434 
z
" transform="scale(0.015625)"/>
     </defs>
     <use xlink:href="#DejaVuSans-57"/>
     <use xlink:href="#DejaVuSans-69" x="96.626953"/>
     <use xlink:href="#DejaVuSans-74" x="124.410156"/>
     <use xlink:href="#DejaVuSans-68" x="163.619141"/>
     <use xlink:href="#DejaVuSans-20" x="226.998047"/>
     <use xlink:href="#DejaVuSans-57" x="258.785156"/>
     <use xlink:href="#DejaVuSans-53" x="357.662109"/>
     <use xlink:href="#DejaVuSans-52" x="421.138672"/>
     <use xlink:href="#DejaVuSans-20" x="490.621094"/>
     <use xlink:href="#DejaVuSans-2014" x="522.408203"/>
     <use xlink:href="#DejaVuSans-20" x="622.408203"/>
     <use xlink:href="#DejaVuSans-74" x="654.195312"/>
     <use xlink:href="#DejaVuSans-69" x="693.404297"/>
     <use xlink:href="#DejaVuSans-6c" x="721.1875"/>
     <use xlink:href="#DejaVuSans-65" x="748.970703"/>
     <use xlink:href="#DejaVuSans-73" x="810.494141"/>
     <use xlink:href="#DejaVuSans-20" x="862.59375"/>
     <use xlink:href="#DejaVuSans-73" x="894.380859"/>
     <use xlink:href="#DejaVuSans-74" x="946.480469"/>
     <use xlink:href="#DejaVuSans-72" x="985.689453"/>
     <use xlink:href="#DejaVuSans-65" x="1024.552734"/>
     <use xlink:href="#DejaVuSans-61" x="1086.076172"/>
     <use xlink:href="#DejaVuSans-6d" x="1147.355469"/>
     <use xlink:href="#DejaVuSans-20" x="1244.767578"/>
     <use xlink:href="#DejaVuSans-74" x="1276.554688"/>
     <use xlink:href="#DejaVuSans-68" x="1315.763672"/>
     <use xlink:href="#DejaVuSans-72" x="1379.142578"/>
     <use xlink:href="#DejaVuSans-6f" x="1418.005859"/>
     <use xlink:href="#DejaVuSans-75" x="1479.1875"/>
     <use xlink:href="#DejaVuSans-67" x="1542.566406"/>
     <use xlink:href="#DejaVuSans-68" x="1606.042969"/>
     <use xlink:href="#DejaVuSans-20" x="1669.421875"/>
     <use xlink:href="#DejaVuSans-4c" x="1701.208984"/>
     <use xlink:href="#DejaVuSans-58" x="1756.921875"/>
    </g>
   </g>
  </g>
  <g id="text_21">
   <!-- Memory access pattern for  y = a + b;  z = y * c -->
   <g transform="translate(213.539062 16.318125) scale(0.12 -0.12)">
    <defs>
     <path id="DejaVuSans-6e" d="M 3513 2113 
L 3513 0 
L 2938 0 
L 2938 2094 
Q 2938 2591 2744 2837 
Q 2550 3084 2163 3084 
Q 1697 3084 1428 2787 
Q 1159 2491 1159 1978 
L 1159 0 
L 581 0 
L 581 3500 
L 1159 3500 
L 1159 2956 
Q 1366 3272 1645 3428 
Q 1925 3584 2291 3584 
Q 2894 3584 3203 3211 
Q 3513 2838 3513 2113 
z
" transform="scale(0.015625)"/>
     <path id="DejaVuSans-66" d="M 2375 4863 
L 2375 4384 
L 1825 4384 
Q 1516 4384 1395 4259 
Q 1275 4134 1275 3809 
L 1275 3500 
L 2222 3500 
L 2222 3053 
L 1275 3053 
L 1275 0 
L 697 0 
L 697 3053 
L 147 3053 
L 147 3500 
L 697 3500 
L 697 3744 
Q 697 4328 969 4595 
Q 1241 4863 1831 4863 
L 2375 4863 
z
" transform="scale(0.015625)"/>
     <path id="DejaVuSans-3d" d="M 678 2906 
L 4684 2906 
L 4684 2381 
L 678 2381 
L 678 2906 
z
M 678 1631 
L 4684 1631 
L 4684 1100 
L 678 1100 
L 678 1631 
z
" transform="scale(0.015625)"/>
     <path id="DejaVuSans-3b" d="M 750 3309 
L 1409 3309 
L 1409 2516 
L 750 2516 
L 750 3309 
z
M 750 794 
L 1409 794 
L 1409 256 
L 897 -744 
L 494 -744 
L 750 256 
L 750 794 
z
" transform="scale(0.015625)"/>
     <path id="DejaVuSans-2a" d="M 3009 3897 
L 1888 3291 
L 3009 2681 
L 2828 2375 
L 1778 3009 
L 1778 1831 
L 1422 1831 
L 1422 3009 
L 372 2375 
L 191 2681 
L 1313 3291 
L 191 3897 
L 372 4206 
L 1422 3572 
L 1422 4750 
L 1778 4750 
L 1778 3572 
L 2828 4206 
L 3009 3897 
z
" transform="scale(0.015625)"/>
    </defs>
    <use xlink:href="#DejaVuSans-4d"/>
    <use xlink:href="#DejaVuSans-65" x="86.279297"/>
    <use xlink:href="#DejaVuSans-6d" x="147.802734"/>
    <use xlink:href="#DejaVuSans-6f" x="245.214844"/>
    <use xlink:href="#DejaVuSans-72" x="306.396484"/>
    <use xlink:href="#DejaVuSans-79" x="347.509766"/>
    <use xlink:href="#DejaVuSans-20" x="406.689453"/>
    <use xlink:href="#DejaVuSans-61" x="438.476562"/>
    <use xlink:href="#DejaVuSans-63" x="499.755859"/>
    <use xlink:href="#DejaVuSans-63" x="554.736328"/>
    <use xlink:href="#DejaVuSans-65" x="609.716797"/>
    <use xlink:href="#DejaVuSans-73" x="671.240234"/>
    <use xlink:href="#DejaVuSans-73" x="723.339844"/>
    <use xlink:href="#DejaVuSans-20" x="775.439453"/>
    <use xlink:href="#DejaVuSans-70" x="807.226562"/>
    <use xlink:href="#DejaVuSans-61" x="870.703125"/>
    <use xlink:href="#DejaVuSans-74" x="931.982422"/>
    <use xlink:href="#DejaVuSans-74" x="971.191406"/>
    <use xlink:href="#DejaVuSans-65" x="1010.400391"/>
    <use xlink:href="#DejaVuSans-72" x="1071.923828"/>
    <use xlink:href="#DejaVuSans-6e" x="1111.287109"/>
    <use xlink:href="#DejaVuSans-20" x="1174.666016"/>
    <use xlink:href="#DejaVuSans-66" x="1206.453125"/>
    <use xlink:href="#DejaVuSans-6f" x="1241.658203"/>
    <use xlink:href="#DejaVuSans-72" x="1302.839844"/>
    <use xlink:href="#DejaVuSans-20" x="1343.953125"/>
    <use xlink:href="#DejaVuSans-20" x="1375.740234"/>
    <use xlink:href="#DejaVuSans-79" x="1407.527344"/>
    <use xlink:href="#DejaVuSans-20" x="1466.707031"/>
    <use xlink:href="#DejaVuSans-3d" x="1498.494141"/>
    <use xlink:href="#DejaVuSans-20" x="1582.283203"/>
    <use xlink:href="#DejaVuSans-61" x="1614.070312"/>
    <use xlink:href="#DejaVuSans-20" x="1675.349609"/>
    <use xlink:href="#DejaVuSans-2b" x="1707.136719"/>
    <use xlink:href="#DejaVuSans-20" x="1790.925781"/>
    <use xlink:href="#DejaVuSans-62" x="1822.712891"/>
    <use xlink:href="#DejaVuSans-3b" x="1886.189453"/>
    <use xlink:href="#DejaVuSans-20" x="1919.880859"/>
    <use xlink:href="#DejaVuSans-20" x="1951.667969"/>
    <use xlink:href="#DejaVuSans-7a" x="1983.455078"/>
    <use xlink:href="#DejaVuSans-20" x="2035.945312"/>
    <use xlink:href="#DejaVuSans-3d" x="2067.732422"/>
    <use xlink:href="#DejaVuSans-20" x="2151.521484"/>
    <use xlink:href="#DejaVuSans-79" x="2183.308594"/>
    <use xlink:href="#DejaVuSans-20" x="2242.488281"/>
    <use xlink:href="#DejaVuSans-2a" x="2274.275391"/>
    <use xlink:href="#DejaVuSans-20" x="2324.275391"/>
    <use xlink:href="#DejaVuSans-63" x="2356.0625"/>
   </g>
  </g>
 </g>
 <defs>
  <clipPath id="p63a1dc56ff">
   <rect x="7.2" y="52.56" width="329.727273" height="249.48"/>
  </clipPath>
  <clipPath id="p62c96f8b44">
   <rect x="402.872727" y="52.56" width="329.727273" height="249.48"/>
  </clipPath>
 </defs>
</svg>
