<?xml version="1.0" encoding="utf-8" standalone="no"?>
<!DOCTYPE svg PUBLIC "-//W3C//DTD SVG 1.1//EN"
  "http://www.w3.org/Graphics/SVG/1.1/DTD/svg11.dtd">
<svg xmlns:xlink="http://www.w3.org/1999/xlink" width="739.8pt" height="231.102125pt" viewBox="0 0 739.8 231.102125" xmlns="http://www.w3.org/2000/svg" version="1.1">
 <metadata>
  <rdf:RDF xmlns:dc="http://purl.org/dc/elements/1.1/" xmlns:cc="http://creativecommons.org/ns#" xmlns:rdf="http://www.w3.org/1999/02/22-rdf-syntax-ns#">
   <cc:Work>
    <dc:type rdf:resource="http://purl.org/dc/dcmitype/StillImage"/>
    <dc:date>2026-06-01T11:29:07.580020</dc:date>
    <dc:format>image/svg+xml</dc:format>
    <dc:creator>
     <cc:Agent>
      <dc:title>Matplotlib v3.9.4, https://matplotlib.org/</dc:title>
     </cc:Agent>
    </dc:creator>
   </cc:Work>
  </rdf:RDF>
 </metadata>
 <defs>
  <style type="text/css">*{stroke-linejoin: round; stroke-linecap: butt}</style>
 </defs>
 <g id="figure_1">
  <g id="patch_1">
   <path d="M 0 231.102125 
L 739.8 231.102125 
L 739.8 0 
L 0 0 
z
" style="fill: #ffffff"/>
  </g>
  <g id="axes_1">
   <g id="patch_2">
    <path d="M 29.998286 155.045645 
L 107.719714 155.045645 
Q 108.756 155.045645 108.756 154.047725 
L 108.756 89.182925 
Q 108.756 88.185005 107.719714 88.185005 
L 29.998286 88.185005 
Q 28.962 88.185005 28.962 89.182925 
L 28.962 154.047725 
Q 28.962 155.045645 29.998286 155.045645 
z
" clip-path="url(#p2cf6b179c3)" style="fill: #bab0ac; stroke: #1f1f1f; stroke-width: 1.2; stroke-linejoin: miter"/>
   </g>
   <g id="patch_3">
    <path d="M 110.239083 121.615325 
Q 111.866468 121.615325 112.37582 121.615325 
" clip-path="url(#p2cf6b179c3)" style="fill: none; stroke: #444444; stroke-linecap: round"/>
    <path d="M 108.37582 119.615325 
L 112.37582 121.615325 
L 108.37582 123.615325 
z
" clip-path="url(#p2cf6b179c3)" style="fill: #444444; stroke: #444444; stroke-linecap: round"/>
   </g>
   <g id="patch_4">
    <path d="M 116.01 155.045645 
L 193.731429 155.045645 
Q 194.767714 155.045645 194.767714 154.047725 
L 194.767714 89.182925 
Q 194.767714 88.185005 193.731429 88.185005 
L 116.01 88.185005 
Q 114.973714 88.185005 114.973714 89.182925 
L 114.973714 154.047725 
Q 114.973714 155.045645 116.01 155.045645 
z
" clip-path="url(#p2cf6b179c3)" style="fill: #bab0ac; stroke: #e45756; stroke-width: 2; stroke-linejoin: miter"/>
   </g>
   <g id="patch_5">
    <path d="M 196.250797 121.615325 
Q 197.878182 121.615325 198.387534 121.615325 
" clip-path="url(#p2cf6b179c3)" style="fill: none; stroke: #444444; stroke-linecap: round"/>
    <path d="M 194.387534 119.615325 
L 198.387534 121.615325 
L 194.387534 123.615325 
z
" clip-path="url(#p2cf6b179c3)" style="fill: #444444; stroke: #444444; stroke-linecap: round"/>
   </g>
   <g id="patch_6">
    <path d="M 202.021714 155.045645 
L 279.743143 155.045645 
Q 280.779429 155.045645 280.779429 154.047725 
L 280.779429 89.182925 
Q 280.779429 88.185005 279.743143 88.185005 
L 202.021714 88.185005 
Q 200.985429 88.185005 200.985429 89.182925 
L 200.985429 154.047725 
Q 200.985429 155.045645 202.021714 155.045645 
z
" clip-path="url(#p2cf6b179c3)" style="fill: #bab0ac; stroke: #1f1f1f; stroke-width: 1.2; stroke-linejoin: miter"/>
   </g>
   <g id="patch_7">
    <path d="M 282.262511 121.615325 
Q 283.889897 121.615325 284.399248 121.615325 
" clip-path="url(#p2cf6b179c3)" style="fill: none; stroke: #444444; stroke-linecap: round"/>
    <path d="M 280.399248 119.615325 
L 284.399248 121.615325 
L 280.399248 123.615325 
z
" clip-path="url(#p2cf6b179c3)" style="fill: #444444; stroke: #444444; stroke-linecap: round"/>
   </g>
   <g id="patch_8">
    <path d="M 288.033429 155.045645 
L 365.754857 155.045645 
Q 366.791143 155.045645 366.791143 154.047725 
L 366.791143 89.182925 
Q 366.791143 88.185005 365.754857 88.185005 
L 288.033429 88.185005 
Q 286.997143 88.185005 286.997143 89.182925 
L 286.997143 154.047725 
Q 286.997143 155.045645 288.033429 155.045645 
z
" clip-path="url(#p2cf6b179c3)" style="fill: #c7e5c0; stroke: #e45756; stroke-width: 2; stroke-linejoin: miter"/>
   </g>
   <g id="patch_9">
    <path d="M 368.274226 121.615325 
Q 369.901611 121.615325 370.410962 121.615325 
" clip-path="url(#p2cf6b179c3)" style="fill: none; stroke: #444444; stroke-linecap: round"/>
    <path d="M 366.410962 119.615325 
L 370.410962 121.615325 
L 366.410962 123.615325 
z
" clip-path="url(#p2cf6b179c3)" style="fill: #444444; stroke: #444444; stroke-linecap: round"/>
   </g>
   <g id="patch_10">
    <path d="M 374.045143 155.045645 
L 451.766571 155.045645 
Q 452.802857 155.045645 452.802857 154.047725 
L 452.802857 89.182925 
Q 452.802857 88.185005 451.766571 88.185005 
L 374.045143 88.185005 
Q 373.008857 88.185005 373.008857 89.182925 
L 373.008857 154.047725 
Q 373.008857 155.045645 374.045143 155.045645 
z
" clip-path="url(#p2cf6b179c3)" style="fill: #c7e5c0; stroke: #e45756; stroke-width: 2; stroke-linejoin: miter"/>
   </g>
   <g id="patch_11">
    <path d="M 454.28594 121.615325 
Q 455.913325 121.615325 456.422677 121.615325 
" clip-path="url(#p2cf6b179c3)" style="fill: none; stroke: #444444; stroke-linecap: round"/>
    <path d="M 452.422677 119.615325 
L 456.422677 121.615325 
L 452.422677 123.615325 
z
" clip-path="url(#p2cf6b179c3)" style="fill: #444444; stroke: #444444; stroke-linecap: round"/>
   </g>
   <g id="patch_12">
    <path d="M 460.056857 155.045645 
L 537.778286 155.045645 
Q 538.814571 155.045645 538.814571 154.047725 
L 538.814571 89.182925 
Q 538.814571 88.185005 537.778286 88.185005 
L 460.056857 88.185005 
Q 459.020571 88.185005 459.020571 89.182925 
L 459.020571 154.047725 
Q 459.020571 155.045645 460.056857 155.045645 
z
" clip-path="url(#p2cf6b179c3)" style="fill: #bab0ac; stroke: #1f1f1f; stroke-width: 1.2; stroke-linejoin: miter"/>
   </g>
   <g id="patch_13">
    <path d="M 540.297654 121.615325 
Q 541.92504 121.615325 542.434391 121.615325 
" clip-path="url(#p2cf6b179c3)" style="fill: none; stroke: #444444; stroke-linecap: round"/>
    <path d="M 538.434391 119.615325 
L 542.434391 121.615325 
L 538.434391 123.615325 
z
" clip-path="url(#p2cf6b179c3)" style="fill: #444444; stroke: #444444; stroke-linecap: round"/>
   </g>
   <g id="patch_14">
    <path d="M 546.068571 155.045645 
L 623.79 155.045645 
Q 624.826286 155.045645 624.826286 154.047725 
L 624.826286 89.182925 
Q 624.826286 88.185005 623.79 88.185005 
L 546.068571 88.185005 
Q 545.032286 88.185005 545.032286 89.182925 
L 545.032286 154.047725 
Q 545.032286 155.045645 546.068571 155.045645 
z
" clip-path="url(#p2cf6b179c3)" style="fill: #bab0ac; stroke: #1f1f1f; stroke-width: 1.2; stroke-linejoin: miter"/>
   </g>
   <g id="patch_15">
    <path d="M 626.309368 121.615325 
Q 627.936754 121.615325 628.446105 121.615325 
" clip-path="url(#p2cf6b179c3)" style="fill: none; stroke: #444444; stroke-linecap: round"/>
    <path d="M 624.446105 119.615325 
L 628.446105 121.615325 
L 624.446105 123.615325 
z
" clip-path="url(#p2cf6b179c3)" style="fill: #444444; stroke: #444444; stroke-linecap: round"/>
   </g>
   <g id="patch_16">
    <path d="M 632.080286 155.045645 
L 709.801714 155.045645 
Q 710.838 155.045645 710.838 154.047725 
L 710.838 89.182925 
Q 710.838 88.185005 709.801714 88.185005 
L 632.080286 88.185005 
Q 631.044 88.185005 631.044 89.182925 
L 631.044 154.047725 
Q 631.044 155.045645 632.080286 155.045645 
z
" clip-path="url(#p2cf6b179c3)" style="fill: #bab0ac; stroke: #1f1f1f; stroke-width: 1.2; stroke-linejoin: miter"/>
   </g>
   <g id="text_1">
    <!-- FX graph -->
    <g style="fill: #1f1f1f" transform="translate(49.711422 119.08352) scale(0.085 -0.085)">
     <defs>
      <path id="DejaVuSans-46" d="M 628 4666 
L 3309 4666 
L 3309 4134 
L 1259 4134 
L 1259 2759 
L 3109 2759 
L 3109 2228 
L 1259 2228 
L 1259 0 
L 628 0 
L 628 4666 
z
" transform="scale(0.015625)"/>
      <path id="DejaVuSans-58" d="M 403 4666 
L 1081 4666 
L 2241 2931 
L 3406 4666 
L 4084 4666 
L 2584 2425 
L 4184 0 
L 3506 0 
L 2194 1984 
L 872 0 
L 191 0 
L 1856 2491 
L 403 4666 
z
" transform="scale(0.015625)"/>
      <path id="DejaVuSans-20" transform="scale(0.015625)"/>
      <path id="DejaVuSans-67" d="M 2906 1791 
Q 2906 2416 2648 2759 
Q 2391 3103 1925 3103 
Q 1463 3103 1205 2759 
Q 947 2416 947 1791 
Q 947 1169 1205 825 
Q 1463 481 1925 481 
Q 2391 481 2648 825 
Q 2906 1169 2906 1791 
z
M 3481 434 
Q 3481 -459 3084 -895 
Q 2688 -1331 1869 -1331 
Q 1566 -1331 1297 -1286 
Q 1028 -1241 775 -1147 
L 775 -588 
Q 1028 -725 1275 -790 
Q 1522 -856 1778 -856 
Q 2344 -856 2625 -561 
Q 2906 -266 2906 331 
L 2906 616 
Q 2728 306 2450 153 
Q 2172 0 1784 0 
Q 1141 0 747 490 
Q 353 981 353 1791 
Q 353 2603 747 3093 
Q 1141 3584 1784 3584 
Q 2172 3584 2450 3431 
Q 2728 3278 2906 2969 
L 2906 3500 
L 3481 3500 
L 3481 434 
z
" transform="scale(0.015625)"/>
      <path id="DejaVuSans-72" d="M 2631 2963 
Q 2534 3019 2420 3045 
Q 2306 3072 2169 3072 
Q 1681 3072 1420 2755 
Q 1159 2438 1159 1844 
L 1159 0 
L 581 0 
L 581 3500 
L 1159 3500 
L 1159 2956 
Q 1341 3275 1631 3429 
Q 1922 3584 2338 3584 
Q 2397 3584 2469 3576 
Q 2541 3569 2628 3553 
L 2631 2963 
z
" transform="scale(0.015625)"/>
      <path id="DejaVuSans-61" d="M 2194 1759 
Q 1497 1759 1228 1600 
Q 959 1441 959 1056 
Q 959 750 1161 570 
Q 1363 391 1709 391 
Q 2188 391 2477 730 
Q 2766 1069 2766 1631 
L 2766 1759 
L 2194 1759 
z
M 3341 1997 
L 3341 0 
L 2766 0 
L 2766 531 
Q 2569 213 2275 61 
Q 1981 -91 1556 -91 
Q 1019 -91 701 211 
Q 384 513 384 1019 
Q 384 1609 779 1909 
Q 1175 2209 1959 2209 
L 2766 2209 
L 2766 2266 
Q 2766 2663 2505 2880 
Q 2244 3097 1772 3097 
Q 1472 3097 1187 3025 
Q 903 2953 641 2809 
L 641 3341 
Q 956 3463 1253 3523 
Q 1550 3584 1831 3584 
Q 2591 3584 2966 3190 
Q 3341 2797 3341 1997 
z
" transform="scale(0.015625)"/>
      <path id="DejaVuSans-70" d="M 1159 525 
L 1159 -1331 
L 581 -1331 
L 581 3500 
L 1159 3500 
L 1159 2969 
Q 1341 3281 1617 3432 
Q 1894 3584 2278 3584 
Q 2916 3584 3314 3078 
Q 3713 2572 3713 1747 
Q 3713 922 3314 415 
Q 2916 -91 2278 -91 
Q 1894 -91 1617 61 
Q 1341 213 1159 525 
z
M 3116 1747 
Q 3116 2381 2855 2742 
Q 2594 3103 2138 3103 
Q 1681 3103 1420 2742 
Q 1159 2381 1159 1747 
Q 1159 1113 1420 752 
Q 1681 391 2138 391 
Q 2594 391 2855 752 
Q 3116 1113 3116 1747 
z
" transform="scale(0.015625)"/>
      <path id="DejaVuSans-68" d="M 3513 2113 
L 3513 0 
L 2938 0 
L 2938 2094 
Q 2938 2591 2744 2837 
Q 2550 3084 2163 3084 
Q 1697 3084 1428 2787 
Q 1159 2491 1159 1978 
L 1159 0 
L 581 0 
L 581 4863 
L 1159 4863 
L 1159 2956 
Q 1366 3272 1645 3428 
Q 1925 3584 2291 3584 
Q 2894 3584 3203 3211 
Q 3513 2838 3513 2113 
z
" transform="scale(0.015625)"/>
     </defs>
     <use xlink:href="#DejaVuSans-46"/>
     <use xlink:href="#DejaVuSans-58" x="57.519531"/>
     <use xlink:href="#DejaVuSans-20" x="126.025391"/>
     <use xlink:href="#DejaVuSans-67" x="157.8125"/>
     <use xlink:href="#DejaVuSans-72" x="221.289062"/>
     <use xlink:href="#DejaVuSans-61" x="262.402344"/>
     <use xlink:href="#DejaVuSans-70" x="323.681641"/>
     <use xlink:href="#DejaVuSans-68" x="387.158203"/>
    </g>
    <!-- (spyre_hint) -->
    <g style="fill: #1f1f1f" transform="translate(43.48982 128.601661) scale(0.085 -0.085)">
     <defs>
      <path id="DejaVuSans-28" d="M 1984 4856 
Q 1566 4138 1362 3434 
Q 1159 2731 1159 2009 
Q 1159 1288 1364 580 
Q 1569 -128 1984 -844 
L 1484 -844 
Q 1016 -109 783 600 
Q 550 1309 550 2009 
Q 550 2706 781 3412 
Q 1013 4119 1484 4856 
L 1984 4856 
z
" transform="scale(0.015625)"/>
      <path id="DejaVuSans-73" d="M 2834 3397 
L 2834 2853 
Q 2591 2978 2328 3040 
Q 2066 3103 1784 3103 
Q 1356 3103 1142 2972 
Q 928 2841 928 2578 
Q 928 2378 1081 2264 
Q 1234 2150 1697 2047 
L 1894 2003 
Q 2506 1872 2764 1633 
Q 3022 1394 3022 966 
Q 3022 478 2636 193 
Q 2250 -91 1575 -91 
Q 1294 -91 989 -36 
Q 684 19 347 128 
L 347 722 
Q 666 556 975 473 
Q 1284 391 1588 391 
Q 1994 391 2212 530 
Q 2431 669 2431 922 
Q 2431 1156 2273 1281 
Q 2116 1406 1581 1522 
L 1381 1569 
Q 847 1681 609 1914 
Q 372 2147 372 2553 
Q 372 3047 722 3315 
Q 1072 3584 1716 3584 
Q 2034 3584 2315 3537 
Q 2597 3491 2834 3397 
z
" transform="scale(0.015625)"/>
      <path id="DejaVuSans-79" d="M 2059 -325 
Q 1816 -950 1584 -1140 
Q 1353 -1331 966 -1331 
L 506 -1331 
L 506 -850 
L 844 -850 
Q 1081 -850 1212 -737 
Q 1344 -625 1503 -206 
L 1606 56 
L 191 3500 
L 800 3500 
L 1894 763 
L 2988 3500 
L 3597 3500 
L 2059 -325 
z
" transform="scale(0.015625)"/>
      <path id="DejaVuSans-65" d="M 3597 1894 
L 3597 1613 
L 953 1613 
Q 991 1019 1311 708 
Q 1631 397 2203 397 
Q 2534 397 2845 478 
Q 3156 559 3463 722 
L 3463 178 
Q 3153 47 2828 -22 
Q 2503 -91 2169 -91 
Q 1331 -91 842 396 
Q 353 884 353 1716 
Q 353 2575 817 3079 
Q 1281 3584 2069 3584 
Q 2775 3584 3186 3129 
Q 3597 2675 3597 1894 
z
M 3022 2063 
Q 3016 2534 2758 2815 
Q 2500 3097 2075 3097 
Q 1594 3097 1305 2825 
Q 1016 2553 972 2059 
L 3022 2063 
z
" transform="scale(0.015625)"/>
      <path id="DejaVuSans-5f" d="M 3263 -1063 
L 3263 -1509 
L -63 -1509 
L -63 -1063 
L 3263 -1063 
z
" transform="scale(0.015625)"/>
      <path id="DejaVuSans-69" d="M 603 3500 
L 1178 3500 
L 1178 0 
L 603 0 
L 603 3500 
z
M 603 4863 
L 1178 4863 
L 1178 4134 
L 603 4134 
L 603 4863 
z
" transform="scale(0.015625)"/>
      <path id="DejaVuSans-6e" d="M 3513 2113 
L 3513 0 
L 2938 0 
L 2938 2094 
Q 2938 2591 2744 2837 
Q 2550 3084 2163 3084 
Q 1697 3084 1428 2787 
Q 1159 2491 1159 1978 
L 1159 0 
L 581 0 
L 581 3500 
L 1159 3500 
L 1159 2956 
Q 1366 3272 1645 3428 
Q 1925 3584 2291 3584 
Q 2894 3584 3203 3211 
Q 3513 2838 3513 2113 
z
" transform="scale(0.015625)"/>
      <path id="DejaVuSans-74" d="M 1172 4494 
L 1172 3500 
L 2356 3500 
L 2356 3053 
L 1172 3053 
L 1172 1153 
Q 1172 725 1289 603 
Q 1406 481 1766 481 
L 2356 481 
L 2356 0 
L 1766 0 
Q 1100 0 847 248 
Q 594 497 594 1153 
L 594 3053 
L 172 3053 
L 172 3500 
L 594 3500 
L 594 4494 
L 1172 4494 
z
" transform="scale(0.015625)"/>
      <path id="DejaVuSans-29" d="M 513 4856 
L 1013 4856 
Q 1481 4119 1714 3412 
Q 1947 2706 1947 2009 
Q 1947 1309 1714 600 
Q 1481 -109 1013 -844 
L 513 -844 
Q 928 -128 1133 580 
Q 1338 1288 1338 2009 
Q 1338 2731 1133 3434 
Q 928 4138 513 4856 
z
" transform="scale(0.015625)"/>
     </defs>
     <use xlink:href="#DejaVuSans-28"/>
     <use xlink:href="#DejaVuSans-73" x="39.013672"/>
     <use xlink:href="#DejaVuSans-70" x="91.113281"/>
     <use xlink:href="#DejaVuSans-79" x="154.589844"/>
     <use xlink:href="#DejaVuSans-72" x="213.769531"/>
     <use xlink:href="#DejaVuSans-65" x="252.632812"/>
     <use xlink:href="#DejaVuSans-5f" x="314.15625"/>
     <use xlink:href="#DejaVuSans-68" x="364.15625"/>
     <use xlink:href="#DejaVuSans-69" x="427.535156"/>
     <use xlink:href="#DejaVuSans-6e" x="455.318359"/>
     <use xlink:href="#DejaVuSans-74" x="518.697266"/>
     <use xlink:href="#DejaVuSans-29" x="557.90625"/>
    </g>
   </g>
   <g id="text_2">
    <!-- AOT -->
    <g style="fill: #1f1f1f" transform="translate(146.096456 114.442653) scale(0.085 -0.085)">
     <defs>
      <path id="DejaVuSans-41" d="M 2188 4044 
L 1331 1722 
L 3047 1722 
L 2188 4044 
z
M 1831 4666 
L 2547 4666 
L 4325 0 
L 3669 0 
L 3244 1197 
L 1141 1197 
L 716 0 
L 50 0 
L 1831 4666 
z
" transform="scale(0.015625)"/>
      <path id="DejaVuSans-4f" d="M 2522 4238 
Q 1834 4238 1429 3725 
Q 1025 3213 1025 2328 
Q 1025 1447 1429 934 
Q 1834 422 2522 422 
Q 3209 422 3611 934 
Q 4013 1447 4013 2328 
Q 4013 3213 3611 3725 
Q 3209 4238 2522 4238 
z
M 2522 4750 
Q 3503 4750 4090 4092 
Q 4678 3434 4678 2328 
Q 4678 1225 4090 567 
Q 3503 -91 2522 -91 
Q 1538 -91 948 565 
Q 359 1222 359 2328 
Q 359 3434 948 4092 
Q 1538 4750 2522 4750 
z
" transform="scale(0.015625)"/>
      <path id="DejaVuSans-54" d="M -19 4666 
L 3928 4666 
L 3928 4134 
L 2272 4134 
L 2272 0 
L 1638 0 
L 1638 4134 
L -19 4134 
L -19 4666 
z
" transform="scale(0.015625)"/>
     </defs>
     <use xlink:href="#DejaVuSans-41"/>
     <use xlink:href="#DejaVuSans-4f" x="66.658203"/>
     <use xlink:href="#DejaVuSans-54" x="145.369141"/>
    </g>
    <!-- pre/post passes -->
    <g style="fill: #1f1f1f" transform="translate(121.385363 123.960794) scale(0.085 -0.085)">
     <defs>
      <path id="DejaVuSans-2f" d="M 1625 4666 
L 2156 4666 
L 531 -594 
L 0 -594 
L 1625 4666 
z
" transform="scale(0.015625)"/>
      <path id="DejaVuSans-6f" d="M 1959 3097 
Q 1497 3097 1228 2736 
Q 959 2375 959 1747 
Q 959 1119 1226 758 
Q 1494 397 1959 397 
Q 2419 397 2687 759 
Q 2956 1122 2956 1747 
Q 2956 2369 2687 2733 
Q 2419 3097 1959 3097 
z
M 1959 3584 
Q 2709 3584 3137 3096 
Q 3566 2609 3566 1747 
Q 3566 888 3137 398 
Q 2709 -91 1959 -91 
Q 1206 -91 779 398 
Q 353 888 353 1747 
Q 353 2609 779 3096 
Q 1206 3584 1959 3584 
z
" transform="scale(0.015625)"/>
     </defs>
     <use xlink:href="#DejaVuSans-70"/>
     <use xlink:href="#DejaVuSans-72" x="63.476562"/>
     <use xlink:href="#DejaVuSans-65" x="102.339844"/>
     <use xlink:href="#DejaVuSans-2f" x="163.863281"/>
     <use xlink:href="#DejaVuSans-70" x="197.554688"/>
     <use xlink:href="#DejaVuSans-6f" x="261.03125"/>
     <use xlink:href="#DejaVuSans-73" x="322.212891"/>
     <use xlink:href="#DejaVuSans-74" x="374.3125"/>
     <use xlink:href="#DejaVuSans-20" x="413.521484"/>
     <use xlink:href="#DejaVuSans-70" x="445.308594"/>
     <use xlink:href="#DejaVuSans-61" x="508.785156"/>
     <use xlink:href="#DejaVuSans-73" x="570.064453"/>
     <use xlink:href="#DejaVuSans-73" x="622.164062"/>
     <use xlink:href="#DejaVuSans-65" x="674.263672"/>
     <use xlink:href="#DejaVuSans-73" x="735.787109"/>
    </g>
    <!-- (collect/recover) -->
    <g style="fill: #1f1f1f" transform="translate(120.124308 133.478934) scale(0.085 -0.085)">
     <defs>
      <path id="DejaVuSans-63" d="M 3122 3366 
L 3122 2828 
Q 2878 2963 2633 3030 
Q 2388 3097 2138 3097 
Q 1578 3097 1268 2742 
Q 959 2388 959 1747 
Q 959 1106 1268 751 
Q 1578 397 2138 397 
Q 2388 397 2633 464 
Q 2878 531 3122 666 
L 3122 134 
Q 2881 22 2623 -34 
Q 2366 -91 2075 -91 
Q 1284 -91 818 406 
Q 353 903 353 1747 
Q 353 2603 823 3093 
Q 1294 3584 2113 3584 
Q 2378 3584 2631 3529 
Q 2884 3475 3122 3366 
z
" transform="scale(0.015625)"/>
      <path id="DejaVuSans-6c" d="M 603 4863 
L 1178 4863 
L 1178 0 
L 603 0 
L 603 4863 
z
" transform="scale(0.015625)"/>
      <path id="DejaVuSans-76" d="M 191 3500 
L 800 3500 
L 1894 563 
L 2988 3500 
L 3597 3500 
L 2284 0 
L 1503 0 
L 191 3500 
z
" transform="scale(0.015625)"/>
     </defs>
     <use xlink:href="#DejaVuSans-28"/>
     <use xlink:href="#DejaVuSans-63" x="39.013672"/>
     <use xlink:href="#DejaVuSans-6f" x="93.994141"/>
     <use xlink:href="#DejaVuSans-6c" x="155.175781"/>
     <use xlink:href="#DejaVuSans-6c" x="182.958984"/>
     <use xlink:href="#DejaVuSans-65" x="210.742188"/>
     <use xlink:href="#DejaVuSans-63" x="272.265625"/>
     <use xlink:href="#DejaVuSans-74" x="327.246094"/>
     <use xlink:href="#DejaVuSans-2f" x="366.455078"/>
     <use xlink:href="#DejaVuSans-72" x="400.146484"/>
     <use xlink:href="#DejaVuSans-65" x="439.009766"/>
     <use xlink:href="#DejaVuSans-63" x="500.533203"/>
     <use xlink:href="#DejaVuSans-6f" x="555.513672"/>
     <use xlink:href="#DejaVuSans-76" x="616.695312"/>
     <use xlink:href="#DejaVuSans-65" x="675.875"/>
     <use xlink:href="#DejaVuSans-72" x="737.398438"/>
     <use xlink:href="#DejaVuSans-29" x="778.511719"/>
    </g>
   </g>
   <g id="text_3">
    <!-- Inductor lowering -->
    <g style="fill: #1f1f1f" transform="translate(203.6511 119.201723) scale(0.085 -0.085)">
     <defs>
      <path id="DejaVuSans-49" d="M 628 4666 
L 1259 4666 
L 1259 0 
L 628 0 
L 628 4666 
z
" transform="scale(0.015625)"/>
      <path id="DejaVuSans-64" d="M 2906 2969 
L 2906 4863 
L 3481 4863 
L 3481 0 
L 2906 0 
L 2906 525 
Q 2725 213 2448 61 
Q 2172 -91 1784 -91 
Q 1150 -91 751 415 
Q 353 922 353 1747 
Q 353 2572 751 3078 
Q 1150 3584 1784 3584 
Q 2172 3584 2448 3432 
Q 2725 3281 2906 2969 
z
M 947 1747 
Q 947 1113 1208 752 
Q 1469 391 1925 391 
Q 2381 391 2643 752 
Q 2906 1113 2906 1747 
Q 2906 2381 2643 2742 
Q 2381 3103 1925 3103 
Q 1469 3103 1208 2742 
Q 947 2381 947 1747 
z
" transform="scale(0.015625)"/>
      <path id="DejaVuSans-75" d="M 544 1381 
L 544 3500 
L 1119 3500 
L 1119 1403 
Q 1119 906 1312 657 
Q 1506 409 1894 409 
Q 2359 409 2629 706 
Q 2900 1003 2900 1516 
L 2900 3500 
L 3475 3500 
L 3475 0 
L 2900 0 
L 2900 538 
Q 2691 219 2414 64 
Q 2138 -91 1772 -91 
Q 1169 -91 856 284 
Q 544 659 544 1381 
z
M 1991 3584 
L 1991 3584 
z
" transform="scale(0.015625)"/>
      <path id="DejaVuSans-77" d="M 269 3500 
L 844 3500 
L 1563 769 
L 2278 3500 
L 2956 3500 
L 3675 769 
L 4391 3500 
L 4966 3500 
L 4050 0 
L 3372 0 
L 2619 2869 
L 1863 0 
L 1184 0 
L 269 3500 
z
" transform="scale(0.015625)"/>
     </defs>
     <use xlink:href="#DejaVuSans-49"/>
     <use xlink:href="#DejaVuSans-6e" x="29.492188"/>
     <use xlink:href="#DejaVuSans-64" x="92.871094"/>
     <use xlink:href="#DejaVuSans-75" x="156.347656"/>
     <use xlink:href="#DejaVuSans-63" x="219.726562"/>
     <use xlink:href="#DejaVuSans-74" x="274.707031"/>
     <use xlink:href="#DejaVuSans-6f" x="313.916016"/>
     <use xlink:href="#DejaVuSans-72" x="375.097656"/>
     <use xlink:href="#DejaVuSans-20" x="416.210938"/>
     <use xlink:href="#DejaVuSans-6c" x="447.998047"/>
     <use xlink:href="#DejaVuSans-6f" x="475.78125"/>
     <use xlink:href="#DejaVuSans-77" x="536.962891"/>
     <use xlink:href="#DejaVuSans-65" x="618.75"/>
     <use xlink:href="#DejaVuSans-72" x="680.273438"/>
     <use xlink:href="#DejaVuSans-69" x="721.386719"/>
     <use xlink:href="#DejaVuSans-6e" x="749.169922"/>
     <use xlink:href="#DejaVuSans-67" x="812.548828"/>
    </g>
    <!-- → ComputedBuffer -->
    <g style="fill: #1f1f1f" transform="translate(200.92778 128.719864) scale(0.085 -0.085)">
     <defs>
      <path id="DejaVuSans-2192" d="M 5050 2147 
L 5050 1866 
L 3822 638 
L 3447 1013 
L 4175 1741 
L 366 1741 
L 366 2272 
L 4175 2272 
L 3447 3000 
L 3822 3375 
L 5050 2147 
z
" transform="scale(0.015625)"/>
      <path id="DejaVuSans-43" d="M 4122 4306 
L 4122 3641 
Q 3803 3938 3442 4084 
Q 3081 4231 2675 4231 
Q 1875 4231 1450 3742 
Q 1025 3253 1025 2328 
Q 1025 1406 1450 917 
Q 1875 428 2675 428 
Q 3081 428 3442 575 
Q 3803 722 4122 1019 
L 4122 359 
Q 3791 134 3420 21 
Q 3050 -91 2638 -91 
Q 1578 -91 968 557 
Q 359 1206 359 2328 
Q 359 3453 968 4101 
Q 1578 4750 2638 4750 
Q 3056 4750 3426 4639 
Q 3797 4528 4122 4306 
z
" transform="scale(0.015625)"/>
      <path id="DejaVuSans-6d" d="M 3328 2828 
Q 3544 3216 3844 3400 
Q 4144 3584 4550 3584 
Q 5097 3584 5394 3201 
Q 5691 2819 5691 2113 
L 5691 0 
L 5113 0 
L 5113 2094 
Q 5113 2597 4934 2840 
Q 4756 3084 4391 3084 
Q 3944 3084 3684 2787 
Q 3425 2491 3425 1978 
L 3425 0 
L 2847 0 
L 2847 2094 
Q 2847 2600 2669 2842 
Q 2491 3084 2119 3084 
Q 1678 3084 1418 2786 
Q 1159 2488 1159 1978 
L 1159 0 
L 581 0 
L 581 3500 
L 1159 3500 
L 1159 2956 
Q 1356 3278 1631 3431 
Q 1906 3584 2284 3584 
Q 2666 3584 2933 3390 
Q 3200 3197 3328 2828 
z
" transform="scale(0.015625)"/>
      <path id="DejaVuSans-42" d="M 1259 2228 
L 1259 519 
L 2272 519 
Q 2781 519 3026 730 
Q 3272 941 3272 1375 
Q 3272 1813 3026 2020 
Q 2781 2228 2272 2228 
L 1259 2228 
z
M 1259 4147 
L 1259 2741 
L 2194 2741 
Q 2656 2741 2882 2914 
Q 3109 3088 3109 3444 
Q 3109 3797 2882 3972 
Q 2656 4147 2194 4147 
L 1259 4147 
z
M 628 4666 
L 2241 4666 
Q 2963 4666 3353 4366 
Q 3744 4066 3744 3513 
Q 3744 3084 3544 2831 
Q 3344 2578 2956 2516 
Q 3422 2416 3680 2098 
Q 3938 1781 3938 1306 
Q 3938 681 3513 340 
Q 3088 0 2303 0 
L 628 0 
L 628 4666 
z
" transform="scale(0.015625)"/>
      <path id="DejaVuSans-66" d="M 2375 4863 
L 2375 4384 
L 1825 4384 
Q 1516 4384 1395 4259 
Q 1275 4134 1275 3809 
L 1275 3500 
L 2222 3500 
L 2222 3053 
L 1275 3053 
L 1275 0 
L 697 0 
L 697 3053 
L 147 3053 
L 147 3500 
L 697 3500 
L 697 3744 
Q 697 4328 969 4595 
Q 1241 4863 1831 4863 
L 2375 4863 
z
" transform="scale(0.015625)"/>
     </defs>
     <use xlink:href="#DejaVuSans-2192"/>
     <use xlink:href="#DejaVuSans-20" x="83.789062"/>
     <use xlink:href="#DejaVuSans-43" x="115.576172"/>
     <use xlink:href="#DejaVuSans-6f" x="185.400391"/>
     <use xlink:href="#DejaVuSans-6d" x="246.582031"/>
     <use xlink:href="#DejaVuSans-70" x="343.994141"/>
     <use xlink:href="#DejaVuSans-75" x="407.470703"/>
     <use xlink:href="#DejaVuSans-74" x="470.849609"/>
     <use xlink:href="#DejaVuSans-65" x="510.058594"/>
     <use xlink:href="#DejaVuSans-64" x="571.582031"/>
     <use xlink:href="#DejaVuSans-42" x="635.058594"/>
     <use xlink:href="#DejaVuSans-75" x="703.662109"/>
     <use xlink:href="#DejaVuSans-66" x="767.041016"/>
     <use xlink:href="#DejaVuSans-66" x="802.246094"/>
     <use xlink:href="#DejaVuSans-65" x="837.451172"/>
     <use xlink:href="#DejaVuSans-72" x="898.974609"/>
    </g>
   </g>
   <g id="text_4">
    <!-- propagate -->
    <g style="fill: #1f1f1f" transform="translate(305.057776 119.08352) scale(0.085 -0.085)">
     <use xlink:href="#DejaVuSans-70"/>
     <use xlink:href="#DejaVuSans-72" x="63.476562"/>
     <use xlink:href="#DejaVuSans-6f" x="102.339844"/>
     <use xlink:href="#DejaVuSans-70" x="163.521484"/>
     <use xlink:href="#DejaVuSans-61" x="226.998047"/>
     <use xlink:href="#DejaVuSans-67" x="288.277344"/>
     <use xlink:href="#DejaVuSans-61" x="351.753906"/>
     <use xlink:href="#DejaVuSans-74" x="413.033203"/>
     <use xlink:href="#DejaVuSans-65" x="452.242188"/>
    </g>
    <!-- _named_dims -->
    <g style="fill: #1f1f1f" transform="translate(297.660783 128.601661) scale(0.085 -0.085)">
     <use xlink:href="#DejaVuSans-5f"/>
     <use xlink:href="#DejaVuSans-6e" x="50"/>
     <use xlink:href="#DejaVuSans-61" x="113.378906"/>
     <use xlink:href="#DejaVuSans-6d" x="174.658203"/>
     <use xlink:href="#DejaVuSans-65" x="272.070312"/>
     <use xlink:href="#DejaVuSans-64" x="333.59375"/>
     <use xlink:href="#DejaVuSans-5f" x="397.070312"/>
     <use xlink:href="#DejaVuSans-64" x="447.070312"/>
     <use xlink:href="#DejaVuSans-69" x="510.546875"/>
     <use xlink:href="#DejaVuSans-6d" x="538.330078"/>
     <use xlink:href="#DejaVuSans-73" x="635.742188"/>
    </g>
   </g>
   <g id="text_5">
    <!-- coarse_tile -->
    <g style="fill: #1f1f1f" transform="translate(390.020271 119.08352) scale(0.085 -0.085)">
     <use xlink:href="#DejaVuSans-63"/>
     <use xlink:href="#DejaVuSans-6f" x="54.980469"/>
     <use xlink:href="#DejaVuSans-61" x="116.162109"/>
     <use xlink:href="#DejaVuSans-72" x="177.441406"/>
     <use xlink:href="#DejaVuSans-73" x="218.554688"/>
     <use xlink:href="#DejaVuSans-65" x="270.654297"/>
     <use xlink:href="#DejaVuSans-5f" x="332.177734"/>
     <use xlink:href="#DejaVuSans-74" x="382.177734"/>
     <use xlink:href="#DejaVuSans-69" x="421.386719"/>
     <use xlink:href="#DejaVuSans-6c" x="449.169922"/>
     <use xlink:href="#DejaVuSans-65" x="476.953125"/>
    </g>
    <!-- (rewrite ranges) -->
    <g style="fill: #1f1f1f" transform="translate(378.715271 128.838067) scale(0.085 -0.085)">
     <use xlink:href="#DejaVuSans-28"/>
     <use xlink:href="#DejaVuSans-72" x="39.013672"/>
     <use xlink:href="#DejaVuSans-65" x="77.876953"/>
     <use xlink:href="#DejaVuSans-77" x="139.400391"/>
     <use xlink:href="#DejaVuSans-72" x="221.1875"/>
     <use xlink:href="#DejaVuSans-69" x="262.300781"/>
     <use xlink:href="#DejaVuSans-74" x="290.083984"/>
     <use xlink:href="#DejaVuSans-65" x="329.292969"/>
     <use xlink:href="#DejaVuSans-20" x="390.816406"/>
     <use xlink:href="#DejaVuSans-72" x="422.603516"/>
     <use xlink:href="#DejaVuSans-61" x="463.716797"/>
     <use xlink:href="#DejaVuSans-6e" x="524.996094"/>
     <use xlink:href="#DejaVuSans-67" x="588.375"/>
     <use xlink:href="#DejaVuSans-65" x="651.851562"/>
     <use xlink:href="#DejaVuSans-73" x="713.375"/>
     <use xlink:href="#DejaVuSans-29" x="765.474609"/>
    </g>
   </g>
   <g id="text_6">
    <!-- work_distribution -->
    <g style="fill: #1f1f1f" transform="translate(462.289212 118.965317) scale(0.085 -0.085)">
     <defs>
      <path id="DejaVuSans-6b" d="M 581 4863 
L 1159 4863 
L 1159 1991 
L 2875 3500 
L 3609 3500 
L 1753 1863 
L 3688 0 
L 2938 0 
L 1159 1709 
L 1159 0 
L 581 0 
L 581 4863 
z
" transform="scale(0.015625)"/>
      <path id="DejaVuSans-62" d="M 3116 1747 
Q 3116 2381 2855 2742 
Q 2594 3103 2138 3103 
Q 1681 3103 1420 2742 
Q 1159 2381 1159 1747 
Q 1159 1113 1420 752 
Q 1681 391 2138 391 
Q 2594 391 2855 752 
Q 3116 1113 3116 1747 
z
M 1159 2969 
Q 1341 3281 1617 3432 
Q 1894 3584 2278 3584 
Q 2916 3584 3314 3078 
Q 3713 2572 3713 1747 
Q 3713 922 3314 415 
Q 2916 -91 2278 -91 
Q 1894 -91 1617 61 
Q 1341 213 1159 525 
L 1159 0 
L 581 0 
L 581 4863 
L 1159 4863 
L 1159 2969 
z
" transform="scale(0.015625)"/>
     </defs>
     <use xlink:href="#DejaVuSans-77"/>
     <use xlink:href="#DejaVuSans-6f" x="81.787109"/>
     <use xlink:href="#DejaVuSans-72" x="142.96875"/>
     <use xlink:href="#DejaVuSans-6b" x="184.082031"/>
     <use xlink:href="#DejaVuSans-5f" x="241.992188"/>
     <use xlink:href="#DejaVuSans-64" x="291.992188"/>
     <use xlink:href="#DejaVuSans-69" x="355.46875"/>
     <use xlink:href="#DejaVuSans-73" x="383.251953"/>
     <use xlink:href="#DejaVuSans-74" x="435.351562"/>
     <use xlink:href="#DejaVuSans-72" x="474.560547"/>
     <use xlink:href="#DejaVuSans-69" x="515.673828"/>
     <use xlink:href="#DejaVuSans-62" x="543.457031"/>
     <use xlink:href="#DejaVuSans-75" x="606.933594"/>
     <use xlink:href="#DejaVuSans-74" x="670.3125"/>
     <use xlink:href="#DejaVuSans-69" x="709.521484"/>
     <use xlink:href="#DejaVuSans-6f" x="737.304688"/>
     <use xlink:href="#DejaVuSans-6e" x="798.486328"/>
    </g>
    <!-- span_reduction -->
    <g style="fill: #1f1f1f" transform="translate(466.446907 128.719864) scale(0.085 -0.085)">
     <use xlink:href="#DejaVuSans-73"/>
     <use xlink:href="#DejaVuSans-70" x="52.099609"/>
     <use xlink:href="#DejaVuSans-61" x="115.576172"/>
     <use xlink:href="#DejaVuSans-6e" x="176.855469"/>
     <use xlink:href="#DejaVuSans-5f" x="240.234375"/>
     <use xlink:href="#DejaVuSans-72" x="290.234375"/>
     <use xlink:href="#DejaVuSans-65" x="329.097656"/>
     <use xlink:href="#DejaVuSans-64" x="390.621094"/>
     <use xlink:href="#DejaVuSans-75" x="454.097656"/>
     <use xlink:href="#DejaVuSans-63" x="517.476562"/>
     <use xlink:href="#DejaVuSans-74" x="572.457031"/>
     <use xlink:href="#DejaVuSans-69" x="611.666016"/>
     <use xlink:href="#DejaVuSans-6f" x="639.449219"/>
     <use xlink:href="#DejaVuSans-6e" x="700.630859"/>
    </g>
   </g>
   <g id="text_7">
    <!-- scratchpad -->
    <g style="fill: #1f1f1f" transform="translate(561.329833 119.08352) scale(0.085 -0.085)">
     <use xlink:href="#DejaVuSans-73"/>
     <use xlink:href="#DejaVuSans-63" x="52.099609"/>
     <use xlink:href="#DejaVuSans-72" x="107.080078"/>
     <use xlink:href="#DejaVuSans-61" x="148.193359"/>
     <use xlink:href="#DejaVuSans-74" x="209.472656"/>
     <use xlink:href="#DejaVuSans-63" x="248.681641"/>
     <use xlink:href="#DejaVuSans-68" x="303.662109"/>
     <use xlink:href="#DejaVuSans-70" x="367.041016"/>
     <use xlink:href="#DejaVuSans-61" x="430.517578"/>
     <use xlink:href="#DejaVuSans-64" x="491.796875"/>
    </g>
    <!-- _planning -->
    <g style="fill: #1f1f1f" transform="translate(564.361942 128.601661) scale(0.085 -0.085)">
     <use xlink:href="#DejaVuSans-5f"/>
     <use xlink:href="#DejaVuSans-70" x="50"/>
     <use xlink:href="#DejaVuSans-6c" x="113.476562"/>
     <use xlink:href="#DejaVuSans-61" x="141.259766"/>
     <use xlink:href="#DejaVuSans-6e" x="202.539062"/>
     <use xlink:href="#DejaVuSans-6e" x="265.917969"/>
     <use xlink:href="#DejaVuSans-69" x="329.296875"/>
     <use xlink:href="#DejaVuSans-6e" x="357.080078"/>
     <use xlink:href="#DejaVuSans-67" x="420.458984"/>
    </g>
   </g>
   <g id="text_8">
    <!-- SuperDSC -->
    <g style="fill: #1f1f1f" transform="translate(649.550883 119.201723) scale(0.085 -0.085)">
     <defs>
      <path id="DejaVuSans-53" d="M 3425 4513 
L 3425 3897 
Q 3066 4069 2747 4153 
Q 2428 4238 2131 4238 
Q 1616 4238 1336 4038 
Q 1056 3838 1056 3469 
Q 1056 3159 1242 3001 
Q 1428 2844 1947 2747 
L 2328 2669 
Q 3034 2534 3370 2195 
Q 3706 1856 3706 1288 
Q 3706 609 3251 259 
Q 2797 -91 1919 -91 
Q 1588 -91 1214 -16 
Q 841 59 441 206 
L 441 856 
Q 825 641 1194 531 
Q 1563 422 1919 422 
Q 2459 422 2753 634 
Q 3047 847 3047 1241 
Q 3047 1584 2836 1778 
Q 2625 1972 2144 2069 
L 1759 2144 
Q 1053 2284 737 2584 
Q 422 2884 422 3419 
Q 422 4038 858 4394 
Q 1294 4750 2059 4750 
Q 2388 4750 2728 4690 
Q 3069 4631 3425 4513 
z
" transform="scale(0.015625)"/>
      <path id="DejaVuSans-44" d="M 1259 4147 
L 1259 519 
L 2022 519 
Q 2988 519 3436 956 
Q 3884 1394 3884 2338 
Q 3884 3275 3436 3711 
Q 2988 4147 2022 4147 
L 1259 4147 
z
M 628 4666 
L 1925 4666 
Q 3281 4666 3915 4102 
Q 4550 3538 4550 2338 
Q 4550 1131 3912 565 
Q 3275 0 1925 0 
L 628 0 
L 628 4666 
z
" transform="scale(0.015625)"/>
     </defs>
     <use xlink:href="#DejaVuSans-53"/>
     <use xlink:href="#DejaVuSans-75" x="63.476562"/>
     <use xlink:href="#DejaVuSans-70" x="126.855469"/>
     <use xlink:href="#DejaVuSans-65" x="190.332031"/>
     <use xlink:href="#DejaVuSans-72" x="251.855469"/>
     <use xlink:href="#DejaVuSans-44" x="292.96875"/>
     <use xlink:href="#DejaVuSans-53" x="369.970703"/>
     <use xlink:href="#DejaVuSans-43" x="433.447266"/>
    </g>
    <!-- codegen -->
    <g style="fill: #1f1f1f" transform="translate(652.68393 128.719864) scale(0.085 -0.085)">
     <use xlink:href="#DejaVuSans-63"/>
     <use xlink:href="#DejaVuSans-6f" x="54.980469"/>
     <use xlink:href="#DejaVuSans-64" x="116.162109"/>
     <use xlink:href="#DejaVuSans-65" x="179.638672"/>
     <use xlink:href="#DejaVuSans-67" x="241.162109"/>
     <use xlink:href="#DejaVuSans-65" x="304.638672"/>
     <use xlink:href="#DejaVuSans-6e" x="366.162109"/>
    </g>
   </g>
   <g id="text_9">
    <!-- rigid slot:  layouts fixed  →  WSR  →  work-division / scratchpad -->
    <g style="fill: #444444" transform="translate(220.608984 188.974925) scale(0.095 -0.095)">
     <defs>
      <path id="DejaVuSans-Oblique-72" d="M 2853 2969 
Q 2766 3016 2653 3041 
Q 2541 3066 2413 3066 
Q 1953 3066 1609 2717 
Q 1266 2369 1153 1784 
L 800 0 
L 225 0 
L 909 3500 
L 1484 3500 
L 1375 2956 
Q 1603 3259 1920 3421 
Q 2238 3584 2597 3584 
Q 2691 3584 2781 3573 
Q 2872 3563 2963 3538 
L 2853 2969 
z
" transform="scale(0.015625)"/>
      <path id="DejaVuSans-Oblique-69" d="M 1172 4863 
L 1747 4863 
L 1606 4134 
L 1031 4134 
L 1172 4863 
z
M 909 3500 
L 1484 3500 
L 800 0 
L 225 0 
L 909 3500 
z
" transform="scale(0.015625)"/>
      <path id="DejaVuSans-Oblique-67" d="M 3816 3500 
L 3219 434 
Q 3047 -456 2561 -893 
Q 2075 -1331 1253 -1331 
Q 950 -1331 690 -1286 
Q 431 -1241 206 -1147 
L 313 -588 
Q 525 -725 762 -790 
Q 1000 -856 1269 -856 
Q 1816 -856 2167 -557 
Q 2519 -259 2631 300 
L 2681 563 
Q 2441 288 2122 144 
Q 1803 0 1434 0 
Q 903 0 598 351 
Q 294 703 294 1319 
Q 294 1803 478 2267 
Q 663 2731 997 3091 
Q 1219 3328 1514 3456 
Q 1809 3584 2131 3584 
Q 2484 3584 2746 3420 
Q 3009 3256 3138 2956 
L 3238 3500 
L 3816 3500 
z
M 2950 2216 
Q 2950 2641 2750 2872 
Q 2550 3103 2181 3103 
Q 1953 3103 1747 3012 
Q 1541 2922 1394 2759 
Q 1156 2491 1023 2127 
Q 891 1763 891 1375 
Q 891 944 1092 712 
Q 1294 481 1672 481 
Q 2219 481 2584 976 
Q 2950 1472 2950 2216 
z
" transform="scale(0.015625)"/>
      <path id="DejaVuSans-Oblique-64" d="M 2675 525 
Q 2444 222 2128 65 
Q 1813 -91 1428 -91 
Q 903 -91 598 267 
Q 294 625 294 1247 
Q 294 1766 478 2236 
Q 663 2706 1013 3078 
Q 1244 3325 1534 3454 
Q 1825 3584 2144 3584 
Q 2481 3584 2739 3421 
Q 2997 3259 3138 2956 
L 3513 4863 
L 4091 4863 
L 3144 0 
L 2566 0 
L 2675 525 
z
M 891 1350 
Q 891 897 1095 644 
Q 1300 391 1663 391 
Q 1931 391 2161 520 
Q 2391 650 2566 903 
Q 2750 1166 2856 1509 
Q 2963 1853 2963 2188 
Q 2963 2622 2758 2865 
Q 2553 3109 2194 3109 
Q 1922 3109 1687 2981 
Q 1453 2853 1288 2613 
Q 1106 2353 998 2009 
Q 891 1666 891 1350 
z
" transform="scale(0.015625)"/>
      <path id="DejaVuSans-Oblique-20" transform="scale(0.015625)"/>
      <path id="DejaVuSans-Oblique-73" d="M 3200 3397 
L 3091 2853 
Q 2863 2978 2609 3040 
Q 2356 3103 2088 3103 
Q 1634 3103 1373 2948 
Q 1113 2794 1113 2528 
Q 1113 2219 1719 2053 
Q 1766 2041 1788 2034 
L 1972 1978 
Q 2547 1819 2739 1644 
Q 2931 1469 2931 1166 
Q 2931 609 2489 259 
Q 2047 -91 1331 -91 
Q 1053 -91 747 -37 
Q 441 16 72 128 
L 184 722 
Q 500 559 806 475 
Q 1113 391 1394 391 
Q 1816 391 2080 572 
Q 2344 753 2344 1031 
Q 2344 1331 1650 1516 
L 1591 1531 
L 1394 1581 
Q 956 1697 753 1886 
Q 550 2075 550 2369 
Q 550 2928 970 3256 
Q 1391 3584 2113 3584 
Q 2397 3584 2667 3537 
Q 2938 3491 3200 3397 
z
" transform="scale(0.015625)"/>
      <path id="DejaVuSans-Oblique-6c" d="M 1172 4863 
L 1747 4863 
L 800 0 
L 225 0 
L 1172 4863 
z
" transform="scale(0.015625)"/>
      <path id="DejaVuSans-Oblique-6f" d="M 1625 -91 
Q 1009 -91 651 289 
Q 294 669 294 1325 
Q 294 1706 417 2101 
Q 541 2497 738 2766 
Q 1047 3184 1428 3384 
Q 1809 3584 2291 3584 
Q 2888 3584 3255 3212 
Q 3622 2841 3622 2241 
Q 3622 1825 3500 1412 
Q 3378 1000 3181 728 
Q 2875 309 2494 109 
Q 2113 -91 1625 -91 
z
M 891 1344 
Q 891 869 1089 633 
Q 1288 397 1691 397 
Q 2269 397 2648 901 
Q 3028 1406 3028 2181 
Q 3028 2634 2825 2865 
Q 2622 3097 2228 3097 
Q 1903 3097 1650 2945 
Q 1397 2794 1197 2484 
Q 1050 2253 970 1956 
Q 891 1659 891 1344 
z
" transform="scale(0.015625)"/>
      <path id="DejaVuSans-Oblique-74" d="M 2706 3500 
L 2619 3053 
L 1472 3053 
L 1100 1153 
Q 1081 1047 1072 975 
Q 1063 903 1063 863 
Q 1063 663 1183 572 
Q 1303 481 1569 481 
L 2150 481 
L 2053 0 
L 1503 0 
Q 991 0 739 200 
Q 488 400 488 806 
Q 488 878 497 964 
Q 506 1050 525 1153 
L 897 3053 
L 409 3053 
L 500 3500 
L 978 3500 
L 1172 4494 
L 1747 4494 
L 1556 3500 
L 2706 3500 
z
" transform="scale(0.015625)"/>
      <path id="DejaVuSans-Oblique-3a" d="M 978 3309 
L 1638 3309 
L 1484 2516 
L 825 2516 
L 978 3309 
z
M 488 794 
L 1147 794 
L 991 0 
L 331 0 
L 488 794 
z
" transform="scale(0.015625)"/>
      <path id="DejaVuSans-Oblique-61" d="M 3438 1997 
L 3047 0 
L 2472 0 
L 2578 531 
Q 2325 219 2001 64 
Q 1678 -91 1281 -91 
Q 834 -91 548 182 
Q 263 456 263 884 
Q 263 1497 752 1853 
Q 1241 2209 2100 2209 
L 2900 2209 
L 2931 2363 
Q 2938 2388 2941 2417 
Q 2944 2447 2944 2509 
Q 2944 2788 2717 2942 
Q 2491 3097 2081 3097 
Q 1800 3097 1504 3025 
Q 1209 2953 897 2809 
L 997 3341 
Q 1322 3463 1633 3523 
Q 1944 3584 2234 3584 
Q 2853 3584 3176 3315 
Q 3500 3047 3500 2534 
Q 3500 2431 3484 2292 
Q 3469 2153 3438 1997 
z
M 2816 1759 
L 2241 1759 
Q 1534 1759 1195 1570 
Q 856 1381 856 984 
Q 856 709 1029 553 
Q 1203 397 1509 397 
Q 1978 397 2328 733 
Q 2678 1069 2791 1631 
L 2816 1759 
z
" transform="scale(0.015625)"/>
      <path id="DejaVuSans-Oblique-79" d="M 1588 -325 
Q 1188 -997 936 -1164 
Q 684 -1331 294 -1331 
L -159 -1331 
L -63 -850 
L 269 -850 
Q 509 -850 678 -719 
Q 847 -588 1056 -206 
L 1234 128 
L 459 3500 
L 1069 3500 
L 1650 819 
L 3256 3500 
L 3859 3500 
L 1588 -325 
z
" transform="scale(0.015625)"/>
      <path id="DejaVuSans-Oblique-75" d="M 428 1388 
L 838 3500 
L 1416 3500 
L 1006 1409 
Q 975 1256 961 1147 
Q 947 1038 947 966 
Q 947 700 1109 554 
Q 1272 409 1569 409 
Q 2031 409 2368 721 
Q 2706 1034 2809 1563 
L 3194 3500 
L 3769 3500 
L 3091 0 
L 2516 0 
L 2631 550 
Q 2388 244 2052 76 
Q 1716 -91 1338 -91 
Q 878 -91 622 161 
Q 366 413 366 863 
Q 366 956 381 1097 
Q 397 1238 428 1388 
z
" transform="scale(0.015625)"/>
      <path id="DejaVuSans-Oblique-66" d="M 3059 4863 
L 2969 4384 
L 2419 4384 
Q 2106 4384 1964 4261 
Q 1822 4138 1753 3809 
L 1691 3500 
L 2638 3500 
L 2553 3053 
L 1606 3053 
L 1013 0 
L 434 0 
L 1031 3053 
L 481 3053 
L 563 3500 
L 1113 3500 
L 1159 3744 
Q 1278 4363 1576 4613 
Q 1875 4863 2516 4863 
L 3059 4863 
z
" transform="scale(0.015625)"/>
      <path id="DejaVuSans-Oblique-78" d="M 3841 3500 
L 2234 1784 
L 3219 0 
L 2559 0 
L 1819 1388 
L 531 0 
L -166 0 
L 1556 1844 
L 641 3500 
L 1300 3500 
L 1972 2234 
L 3144 3500 
L 3841 3500 
z
" transform="scale(0.015625)"/>
      <path id="DejaVuSans-Oblique-65" d="M 3078 2063 
Q 3088 2113 3092 2166 
Q 3097 2219 3097 2272 
Q 3097 2653 2873 2875 
Q 2650 3097 2266 3097 
Q 1838 3097 1509 2826 
Q 1181 2556 1013 2059 
L 3078 2063 
z
M 3578 1613 
L 903 1613 
Q 884 1494 878 1425 
Q 872 1356 872 1306 
Q 872 872 1139 634 
Q 1406 397 1894 397 
Q 2269 397 2603 481 
Q 2938 566 3225 728 
L 3116 159 
Q 2806 34 2476 -28 
Q 2147 -91 1806 -91 
Q 1078 -91 686 257 
Q 294 606 294 1247 
Q 294 1794 489 2264 
Q 684 2734 1063 3103 
Q 1306 3334 1642 3459 
Q 1978 3584 2356 3584 
Q 2950 3584 3301 3228 
Q 3653 2872 3653 2272 
Q 3653 2128 3634 1964 
Q 3616 1800 3578 1613 
z
" transform="scale(0.015625)"/>
      <path id="DejaVuSans-Oblique-2192" d="M 5050 2147 
L 5050 1866 
L 3822 638 
L 3447 1013 
L 4175 1741 
L 366 1741 
L 366 2272 
L 4175 2272 
L 3447 3000 
L 3822 3375 
L 5050 2147 
z
" transform="scale(0.015625)"/>
      <path id="DejaVuSans-Oblique-57" d="M 616 4666 
L 1228 4666 
L 1453 697 
L 3213 4666 
L 3916 4666 
L 4147 697 
L 5888 4666 
L 6528 4666 
L 4453 0 
L 3659 0 
L 3444 3891 
L 1697 0 
L 903 0 
L 616 4666 
z
" transform="scale(0.015625)"/>
      <path id="DejaVuSans-Oblique-53" d="M 3859 4513 
L 3738 3897 
Q 3422 4066 3111 4152 
Q 2800 4238 2509 4238 
Q 1944 4238 1609 3991 
Q 1275 3744 1275 3334 
Q 1275 3109 1398 2989 
Q 1522 2869 2034 2731 
L 2413 2638 
Q 3053 2472 3303 2217 
Q 3553 1963 3553 1503 
Q 3553 797 2998 353 
Q 2444 -91 1538 -91 
Q 1166 -91 791 -17 
Q 416 56 38 206 
L 166 856 
Q 513 641 861 531 
Q 1209 422 1556 422 
Q 2147 422 2503 684 
Q 2859 947 2859 1369 
Q 2859 1650 2717 1795 
Q 2575 1941 2106 2059 
L 1728 2156 
Q 1081 2325 845 2545 
Q 609 2766 609 3163 
Q 609 3859 1145 4304 
Q 1681 4750 2541 4750 
Q 2875 4750 3203 4690 
Q 3531 4631 3859 4513 
z
" transform="scale(0.015625)"/>
      <path id="DejaVuSans-Oblique-52" d="M 1613 4147 
L 1294 2491 
L 2106 2491 
Q 2584 2491 2879 2755 
Q 3175 3019 3175 3444 
Q 3175 3784 2976 3965 
Q 2778 4147 2406 4147 
L 1613 4147 
z
M 2772 2241 
Q 2972 2194 3105 2009 
Q 3238 1825 3413 1275 
L 3809 0 
L 3144 0 
L 2778 1197 
Q 2638 1659 2453 1815 
Q 2269 1972 1888 1972 
L 1191 1972 
L 806 0 
L 172 0 
L 1081 4666 
L 2503 4666 
Q 3150 4666 3495 4373 
Q 3841 4081 3841 3531 
Q 3841 3044 3547 2687 
Q 3253 2331 2772 2241 
z
" transform="scale(0.015625)"/>
      <path id="DejaVuSans-Oblique-77" d="M 544 3500 
L 1113 3500 
L 1259 684 
L 2566 3500 
L 3231 3500 
L 3425 684 
L 4666 3500 
L 5241 3500 
L 3641 0 
L 2969 0 
L 2797 2900 
L 1459 0 
L 781 0 
L 544 3500 
z
" transform="scale(0.015625)"/>
      <path id="DejaVuSans-Oblique-6b" d="M 1172 4863 
L 1747 4863 
L 1197 2028 
L 3169 3500 
L 3916 3500 
L 1716 1825 
L 3322 0 
L 2625 0 
L 1131 1709 
L 800 0 
L 225 0 
L 1172 4863 
z
" transform="scale(0.015625)"/>
      <path id="DejaVuSans-Oblique-2d" d="M 391 2009 
L 2075 2009 
L 1978 1497 
L 288 1497 
L 391 2009 
z
" transform="scale(0.015625)"/>
      <path id="DejaVuSans-Oblique-76" d="M 459 3500 
L 1069 3500 
L 1581 525 
L 3256 3500 
L 3866 3500 
L 1875 0 
L 1100 0 
L 459 3500 
z
" transform="scale(0.015625)"/>
      <path id="DejaVuSans-Oblique-6e" d="M 3566 2113 
L 3156 0 
L 2578 0 
L 2988 2091 
Q 3016 2238 3031 2350 
Q 3047 2463 3047 2528 
Q 3047 2791 2881 2937 
Q 2716 3084 2419 3084 
Q 1956 3084 1622 2776 
Q 1288 2469 1184 1941 
L 800 0 
L 225 0 
L 903 3500 
L 1478 3500 
L 1363 2950 
Q 1603 3253 1940 3418 
Q 2278 3584 2650 3584 
Q 3113 3584 3367 3334 
Q 3622 3084 3622 2631 
Q 3622 2519 3608 2391 
Q 3594 2263 3566 2113 
z
" transform="scale(0.015625)"/>
      <path id="DejaVuSans-Oblique-2f" d="M 2175 4666 
L 2731 4666 
L 84 -594 
L -469 -594 
L 2175 4666 
z
" transform="scale(0.015625)"/>
      <path id="DejaVuSans-Oblique-63" d="M 3431 3366 
L 3316 2797 
Q 3109 2947 2876 3022 
Q 2644 3097 2394 3097 
Q 2119 3097 1870 3000 
Q 1622 2903 1453 2725 
Q 1184 2453 1037 2087 
Q 891 1722 891 1331 
Q 891 859 1127 628 
Q 1363 397 1844 397 
Q 2081 397 2348 469 
Q 2616 541 2906 684 
L 2797 116 
Q 2547 13 2283 -39 
Q 2019 -91 1741 -91 
Q 1044 -91 669 257 
Q 294 606 294 1253 
Q 294 1797 489 2255 
Q 684 2713 1069 3078 
Q 1331 3328 1684 3456 
Q 2038 3584 2456 3584 
Q 2700 3584 2940 3529 
Q 3181 3475 3431 3366 
z
" transform="scale(0.015625)"/>
      <path id="DejaVuSans-Oblique-68" d="M 3566 2113 
L 3156 0 
L 2578 0 
L 2988 2091 
Q 3016 2238 3031 2350 
Q 3047 2463 3047 2528 
Q 3047 2791 2881 2937 
Q 2716 3084 2419 3084 
Q 1956 3084 1617 2771 
Q 1278 2459 1178 1941 
L 800 0 
L 225 0 
L 1172 4863 
L 1747 4863 
L 1375 2950 
Q 1594 3244 1934 3414 
Q 2275 3584 2650 3584 
Q 3113 3584 3367 3334 
Q 3622 3084 3622 2631 
Q 3622 2519 3608 2391 
Q 3594 2263 3566 2113 
z
" transform="scale(0.015625)"/>
      <path id="DejaVuSans-Oblique-70" d="M 3175 2156 
Q 3175 2616 2975 2859 
Q 2775 3103 2400 3103 
Q 2144 3103 1911 2972 
Q 1678 2841 1497 2591 
Q 1319 2344 1212 1994 
Q 1106 1644 1106 1300 
Q 1106 863 1306 627 
Q 1506 391 1875 391 
Q 2147 391 2380 519 
Q 2613 647 2778 891 
Q 2956 1147 3065 1494 
Q 3175 1841 3175 2156 
z
M 1394 2969 
Q 1625 3272 1939 3428 
Q 2253 3584 2638 3584 
Q 3175 3584 3472 3232 
Q 3769 2881 3769 2247 
Q 3769 1728 3584 1258 
Q 3400 788 3053 416 
Q 2822 169 2531 39 
Q 2241 -91 1919 -91 
Q 1547 -91 1294 64 
Q 1041 219 916 525 
L 556 -1331 
L -19 -1331 
L 922 3500 
L 1497 3500 
L 1394 2969 
z
" transform="scale(0.015625)"/>
     </defs>
     <use xlink:href="#DejaVuSans-Oblique-72"/>
     <use xlink:href="#DejaVuSans-Oblique-69" x="41.113281"/>
     <use xlink:href="#DejaVuSans-Oblique-67" x="68.896484"/>
     <use xlink:href="#DejaVuSans-Oblique-69" x="132.373047"/>
     <use xlink:href="#DejaVuSans-Oblique-64" x="160.15625"/>
     <use xlink:href="#DejaVuSans-Oblique-20" x="223.632812"/>
     <use xlink:href="#DejaVuSans-Oblique-73" x="255.419922"/>
     <use xlink:href="#DejaVuSans-Oblique-6c" x="307.519531"/>
     <use xlink:href="#DejaVuSans-Oblique-6f" x="335.302734"/>
     <use xlink:href="#DejaVuSans-Oblique-74" x="396.484375"/>
     <use xlink:href="#DejaVuSans-Oblique-3a" x="435.693359"/>
     <use xlink:href="#DejaVuSans-Oblique-20" x="469.384766"/>
     <use xlink:href="#DejaVuSans-Oblique-20" x="501.171875"/>
     <use xlink:href="#DejaVuSans-Oblique-6c" x="532.958984"/>
     <use xlink:href="#DejaVuSans-Oblique-61" x="560.742188"/>
     <use xlink:href="#DejaVuSans-Oblique-79" x="622.021484"/>
     <use xlink:href="#DejaVuSans-Oblique-6f" x="681.201172"/>
     <use xlink:href="#DejaVuSans-Oblique-75" x="742.382812"/>
     <use xlink:href="#DejaVuSans-Oblique-74" x="805.761719"/>
     <use xlink:href="#DejaVuSans-Oblique-73" x="844.970703"/>
     <use xlink:href="#DejaVuSans-Oblique-20" x="897.070312"/>
     <use xlink:href="#DejaVuSans-Oblique-66" x="928.857422"/>
     <use xlink:href="#DejaVuSans-Oblique-69" x="964.0625"/>
     <use xlink:href="#DejaVuSans-Oblique-78" x="991.845703"/>
     <use xlink:href="#DejaVuSans-Oblique-65" x="1051.025391"/>
     <use xlink:href="#DejaVuSans-Oblique-64" x="1112.548828"/>
     <use xlink:href="#DejaVuSans-Oblique-20" x="1176.025391"/>
     <use xlink:href="#DejaVuSans-Oblique-20" x="1207.8125"/>
     <use xlink:href="#DejaVuSans-Oblique-2192" x="1239.599609"/>
     <use xlink:href="#DejaVuSans-Oblique-20" x="1323.388672"/>
     <use xlink:href="#DejaVuSans-Oblique-20" x="1355.175781"/>
     <use xlink:href="#DejaVuSans-Oblique-57" x="1386.962891"/>
     <use xlink:href="#DejaVuSans-Oblique-53" x="1485.839844"/>
     <use xlink:href="#DejaVuSans-Oblique-52" x="1549.316406"/>
     <use xlink:href="#DejaVuSans-Oblique-20" x="1618.798828"/>
     <use xlink:href="#DejaVuSans-Oblique-20" x="1650.585938"/>
     <use xlink:href="#DejaVuSans-Oblique-2192" x="1682.373047"/>
     <use xlink:href="#DejaVuSans-Oblique-20" x="1766.162109"/>
     <use xlink:href="#DejaVuSans-Oblique-20" x="1797.949219"/>
     <use xlink:href="#DejaVuSans-Oblique-77" x="1829.736328"/>
     <use xlink:href="#DejaVuSans-Oblique-6f" x="1911.523438"/>
     <use xlink:href="#DejaVuSans-Oblique-72" x="1972.705078"/>
     <use xlink:href="#DejaVuSans-Oblique-6b" x="2013.818359"/>
     <use xlink:href="#DejaVuSans-Oblique-2d" x="2071.728516"/>
     <use xlink:href="#DejaVuSans-Oblique-64" x="2107.8125"/>
     <use xlink:href="#DejaVuSans-Oblique-69" x="2171.289062"/>
     <use xlink:href="#DejaVuSans-Oblique-76" x="2199.072266"/>
     <use xlink:href="#DejaVuSans-Oblique-69" x="2258.251953"/>
     <use xlink:href="#DejaVuSans-Oblique-73" x="2286.035156"/>
     <use xlink:href="#DejaVuSans-Oblique-69" x="2338.134766"/>
     <use xlink:href="#DejaVuSans-Oblique-6f" x="2365.917969"/>
     <use xlink:href="#DejaVuSans-Oblique-6e" x="2427.099609"/>
     <use xlink:href="#DejaVuSans-Oblique-20" x="2490.478516"/>
     <use xlink:href="#DejaVuSans-Oblique-2f" x="2522.265625"/>
     <use xlink:href="#DejaVuSans-Oblique-20" x="2555.957031"/>
     <use xlink:href="#DejaVuSans-Oblique-73" x="2587.744141"/>
     <use xlink:href="#DejaVuSans-Oblique-63" x="2639.84375"/>
     <use xlink:href="#DejaVuSans-Oblique-72" x="2694.824219"/>
     <use xlink:href="#DejaVuSans-Oblique-61" x="2735.9375"/>
     <use xlink:href="#DejaVuSans-Oblique-74" x="2797.216797"/>
     <use xlink:href="#DejaVuSans-Oblique-63" x="2836.425781"/>
     <use xlink:href="#DejaVuSans-Oblique-68" x="2891.40625"/>
     <use xlink:href="#DejaVuSans-Oblique-70" x="2954.785156"/>
     <use xlink:href="#DejaVuSans-Oblique-61" x="3018.261719"/>
     <use xlink:href="#DejaVuSans-Oblique-64" x="3079.541016"/>
    </g>
   </g>
   <g id="text_10">
    <!-- Where WSR runs in the Spyre Inductor pipeline -->
    <g transform="translate(228.706875 16.318125) scale(0.12 -0.12)">
     <defs>
      <path id="DejaVuSans-57" d="M 213 4666 
L 850 4666 
L 1831 722 
L 2809 4666 
L 3519 4666 
L 4500 722 
L 5478 4666 
L 6119 4666 
L 4947 0 
L 4153 0 
L 3169 4050 
L 2175 0 
L 1381 0 
L 213 4666 
z
" transform="scale(0.015625)"/>
      <path id="DejaVuSans-52" d="M 2841 2188 
Q 3044 2119 3236 1894 
Q 3428 1669 3622 1275 
L 4263 0 
L 3584 0 
L 2988 1197 
Q 2756 1666 2539 1819 
Q 2322 1972 1947 1972 
L 1259 1972 
L 1259 0 
L 628 0 
L 628 4666 
L 2053 4666 
Q 2853 4666 3247 4331 
Q 3641 3997 3641 3322 
Q 3641 2881 3436 2590 
Q 3231 2300 2841 2188 
z
M 1259 4147 
L 1259 2491 
L 2053 2491 
Q 2509 2491 2742 2702 
Q 2975 2913 2975 3322 
Q 2975 3731 2742 3939 
Q 2509 4147 2053 4147 
L 1259 4147 
z
" transform="scale(0.015625)"/>
     </defs>
     <use xlink:href="#DejaVuSans-57"/>
     <use xlink:href="#DejaVuSans-68" x="98.876953"/>
     <use xlink:href="#DejaVuSans-65" x="162.255859"/>
     <use xlink:href="#DejaVuSans-72" x="223.779297"/>
     <use xlink:href="#DejaVuSans-65" x="262.642578"/>
     <use xlink:href="#DejaVuSans-20" x="324.166016"/>
     <use xlink:href="#DejaVuSans-57" x="355.953125"/>
     <use xlink:href="#DejaVuSans-53" x="454.830078"/>
     <use xlink:href="#DejaVuSans-52" x="518.306641"/>
     <use xlink:href="#DejaVuSans-20" x="587.789062"/>
     <use xlink:href="#DejaVuSans-72" x="619.576172"/>
     <use xlink:href="#DejaVuSans-75" x="660.689453"/>
     <use xlink:href="#DejaVuSans-6e" x="724.068359"/>
     <use xlink:href="#DejaVuSans-73" x="787.447266"/>
     <use xlink:href="#DejaVuSans-20" x="839.546875"/>
     <use xlink:href="#DejaVuSans-69" x="871.333984"/>
     <use xlink:href="#DejaVuSans-6e" x="899.117188"/>
     <use xlink:href="#DejaVuSans-20" x="962.496094"/>
     <use xlink:href="#DejaVuSans-74" x="994.283203"/>
     <use xlink:href="#DejaVuSans-68" x="1033.492188"/>
     <use xlink:href="#DejaVuSans-65" x="1096.871094"/>
     <use xlink:href="#DejaVuSans-20" x="1158.394531"/>
     <use xlink:href="#DejaVuSans-53" x="1190.181641"/>
     <use xlink:href="#DejaVuSans-70" x="1253.658203"/>
     <use xlink:href="#DejaVuSans-79" x="1317.134766"/>
     <use xlink:href="#DejaVuSans-72" x="1376.314453"/>
     <use xlink:href="#DejaVuSans-65" x="1415.177734"/>
     <use xlink:href="#DejaVuSans-20" x="1476.701172"/>
     <use xlink:href="#DejaVuSans-49" x="1508.488281"/>
     <use xlink:href="#DejaVuSans-6e" x="1537.980469"/>
     <use xlink:href="#DejaVuSans-64" x="1601.359375"/>
     <use xlink:href="#DejaVuSans-75" x="1664.835938"/>
     <use xlink:href="#DejaVuSans-63" x="1728.214844"/>
     <use xlink:href="#DejaVuSans-74" x="1783.195312"/>
     <use xlink:href="#DejaVuSans-6f" x="1822.404297"/>
     <use xlink:href="#DejaVuSans-72" x="1883.585938"/>
     <use xlink:href="#DejaVuSans-20" x="1924.699219"/>
     <use xlink:href="#DejaVuSans-70" x="1956.486328"/>
     <use xlink:href="#DejaVuSans-69" x="2019.962891"/>
     <use xlink:href="#DejaVuSans-70" x="2047.746094"/>
     <use xlink:href="#DejaVuSans-65" x="2111.222656"/>
     <use xlink:href="#DejaVuSans-6c" x="2172.746094"/>
     <use xlink:href="#DejaVuSans-69" x="2200.529297"/>
     <use xlink:href="#DejaVuSans-6e" x="2228.3125"/>
     <use xlink:href="#DejaVuSans-65" x="2291.691406"/>
    </g>
   </g>
   <g id="legend_1">
    <g id="patch_17">
     <path d="M 613.746094 28.447597 
L 630.746094 28.447597 
L 630.746094 22.497597 
L 613.746094 22.497597 
z
" style="fill: #c7e5c0; stroke: #c7e5c0; stroke-linejoin: miter"/>
    </g>
    <g id="text_11">
     <!-- WSR-specific stages -->
     <g transform="translate(637.546094 28.447597) scale(0.085 -0.085)">
      <defs>
       <path id="DejaVuSans-2d" d="M 313 2009 
L 1997 2009 
L 1997 1497 
L 313 1497 
L 313 2009 
z
" transform="scale(0.015625)"/>
      </defs>
      <use xlink:href="#DejaVuSans-57"/>
      <use xlink:href="#DejaVuSans-53" x="98.876953"/>
      <use xlink:href="#DejaVuSans-52" x="162.353516"/>
      <use xlink:href="#DejaVuSans-2d" x="227.835938"/>
      <use xlink:href="#DejaVuSans-73" x="263.919922"/>
      <use xlink:href="#DejaVuSans-70" x="316.019531"/>
      <use xlink:href="#DejaVuSans-65" x="379.496094"/>
      <use xlink:href="#DejaVuSans-63" x="441.019531"/>
      <use xlink:href="#DejaVuSans-69" x="496"/>
      <use xlink:href="#DejaVuSans-66" x="523.783203"/>
      <use xlink:href="#DejaVuSans-69" x="558.988281"/>
      <use xlink:href="#DejaVuSans-63" x="586.771484"/>
      <use xlink:href="#DejaVuSans-20" x="641.751953"/>
      <use xlink:href="#DejaVuSans-73" x="673.539062"/>
      <use xlink:href="#DejaVuSans-74" x="725.638672"/>
      <use xlink:href="#DejaVuSans-61" x="764.847656"/>
      <use xlink:href="#DejaVuSans-67" x="826.126953"/>
      <use xlink:href="#DejaVuSans-65" x="889.603516"/>
      <use xlink:href="#DejaVuSans-73" x="951.126953"/>
     </g>
    </g>
    <g id="patch_18">
     <path d="M 613.746094 40.924003 
L 630.746094 40.924003 
L 630.746094 34.974003 
L 613.746094 34.974003 
z
" style="fill: #bab0ac; stroke: #bab0ac; stroke-linejoin: miter"/>
    </g>
    <g id="text_12">
     <!-- surrounding pipeline -->
     <g transform="translate(637.546094 40.924003) scale(0.085 -0.085)">
      <use xlink:href="#DejaVuSans-73"/>
      <use xlink:href="#DejaVuSans-75" x="52.099609"/>
      <use xlink:href="#DejaVuSans-72" x="115.478516"/>
      <use xlink:href="#DejaVuSans-72" x="154.841797"/>
      <use xlink:href="#DejaVuSans-6f" x="193.705078"/>
      <use xlink:href="#DejaVuSans-75" x="254.886719"/>
      <use xlink:href="#DejaVuSans-6e" x="318.265625"/>
      <use xlink:href="#DejaVuSans-64" x="381.644531"/>
      <use xlink:href="#DejaVuSans-69" x="445.121094"/>
      <use xlink:href="#DejaVuSans-6e" x="472.904297"/>
      <use xlink:href="#DejaVuSans-67" x="536.283203"/>
      <use xlink:href="#DejaVuSans-20" x="599.759766"/>
      <use xlink:href="#DejaVuSans-70" x="631.546875"/>
      <use xlink:href="#DejaVuSans-69" x="695.023438"/>
      <use xlink:href="#DejaVuSans-70" x="722.806641"/>
      <use xlink:href="#DejaVuSans-65" x="786.283203"/>
      <use xlink:href="#DejaVuSans-6c" x="847.806641"/>
      <use xlink:href="#DejaVuSans-69" x="875.589844"/>
      <use xlink:href="#DejaVuSans-6e" x="903.373047"/>
      <use xlink:href="#DejaVuSans-65" x="966.751953"/>
     </g>
    </g>
   </g>
  </g>
 </g>
 <defs>
  <clipPath id="p2cf6b179c3">
   <rect x="7.2" y="24.318125" width="725.4" height="199.584"/>
  </clipPath>
 </defs>
</svg>
